<?xml version="1.0" encoding="iso-8859-1"?>
<!-- Generator: Adobe Illustrator 19.0.0, SVG Export Plug-In . SVG Version: 6.00 Build 0)  -->
<svg version="1.1" id="Capa_1" xmlns="http://www.w3.org/2000/svg" xmlns:xlink="http://www.w3.org/1999/xlink" x="0px" y="0px"
	 viewBox="0 0 512 512" style="enable-background:new 0 0 512 512;" xml:space="preserve">
<g>
	<g>
		<path d="M67.13,421.93c-1.86-1.86-4.44-2.93-7.07-2.93s-5.21,1.069-7.069,2.93c-1.86,1.86-2.931,4.44-2.931,7.07
			s1.07,5.21,2.931,7.069C54.859,437.93,57.43,439,60.06,439s5.21-1.07,7.07-2.931c1.87-1.859,2.93-4.439,2.93-7.069
			S69,423.79,67.13,421.93z"/>
	</g>
</g>
<g>
	<g>
		<path d="M445.909,192.743C450.991,185.798,454,177.246,454,168v-8c0-23.159-18.841-42-42-42s-42,18.841-42,42v8
			c0,9.246,3.009,17.798,8.091,24.743c-13.223,3.7-24.957,10.981-34.091,20.737V210c0-33.906-22.93-62.539-54.091-71.257
			C294.991,131.798,298,123.246,298,114v-8c0-23.159-18.841-42-42-42s-42,18.841-42,42v8c0,9.246,3.009,17.798,8.091,24.743
			C190.93,147.461,168,176.094,168,210v3.48c-9.134-9.757-20.868-17.038-34.091-20.737C138.991,185.798,142,177.246,142,168v-8
			c0-23.159-18.841-42-42-42s-42,18.841-42,42v8c0,9.246,3.009,17.798,8.091,24.743C34.93,201.461,12,230.094,12,264v76
			c0,16.542,13.458,30,30,30h8.063v22c0,5.522,4.478,10,10,10c5.522,0,10-4.478,10-10v-64.5h60v154.528
			c0,5.498-4.474,9.972-9.972,9.972s-9.972-4.474-9.972-9.972V384.5c0-0.486-0.046-0.959-0.113-1.426v-8.947c0-5.522-4.478-10-10-10
			c-5.522,0-10,4.478-10,10v107.901c0,5.498-4.474,9.972-9.972,9.972s-9.972-4.474-9.972-9.972V463c0-5.522-4.478-10-10-10
			c-5.522,0-10,4.478-10,10v19.028c0,16.526,13.445,29.972,29.972,29.972c7.693,0,14.716-2.916,20.028-7.697
			c5.313,4.781,12.335,7.697,20.028,7.697c16.526,0,29.972-13.445,29.972-29.972V370H158c16.542,0,30-13.458,30-30v-25.72
			c3.13,1.11,6.494,1.72,10,1.72h8.063v112.028c0,16.526,13.445,29.972,29.972,29.972c7.693,0,14.716-2.916,20.028-7.697
			c5.313,4.781,12.335,7.697,20.028,7.697c16.526,0,29.972-13.445,29.972-29.972V316H314c3.506,0,6.87-0.61,10-1.72V340
			c0,16.542,13.458,30,30,30h8.063v112.028c0,16.526,13.445,29.972,29.972,29.972c7.693,0,14.716-2.916,20.028-7.697
			c5.313,4.781,12.335,7.697,20.028,7.697c16.526,0,29.972-13.445,29.972-29.972v-29.965c0-5.522-4.478-10-10-10
			c-5.522,0-10,4.478-10,10v29.965c0,5.498-4.474,9.972-9.972,9.972s-9.972-4.474-9.972-9.972V384.5
			c0-0.486-0.046-0.959-0.113-1.426v-8.947c0-5.522-4.478-10-10-10c-5.522,0-10,4.478-10,10v107.901
			c0,5.498-4.474,9.972-9.972,9.972c-5.498,0-9.972-4.474-9.972-9.972V327.5h60V385c0,5.522,4.478,10,10,10c5.522,0,10-4.478,10-10
			v-15H470c16.542,0,30-13.458,30-30v-76C500,230.094,477.07,201.461,445.909,192.743z M78,160c0-12.131,9.869-22,22-22
			s22,9.869,22,22v8c0,12.131-9.869,22-22,22s-22-9.869-22-22V160z M168,286v54c0,5.514-4.486,10-10,10h-7.937v-82
			c0-5.522-4.478-10-10-10c-5.522,0-10,4.478-10,10v39.5h-60V268c0-5.522-4.478-10-10-10c-5.522,0-10,4.478-10,10v82H42
			c-5.514,0-10-4.486-10-10v-76c0-29.775,24.225-54,54-54h28c29.775,0,54,24.225,54,54V286z M234,106c0-12.131,9.869-22,22-22
			s22,9.869,22,22v8c0,12.131-9.869,22-22,22c-12.131,0-22-9.869-22-22V106z M286.063,428.028c0,5.498-4.473,9.972-9.971,9.972
			s-9.972-4.474-9.972-9.972V330.5c0-0.486-0.046-0.959-0.113-1.426v-8.947c0-5.522-4.478-10-10-10c-5.522,0-10,4.478-10,10v107.901
			c0,5.498-4.474,9.972-9.972,9.972c-5.498,0-9.972-4.474-9.972-9.972V273.5h60V428.028z M324,264v22c0,5.514-4.486,10-10,10h-7.937
			v-82c0-5.522-4.478-10-10-10c-5.522,0-10,4.478-10,10v39.5h-60V214c0-5.522-4.478-10-10-10c-5.522,0-10,4.478-10,10v82H198
			c-5.514,0-10-4.486-10-10v-22v-54c0-29.775,24.225-54,54-54h28c29.775,0,54,24.225,54,54V264z M390,160c0-12.131,9.869-22,22-22
			c12.131,0,22,9.869,22,22v8c0,12.131-9.869,22-22,22c-12.131,0-22-9.869-22-22V160z M480,340c0,5.514-4.486,10-10,10h-7.937v-82
			c0-5.522-4.478-10-10-10c-5.522,0-10,4.478-10,10v39.5h-60V268c0-5.522-4.478-10-10-10c-5.522,0-10,4.478-10,10v82H354
			c-5.514,0-10-4.486-10-10v-54v-22c0-29.775,24.225-54,54-54h28c29.775,0,54,24.225,54,54V340z"/>
	</g>
</g>
<g>
	<g>
		<path d="M459.13,409.6c-1.86-1.871-4.43-2.93-7.07-2.93c-2.63,0-5.21,1.06-7.069,2.93c-1.86,1.86-2.931,4.431-2.931,7.07
			c0,2.63,1.07,5.21,2.931,7.07c1.859,1.859,4.439,2.93,7.069,2.93c2.641,0,5.21-1.07,7.07-2.93c1.87-1.86,2.93-4.44,2.93-7.07
			C462.06,414.03,461,411.46,459.13,409.6z"/>
	</g>
</g>
<g>
	<g>
		<path d="M301.089,36.745L266,22.019V10c0-5.522-4.478-10-10-10c-5.522,0-10,4.478-10,10v12.072l-34.962,14.673
			C200.991,40.96,194.5,50.725,194.5,61.62V75c0,5.522,4.478,10,10,10c5.522,0,10-4.478,10-10V61.62
			c0-2.818,1.679-5.343,4.277-6.434l37.286-15.648l37.287,15.648c2.598,1.091,4.276,3.615,4.276,6.434V75c0,5.522,4.478,10,10,10
			c5.522,0,10-4.478,10-10V61.62C317.626,50.724,311.135,40.96,301.089,36.745z"/>
	</g>
</g>
<g>
</g>
<g>
</g>
<g>
</g>
<g>
</g>
<g>
</g>
<g>
</g>
<g>
</g>
<g>
</g>
<g>
</g>
<g>
</g>
<g>
</g>
<g>
</g>
<g>
</g>
<g>
</g>
<g>
</g>
</svg>
