<?xml version="1.0" encoding="iso-8859-1"?>
<!-- Generator: Adobe Illustrator 19.0.0, SVG Export Plug-In . SVG Version: 6.00 Build 0)  -->
<svg version="1.1" id="Capa_1" xmlns="http://www.w3.org/2000/svg" xmlns:xlink="http://www.w3.org/1999/xlink" x="0px" y="0px"
	 viewBox="0 0 512 512" style="enable-background:new 0 0 512 512;" xml:space="preserve">
<g>
	<g>
		<path d="M131.069,192.99c-1.859-1.86-4.439-2.931-7.069-2.931s-5.21,1.07-7.07,2.931c-1.86,1.869-2.93,4.439-2.93,7.079
			c0,2.631,1.069,5.2,2.93,7.07c1.86,1.861,4.44,2.93,7.07,2.93s5.21-1.069,7.069-2.93c1.86-1.859,2.931-4.439,2.931-7.07
			C134,197.429,132.93,194.849,131.069,192.99z"/>
	</g>
</g>
<g>
	<g>
		<path d="M365.877,322.468C384.763,314.216,398,295.365,398,273.473V142C398,63.701,334.299,0,256,0S114,63.701,114,142v15
			c0,5.522,4.478,10,10,10c5.522,0,10-4.478,10-10v-15c0-67.271,54.729-122,122-122s122,54.729,122,122v131.473
			c0,18.442-15.004,33.447-33.447,33.447h-41.026c0.304-2.18,0.473-4.402,0.473-6.664v-26.47c0-0.153-0.016-0.302-0.023-0.454
			C332.662,256.712,352,225.676,352,190.206v-34.281c0-23.159-18.841-42-42-42H202c-23.159,0-42,18.841-42,42v34.281
			c0,35.47,19.338,66.506,48.023,83.126c-0.007,0.151-0.023,0.301-0.023,0.454v26.47c0,2.262,0.169,4.484,0.473,6.664h-41.026
			c-18.443,0-33.447-15.004-33.447-33.447V240c0-5.522-4.478-10-10-10c-5.522,0-10,4.478-10,10v33.473
			c0,21.893,13.237,40.744,32.123,48.996C89.401,348.975,50,406.568,50,473.199V502c0,5.522,4.478,10,10,10h392
			c5.522,0,10-4.478,10-10v-28.801C462,406.568,422.599,348.975,365.877,322.468z M180,190.206v-34.281c0-12.131,9.869-22,22-22h108
			c12.131,0,22,9.869,22,22v34.281c0,41.906-34.094,76-76,76S180,232.112,180,190.206z M284,282.037v18.219
			c0,15.439-12.561,28-28,28c-15.439,0-28-12.561-28-28v-18.219c8.862,2.707,18.263,4.169,28,4.169S275.138,284.744,284,282.037z
			 M216.111,326.922c8.621,12.854,23.282,21.334,39.889,21.334s31.268-8.479,39.889-21.334c9.671,0.011,19.122,0.972,28.272,2.782
			L256,447.763l-68.161-118.058C196.989,327.894,206.44,326.933,216.111,326.922z M442,492h-40.308v-35c0-5.522-4.478-10-10-10
			c-5.522,0-10,4.478-10,10v35H130.308v-64.442c0-5.522-4.478-10-10-10c-5.522,0-10,4.478-10,10V492H70v-18.801
			c0-63.707,40.942-118.023,97.892-138.044l79.448,137.607c1.786,3.094,5.088,5,8.66,5s6.874-1.906,8.66-5l79.448-137.607
			C401.058,355.176,442,409.492,442,473.199V492z"/>
	</g>
</g>
<g>
	<g>
		<path d="M226.939,180.73c-1.859-1.86-4.439-2.93-7.069-2.93s-5.2,1.07-7.07,2.93c-1.86,1.86-2.92,4.431-2.92,7.07
			c0,2.63,1.06,5.21,2.92,7.07c1.87,1.859,4.44,2.93,7.07,2.93c2.64,0,5.21-1.07,7.069-2.93c1.87-1.86,2.94-4.44,2.94-7.07
			S228.809,182.59,226.939,180.73z"/>
	</g>
</g>
<g>
	<g>
		<path d="M299.45,180.73c-1.86-1.859-4.44-2.93-7.07-2.93s-5.21,1.07-7.07,2.93c-1.859,1.86-2.93,4.44-2.93,7.07
			s1.07,5.21,2.93,7.07c1.86,1.859,4.44,2.93,7.07,2.93s5.21-1.07,7.07-2.93c1.859-1.86,2.93-4.44,2.93-7.07
			S301.31,182.59,299.45,180.73z"/>
	</g>
</g>
<g>
	<g>
		<path d="M270.744,217.749c-3.906-3.904-10.236-3.904-14.143,0c-1.018,1.018-2.674,1.018-3.693,0
			c-3.905-3.906-10.238-3.905-14.142,0.001c-3.905,3.905-3.904,10.237,0.001,14.142c4.408,4.408,10.198,6.611,15.988,6.611
			c5.79,0,11.58-2.204,15.988-6.611C274.649,227.986,274.649,221.654,270.744,217.749z"/>
	</g>
</g>
<g>
	<g>
		<path d="M398.759,410.491c-1.86-1.861-4.429-2.931-7.07-2.931c-2.63,0-5.21,1.07-7.069,2.931c-1.86,1.859-2.931,4.43-2.931,7.069
			c0,2.63,1.07,5.21,2.931,7.07c1.87,1.86,4.439,2.93,7.069,2.93s5.21-1.069,7.07-2.93c1.86-1.861,2.93-4.44,2.93-7.07
			S400.62,412.35,398.759,410.491z"/>
	</g>
</g>
<g>
</g>
<g>
</g>
<g>
</g>
<g>
</g>
<g>
</g>
<g>
</g>
<g>
</g>
<g>
</g>
<g>
</g>
<g>
</g>
<g>
</g>
<g>
</g>
<g>
</g>
<g>
</g>
<g>
</g>
</svg>
