<?xml version="1.0" encoding="iso-8859-1"?>
<!-- Generator: Adobe Illustrator 19.0.0, SVG Export Plug-In . SVG Version: 6.00 Build 0)  -->
<svg version="1.1" id="Capa_1" xmlns="http://www.w3.org/2000/svg" xmlns:xlink="http://www.w3.org/1999/xlink" x="0px" y="0px"
	 viewBox="0 0 512 512" style="enable-background:new 0 0 512 512;" xml:space="preserve">
<g>
	<g>
		<path d="M139.079,29.937c-1.86-1.86-4.43-2.93-7.07-2.93c-2.63,0-5.21,1.069-7.07,2.93c-1.86,1.86-2.93,4.44-2.93,7.07
			s1.07,5.21,2.93,7.069c1.86,1.86,4.44,2.931,7.07,2.931c2.64,0,5.21-1.07,7.07-2.931c1.87-1.859,2.93-4.439,2.93-7.069
			S140.949,31.797,139.079,29.937z"/>
	</g>
</g>
<g>
	<g>
		<path d="M442.002,27.007H173.009c-5.523,0-10,4.478-10,10s4.477,10,10,10h268.993c27.569,0,49.999,22.429,49.999,49.999v237.994
			c0,27.569-22.429,49.999-49.999,49.999h-74.011c-5.523,0-10,4.478-10,10v55.856l-62.927-62.927
			c-1.875-1.875-4.419-2.929-7.071-2.929H65.998C40.635,384.997,20,364.361,20,338.998V93.004c0-25.363,20.635-45.999,45.999-45.999
			h24.012c5.523,0,10-4.478,10-10s-4.477-10-10-10H65.998C29.606,27.006,0,56.612,0,93.004v245.994
			c0,36.392,29.606,65.998,65.998,65.998h217.852l77.069,77.069c1.914,1.913,4.471,2.93,7.073,2.929
			c1.288,0,2.588-0.249,3.825-0.761c3.737-1.548,6.173-5.194,6.173-9.239v-69.998h64.011c38.597,0,69.998-31.401,69.998-69.998
			V97.004C512,58.408,480.599,27.007,442.002,27.007z"/>
	</g>
</g>
<g>
	<g>
		<path d="M262.963,103.479h-2.339c-3.134,0-6.276,0.271-9.338,0.805c-5.441,0.949-9.083,6.129-8.134,11.569
			c0.848,4.859,5.07,8.284,9.84,8.284c0.57,0,1.148-0.049,1.729-0.15c1.932-0.337,3.917-0.508,5.903-0.508h2.339
			c5.523,0,10-4.478,10-10C272.963,107.957,268.486,103.479,262.963,103.479z"/>
	</g>
</g>
<g>
	<g>
		<path d="M232.336,122.314c-4.323-3.435-10.615-2.715-14.05,1.61c-2.547,3.206-4.728,6.699-6.483,10.383
			c-2.375,4.986-0.259,10.953,4.727,13.328c1.388,0.662,2.853,0.975,4.294,0.975c3.736,0,7.32-2.104,9.035-5.7
			c1.105-2.32,2.48-4.522,4.088-6.546C237.382,132.04,236.661,125.749,232.336,122.314z"/>
	</g>
</g>
<g>
	<g>
		<path d="M256.922,191.386c-2.563-0.276-5.092-0.846-7.518-1.691c-5.215-1.814-10.916,0.937-12.734,6.153
			c-1.818,5.216,0.937,10.917,6.152,12.734c3.86,1.345,7.882,2.25,11.954,2.689c0.365,0.039,0.727,0.059,1.085,0.059
			c5.041,0,9.376-3.802,9.93-8.928C266.383,196.911,262.412,191.979,256.922,191.386z"/>
	</g>
</g>
<g>
	<g>
		<path d="M266,292.474h-10c-5.523,0-10,4.478-10,10c0,5.522,4.477,10,10,10h10c5.523,0,10-4.478,10-10
			C276,296.952,271.523,292.474,266,292.474z"/>
	</g>
</g>
<g>
	<g>
		<path d="M230.879,174.127c-1.258-2.248-2.257-4.639-2.971-7.104c-1.536-5.305-7.083-8.36-12.387-6.824
			c-5.304,1.535-8.36,7.081-6.824,12.386c1.136,3.925,2.727,7.728,4.726,11.303c1.833,3.276,5.233,5.121,8.737,5.121
			c1.652,0,3.328-0.41,4.872-1.274C231.852,185.04,233.574,178.947,230.879,174.127z"/>
	</g>
</g>
<g>
	<g>
		<path d="M339.834,191.586h-10c-5.523,0-10,4.478-10,10c0,5.522,4.477,10,10,10h10c5.523,0,10-4.478,10-10
			C349.834,196.064,345.357,191.586,339.834,191.586z"/>
	</g>
</g>
<g>
	<g>
		<path d="M401.929,301.149c-0.578-5.493-5.5-9.481-10.991-8.899c-1.416,0.149-2.861,0.225-4.295,0.225h-4.646
			c-5.523,0-10,4.478-10,10s4.477,9.999,10,9.999h4.646c2.13,0,4.279-0.112,6.387-0.334
			C398.523,311.562,402.507,306.641,401.929,301.149z"/>
	</g>
</g>
<g>
	<g>
		<path d="M349.998,292.474h-10c-5.523,0-10,4.478-10,10c0,5.522,4.477,10,10,10h10c5.523,0,10-4.478,10-10
			C359.998,296.952,355.521,292.474,349.998,292.474z"/>
	</g>
</g>
<g>
	<g>
		<path d="M381.833,191.586h-10c-5.523,0-10,4.478-10,10c0,5.522,4.477,10,10,10h10c5.523,0,10-4.478,10-10
			C391.833,196.064,387.356,191.586,381.833,191.586z"/>
	</g>
</g>
<g>
	<g>
		<path d="M427.265,207.27c-2.951-2.681-6.18-5.077-9.596-7.125c-4.735-2.836-10.879-1.299-13.718,3.438
			c-2.839,4.737-1.3,10.88,3.438,13.719c2.29,1.372,4.454,2.979,6.432,4.774c1.916,1.739,4.321,2.597,6.719,2.597
			c2.721,0,5.433-1.104,7.406-3.277C431.659,217.307,431.354,210.982,427.265,207.27z"/>
	</g>
</g>
<g>
	<g>
		<path d="M433.252,273.79c-4.454-3.269-10.71-2.308-13.979,2.145c-1.58,2.151-3.381,4.157-5.354,5.961
			c-4.077,3.726-4.362,10.051-0.636,14.128c1.973,2.158,4.674,3.254,7.385,3.254c2.408,0,4.825-0.865,6.743-2.618
			c2.943-2.688,5.63-5.68,7.986-8.891C438.664,283.315,437.704,277.057,433.252,273.79z"/>
	</g>
</g>
<g>
	<g>
		<path d="M304.962,103.479h-10c-5.523,0-10,4.478-10,10c0,5.522,4.477,10,10,10h10c5.523,0,10-4.478,10-10
			C314.962,107.957,310.485,103.479,304.962,103.479z"/>
	</g>
</g>
<g>
	<g>
		<path d="M445.898,240.042c-1.09-5.414-6.369-8.918-11.777-7.83c-5.415,1.091-8.92,6.363-7.83,11.777
			c0.524,2.605,0.792,5.288,0.797,7.973c0.009,5.518,4.484,9.984,10,9.984c0.005,0,0.011,0,0.016,0
			c5.523-0.008,9.993-4.492,9.984-10.015C447.082,247.934,446.681,243.934,445.898,240.042z"/>
	</g>
</g>
<g>
	<g>
		<path d="M307.999,292.474h-10c-5.523,0-10,4.478-10,10c0,5.522,4.477,10,10,10h10c5.523,0,10-4.478,10-10
			C317.999,296.952,313.522,292.474,307.999,292.474z"/>
	</g>
</g>
<g>
	<g>
		<path d="M297.835,191.586h-10c-5.523,0-10,4.477-10,10c0,5.522,4.477,10,10,10h10c5.523,0,10-4.478,10-10
			C307.835,196.064,303.358,191.586,297.835,191.586z"/>
	</g>
</g>
<g>
	<g>
		<path d="M210.013,228.337h-32.867v-18.865c0-9.863-8.024-17.888-17.888-17.888h-54.491c-9.864,0.001-17.889,8.025-17.889,17.888
			v18.865H54.012c-5.523,0-10,4.478-10,10v34.74c0,5.819,2.042,11.168,5.442,15.377v59.289c0,9.515,7.741,17.256,17.256,17.256
			h130.606c9.515,0,17.256-7.741,17.256-17.256v-59.275c3.524-4.347,5.442-9.725,5.442-15.4v-34.731
			C220.012,232.815,215.536,228.337,210.013,228.337z M106.878,211.585h50.269v16.753h-50.269V211.585z M200.014,273.069
			c0,1.627-0.829,2.697-1.322,3.191c-0.494,0.493-1.564,1.32-3.184,1.32c-0.001,0-0.002,0-0.003,0l-24.483-0.031
			c-0.004,0-0.009,0-0.013,0c-5.517,0-9.993,4.469-10,9.987c-0.007,5.522,4.464,10.006,9.987,10.013l23.575,0.03v47.42H69.453
			v-47.409h24.224c5.523,0,10-4.478,10-10c0-5.522-4.477-10-10-10H68.523c-2.488,0-4.512-2.024-4.512-4.513v-24.74h136.003V273.069z
			"/>
	</g>
</g>
<g>
	<g>
		<path d="M139.079,280.519c-1.86-1.859-4.43-2.93-7.07-2.93c-2.63,0-5.21,1.07-7.07,2.93c-1.86,1.86-2.93,4.44-2.93,7.07
			s1.07,5.21,2.93,7.07c1.86,1.86,4.44,2.93,7.07,2.93c2.64,0,5.21-1.07,7.07-2.93c1.87-1.86,2.93-4.44,2.93-7.07
			S140.949,282.379,139.079,280.519z"/>
	</g>
</g>
<g>
	<g>
		<path d="M412.503,67.006h-56.999c-5.523,0-10,4.478-10,10v76.605c0,5.522,4.477,10,10,10s10-4.478,10-10v-19.547h46.999
			c5.523,0,10-4.478,10-10V77.005C422.502,71.483,418.025,67.006,412.503,67.006z M402.503,114.064h-36.999V87.004h36.999V114.064z"
			/>
	</g>
</g>
<g>
</g>
<g>
</g>
<g>
</g>
<g>
</g>
<g>
</g>
<g>
</g>
<g>
</g>
<g>
</g>
<g>
</g>
<g>
</g>
<g>
</g>
<g>
</g>
<g>
</g>
<g>
</g>
<g>
</g>
</svg>
