<?xml version="1.0" encoding="iso-8859-1"?>
<!-- Generator: Adobe Illustrator 19.0.0, SVG Export Plug-In . SVG Version: 6.00 Build 0)  -->
<svg version="1.1" id="Capa_1" xmlns="http://www.w3.org/2000/svg" xmlns:xlink="http://www.w3.org/1999/xlink" x="0px" y="0px"
	 viewBox="0 0 512 512" style="enable-background:new 0 0 512 512;" xml:space="preserve">
<g>
	<g>
		<path d="M428,0H84C67.458,0,54,13.458,54,30v45.563V256c0,5.522,4.478,10,10,10c5.522,0,10-4.478,10-10V122.828
			c11.897,11.582,28.125,18.736,46,18.736h86V216c0,27.57,22.43,50,50,50s50-22.43,50-50v-74.437h86
			c17.875,0,34.103-7.154,46-18.736V471.7l-18.966-25.605c-3.755-5.069-9.763-8.096-16.071-8.096H109.037
			c-6.309,0-12.316,3.026-16.07,8.096L74,471.701V332c0-5.522-4.478-10-10-10c-5.522,0-10,4.478-10,10v150
			c0,7.619,2.86,14.579,7.556,19.876c0.008,0.009,0.015,0.017,0.023,0.026C67.078,508.091,75.089,512,84,512h344
			c8.911,0,16.922-3.909,22.421-10.098c0.008-0.009,0.015-0.017,0.023-0.026C455.14,496.579,458,489.619,458,482V75.563V30
			C458,13.458,444.542,0,428,0z M428,492H84c-0.048,0-0.095-0.007-0.143-0.007L109.037,458h293.926l25.18,33.993
			C428.095,491.993,428.048,492,428,492z M256,246c-16.542,0-30-13.458-30-30s13.458-30,30-30s30,13.458,30,30S272.542,246,256,246z
			 M286,176.027C277.637,169.735,267.248,166,256,166s-21.637,3.735-30,10.027v-44.491c8.363,6.292,18.752,10.027,30,10.027
			s21.637-3.735,30-10.027V176.027z M256,121.563c-16.542,0-30-13.458-30-30s13.458-30,30-30s30,13.458,30,30
			S272.542,121.563,256,121.563z M438,75.563c0,25.365-20.636,46-46,46h-86v-30c0-27.57-22.43-50-50-50s-50,22.43-50,50v30h-86
			c-25.364,0-46-20.636-46-46V30c0-5.514,4.486-10,10-10h344c5.514,0,10,4.486,10,10V75.563z"/>
	</g>
</g>
<g>
	<g>
		<path d="M71.069,287.96c-1.859-1.86-4.439-2.93-7.069-2.93s-5.21,1.069-7.07,2.93c-1.86,1.859-2.93,4.439-2.93,7.07
			c0,2.64,1.069,5.21,2.93,7.069c1.86,1.861,4.44,2.931,7.07,2.931s5.21-1.07,7.069-2.931C72.93,300.24,74,297.66,74,295.03
			C74,292.399,72.93,289.83,71.069,287.96z"/>
	</g>
</g>
<g>
	<g>
		<path d="M263.069,84.491C261.21,82.63,258.63,81.56,256,81.56s-5.21,1.07-7.07,2.931C247.07,86.35,246,88.93,246,91.56
			c0,2.641,1.069,5.21,2.93,7.07c1.86,1.87,4.44,2.93,7.07,2.93s5.21-1.06,7.069-2.93c1.86-1.86,2.931-4.44,2.931-7.07
			S264.93,86.35,263.069,84.491z"/>
	</g>
</g>
<g>
	<g>
		<path d="M263.069,208.93C261.21,207.069,258.63,206,256,206s-5.21,1.069-7.07,2.93c-1.86,1.861-2.93,4.44-2.93,7.07
			s1.069,5.21,2.93,7.069c1.86,1.86,4.44,2.931,7.07,2.931s5.21-1.07,7.069-2.931C264.93,221.21,266,218.63,266,216
			S264.93,210.79,263.069,208.93z"/>
	</g>
</g>
<g>
	<g>
		<path d="M408,185c-5.522,0-10,4.478-10,10v100.032c0,5.522,4.478,10,10,10c5.522,0,10-4.477,10-10V195
			C418,189.478,413.522,185,408,185z"/>
	</g>
</g>
<g>
	<g>
		<path d="M415.069,324.93C413.21,323.07,410.63,322,408,322s-5.21,1.069-7.07,2.93c-1.86,1.861-2.93,4.44-2.93,7.07
			s1.069,5.21,2.93,7.069c1.86,1.86,4.44,2.931,7.07,2.931s5.21-1.07,7.069-2.931C416.93,337.21,418,334.63,418,332
			S416.93,326.79,415.069,324.93z"/>
	</g>
</g>
<g>
</g>
<g>
</g>
<g>
</g>
<g>
</g>
<g>
</g>
<g>
</g>
<g>
</g>
<g>
</g>
<g>
</g>
<g>
</g>
<g>
</g>
<g>
</g>
<g>
</g>
<g>
</g>
<g>
</g>
</svg>
