<?xml version="1.0" encoding="iso-8859-1"?>
<!-- Generator: Adobe Illustrator 19.0.0, SVG Export Plug-In . SVG Version: 6.00 Build 0)  -->
<svg version="1.1" id="Capa_1" xmlns="http://www.w3.org/2000/svg" xmlns:xlink="http://www.w3.org/1999/xlink" x="0px" y="0px"
	 viewBox="0 0 512 512" style="enable-background:new 0 0 512 512;" xml:space="preserve">
<g>
	<g>
		<path d="M492,246h-2.978v-30.264c0-44.235-33.958-80.672-77.171-84.653c-0.101-0.028-0.203-0.049-0.305-0.074
			c9.36-10.451,15.065-24.24,15.065-39.34V10c0-5.522-4.478-10-10-10h-60.742c-26.099,0-47.332,21.233-47.332,47.332v44.337
			c0,15.1,5.706,28.889,15.065,39.34c-0.102,0.025-0.204,0.046-0.305,0.075c-29.159,2.687-54.094,20.15-67.233,44.821
			c-13.14-24.671-38.074-42.135-67.233-44.821c-0.101-0.028-0.204-0.05-0.305-0.075c9.36-10.451,15.065-24.24,15.065-39.34V10
			c0-5.522-4.478-10-10-10h-60.742C106.75,0,85.517,21.233,85.517,47.332v44.337c0,15.1,5.706,28.889,15.065,39.34
			c-0.102,0.025-0.204,0.046-0.305,0.074c-43.214,3.981-77.171,40.418-77.171,84.653V246H20c-11.028,0-20,8.972-20,20v36
			c0,11.028,8.972,20,20,20h8v29.577c0,5.522,4.478,10,10,10s10-4.478,10-10V322h416v28H354.333c-5.522,0-10,4.478-10,10
			c0,5.522,4.478,10,10,10H464v122H48v-56c0-5.522-4.478-10-10-10s-10,4.478-10,10v66c0,5.522,4.478,10,10,10h436
			c5.522,0,10-4.478,10-10V322h8c11.028,0,20-8.972,20-20v-36C512,254.972,503.028,246,492,246z M367.575,130.706
			c-21.525,0-39.037-17.512-39.037-39.037V78.453h59.764c6.627,0,12.866-1.693,18.31-4.667v17.883
			C406.612,113.194,389.1,130.706,367.575,130.706z M385.006,150.706l-17.432,17.432l-17.432-17.432H385.006z M328.536,47.332
			L328.536,47.332C328.537,32.261,340.798,20,355.869,20h50.742v20.144c0,10.096-8.214,18.31-18.31,18.31h-59.765V47.332z
			 M266.127,215.736c0-32.906,24.573-60.164,56.33-64.431l38.046,38.046c1.953,1.952,4.512,2.929,7.071,2.929
			s5.118-0.977,7.071-2.929l38.047-38.047c31.756,4.267,56.33,31.525,56.33,64.431V246H266.127V215.736z M144.554,130.706
			c-21.525,0-39.037-17.512-39.037-39.037V78.453h59.764c6.627,0,12.866-1.693,18.31-4.667v17.883
			C183.591,113.194,166.079,130.706,144.554,130.706z M161.984,150.706l-17.432,17.432l-17.432-17.432H161.984z M105.515,47.332
			L105.515,47.332C105.516,32.261,117.777,20,132.848,20h50.742v20.144c0,10.096-8.214,18.31-18.31,18.31h-59.765V47.332z
			 M43.104,215.736c0-32.906,24.574-60.164,56.33-64.431l38.047,38.047c1.953,1.952,4.512,2.929,7.071,2.929
			s5.118-0.977,7.071-2.929l38.046-38.046c31.756,4.267,56.33,31.525,56.33,64.431V246H43.104V215.736z M492,302h-18H38H20v-36
			h13.104H256h0.127h222.896H492l0.013,35.999C492.013,302,492.009,302,492,302z"/>
	</g>
</g>
<g>
	<g>
		<path d="M45.069,385.201c-1.859-1.87-4.439-2.931-7.069-2.931s-5.21,1.061-7.07,2.931c-1.86,1.859-2.93,4.43-2.93,7.069
			c0,2.63,1.069,5.21,2.93,7.07c1.861,1.86,4.44,2.93,7.07,2.93s5.21-1.069,7.069-2.93c1.86-1.86,2.931-4.44,2.931-7.07
			C48,389.63,46.93,387.06,45.069,385.201z"/>
	</g>
</g>
<g>
	<g>
		<path d="M315.069,352.93C313.21,351.07,310.63,350,308,350s-5.21,1.069-7.07,2.93c-1.86,1.861-2.93,4.44-2.93,7.07
			s1.069,5.21,2.93,7.069c1.86,1.86,4.44,2.931,7.07,2.931s5.21-1.07,7.069-2.931C316.93,365.21,318,362.63,318,360
			S316.93,354.79,315.069,352.93z"/>
	</g>
</g>
<g>
</g>
<g>
</g>
<g>
</g>
<g>
</g>
<g>
</g>
<g>
</g>
<g>
</g>
<g>
</g>
<g>
</g>
<g>
</g>
<g>
</g>
<g>
</g>
<g>
</g>
<g>
</g>
<g>
</g>
</svg>
