<?xml version="1.0" encoding="iso-8859-1"?>
<!-- Generator: Adobe Illustrator 19.0.0, SVG Export Plug-In . SVG Version: 6.00 Build 0)  -->
<svg version="1.1" id="Capa_1" xmlns="http://www.w3.org/2000/svg" xmlns:xlink="http://www.w3.org/1999/xlink" x="0px" y="0px"
	 viewBox="0 0 511.999 511.999" style="enable-background:new 0 0 511.999 511.999;" xml:space="preserve">
<g>
	<g>
		<path d="M331.999,94.064h-66V82.802c19.946-4.86,33.32-23.13,31.898-43.757c-1.432-20.77-18.173-37.511-38.942-38.942
			c-11.79-0.813-23.01,3.162-31.61,11.19C218.865,19.211,214,30.403,214,42.002c0,5.522,4.477,10,10,10c5.523,0,10-4.478,10-10
			c0-6.165,2.483-11.878,6.993-16.088c4.504-4.204,10.399-6.291,16.588-5.857c10.861,0.748,19.616,9.503,20.364,20.364
			c0.756,10.969-6.44,20.663-17.111,23.051C252.1,65.425,246,73.015,246,81.929v12.136h-66
			c-69.477,0-125.999,56.523-125.999,125.999v102.437c0,5.522,4.477,10,10,10s10-4.478,10-10V220.064
			c0-51.902,37.498-95.206,86.823-104.257l85.302,142.951v233.242H84c-5.514,0-10-4.486-10-10v-72.943c0-5.522-4.477-10-10-10
			c-5.523,0-10,4.478-10,10v72.943c0,16.542,13.458,30,30,30h343.998c16.542,0,30-13.458,30-30V220.064
			C457.998,150.587,401.476,94.064,331.999,94.064z M294.215,114.064h34.963l-35.717,59.856l-7.918-28.678L294.215,114.064z
			 M273.456,114.064l-5.888,21.168H244.43l-5.888-21.168H273.456z M218.609,173.614l-35.534-59.55h34.709l8.671,31.176
			L218.609,173.614z M232.789,197.377l11.654-42.145h23.111l11.723,42.459l-23.15,38.796L232.789,197.377z M427.999,492H266.126
			V258.758l85.275-142.907c49.214,9.142,86.596,52.392,86.596,104.213V482h0C437.998,487.514,433.513,492,427.999,492z"/>
	</g>
</g>
<g>
	<g>
		<path d="M71.071,355.681c-1.86-1.86-4.44-2.93-7.07-2.93c-2.63,0-5.21,1.069-7.07,2.93c-1.86,1.86-2.93,4.44-2.93,7.07
			c0,2.63,1.07,5.21,2.93,7.069c1.86,1.86,4.44,2.931,7.07,2.931c2.63,0,5.21-1.07,7.07-2.931c1.86-1.859,2.93-4.439,2.93-7.069
			C74.001,360.121,72.931,357.541,71.071,355.681z"/>
	</g>
</g>
<g>
	<g>
		<path d="M304.739,248.932c-1.87-1.861-4.44-2.93-7.07-2.93c-2.64,0-5.21,1.069-7.07,2.93c-1.87,1.86-2.93,4.44-2.93,7.07
			c0,2.63,1.06,5.21,2.93,7.069c1.86,1.86,4.43,2.931,7.07,2.931c2.63,0,5.21-1.07,7.07-2.931c1.86-1.859,2.93-4.439,2.93-7.069
			C307.669,253.372,306.599,250.791,304.739,248.932z"/>
	</g>
</g>
<g>
	<g>
		<path d="M304.739,317.57c-1.86-1.86-4.44-2.92-7.07-2.92c-2.64,0-5.21,1.061-7.08,2.92c-1.86,1.87-2.92,4.44-2.92,7.08
			c0,2.631,1.06,5.2,2.92,7.07c1.87,1.86,4.44,2.93,7.08,2.93c2.63,0,5.21-1.069,7.07-2.93c1.86-1.87,2.93-4.439,2.93-7.07
			C307.669,322.01,306.599,319.44,304.739,317.57z"/>
	</g>
</g>
<g>
	<g>
		<path d="M304.739,386.221c-1.86-1.86-4.44-2.93-7.07-2.93c-2.64,0-5.21,1.069-7.07,2.93c-1.87,1.86-2.93,4.44-2.93,7.07
			s1.06,5.21,2.93,7.069c1.86,1.87,4.44,2.931,7.07,2.931s5.21-1.061,7.07-2.931c1.86-1.859,2.93-4.43,2.93-7.069
			C307.669,390.661,306.599,388.081,304.739,386.221z"/>
	</g>
</g>
<g>
	<g>
		<path d="M304.739,454.87c-1.87-1.87-4.44-2.931-7.07-2.931c-2.64,0-5.21,1.061-7.07,2.931c-1.87,1.859-2.93,4.439-2.93,7.069
			c0,2.63,1.06,5.21,2.93,7.07c1.86,1.86,4.43,2.93,7.07,2.93c2.63,0,5.21-1.069,7.07-2.93c1.86-1.861,2.93-4.44,2.93-7.07
			C307.669,459.299,306.599,456.729,304.739,454.87z"/>
	</g>
</g>
<g>
	<g>
		<path d="M393.999,246.002h-51c-5.523,0-10,4.478-10,10c0,5.522,4.477,10,10,10h51c5.523,0,10-4.478,10-10
			C403.999,250.48,399.522,246.002,393.999,246.002z"/>
	</g>
</g>
<g>
</g>
<g>
</g>
<g>
</g>
<g>
</g>
<g>
</g>
<g>
</g>
<g>
</g>
<g>
</g>
<g>
</g>
<g>
</g>
<g>
</g>
<g>
</g>
<g>
</g>
<g>
</g>
<g>
</g>
</svg>
