<?xml version="1.0" encoding="iso-8859-1"?>
<!-- Generator: Adobe Illustrator 19.0.0, SVG Export Plug-In . SVG Version: 6.00 Build 0)  -->
<svg version="1.1" id="Capa_1" xmlns="http://www.w3.org/2000/svg" xmlns:xlink="http://www.w3.org/1999/xlink" x="0px" y="0px"
	 viewBox="0 0 512.002 512.002" style="enable-background:new 0 0 512.002 512.002;" xml:space="preserve">
<g>
	<g>
		<path d="M501.979,246.312c5.523,0,9.999-4.478,9.999-9.999v-63.888c0.001-5.521-4.475-9.998-9.996-9.999l-166.107-0.04
			c-0.007,0-0.013,0-0.021,0c-20.152,0-39.833,8.222-53.995,22.558l-15.627,15.817l-23.958-23.963
			c-9.282-9.282-21.624-14.396-34.752-14.397l-197.5-0.015c-2.652,0-5.195,1.054-7.07,2.929c-1.876,1.875-2.929,4.419-2.929,7.07
			v198.191c0,5.522,4.477,9.999,9.999,9.999h89.186c1.559,5.602,4.528,10.889,8.923,15.287c6.815,6.816,15.768,10.226,24.722,10.226
			c0.114,0,0.227-0.007,0.34-0.008c-0.001,0.121-0.009,0.241-0.009,0.363c-0.001,9.336,3.633,18.115,10.234,24.718
			c6.601,6.603,15.379,10.241,24.716,10.243c0.002,0,0.003,0,0.005,0c0.114,0,0.227-0.007,0.341-0.008
			c-0.001,0.116-0.008,0.23-0.008,0.346c-0.002,9.337,3.633,18.115,10.234,24.719s15.378,10.241,24.715,10.242
			c0.002,0,0.004,0,0.006,0c0.114,0,0.227-0.007,0.341-0.008c-0.001,0.116-0.008,0.231-0.008,0.347
			c-0.001,9.337,3.633,18.115,10.234,24.718c6.601,6.603,15.378,10.241,24.715,10.243c0.003,0,0.004,0,0.007,0
			c7.813,0,15.231-2.556,21.314-7.256c6.244,4.787,13.742,7.189,21.244,7.189c8.949,0,17.898-3.405,24.713-10.217
			c6.903-6.901,10.305-15.996,10.218-25.062c0.121,0.001,0.241,0.009,0.363,0.009c0.002,0,0.004,0,0.007,0
			c9.334,0,18.11-3.634,24.712-10.233c6.903-6.901,10.305-15.996,10.217-25.063c0.121,0.001,0.242,0.009,0.363,0.009
			c0.002,0,0.003,0,0.005,0c9.334,0,18.111-3.636,24.713-10.234c6.903-6.901,10.305-15.995,10.217-25.062
			c0.121,0.001,0.242,0.009,0.363,0.009c0.002,0,0.003,0,0.005,0c9.334,0,18.111-3.636,24.713-10.234
			c4.315-4.314,7.353-9.56,8.949-15.281h81.146c5.523,0,9.999-4.478,9.999-9.999v-57.604c0-5.521-4.477-9.999-9.999-9.999
			s-9.999,4.478-9.999,9.999v47.602h-33.997V184.984c0-0.89-0.128-1.749-0.346-2.571l34.343,0.008v53.891
			C491.98,241.834,496.456,246.312,501.979,246.312z M132.854,386.104c-0.001,0-0.002,0-0.003,0
			c-3.996-0.001-7.75-1.558-10.576-4.384c-2.825-2.825-4.38-6.581-4.379-10.576c0.001-3.995,1.557-7.75,4.383-10.575l21.18-21.172
			c2.916-2.915,6.744-4.372,10.574-4.372c3.831,0,7.662,1.459,10.578,4.375c5.83,5.833,5.828,15.322-0.004,21.152l-21.179,21.173
			C140.603,384.549,136.847,386.104,132.854,386.104z M168.14,421.403c-0.001,0-0.001,0-0.002,0
			c-3.996-0.001-7.75-1.558-10.575-4.384c-2.825-2.825-4.38-6.58-4.379-10.576c0.001-3.995,1.558-7.75,4.383-10.575l21.179-21.173
			c2.825-2.824,6.58-4.379,10.574-4.379c0,0,0.002,0,0.003,0c3.996,0.001,7.75,1.558,10.576,4.383v0.001
			c5.831,5.833,5.829,15.321-0.003,21.151l-21.18,21.172C175.89,419.848,172.134,421.403,168.14,421.403z M192.849,452.32
			c-5.831-5.833-5.83-15.323,0.004-21.153l21.18-21.172c2.825-2.824,6.58-4.379,10.574-4.379c0.001,0,0.002,0,0.003,0
			c3.995,0,7.75,1.557,10.575,4.382c5.83,5.833,5.829,15.323-0.003,21.153l-21.18,21.172
			C208.17,458.154,198.681,458.152,192.849,452.32z M252.968,483.945c-0.002,0.002-0.005,0.004-0.007,0.006
			c-0.002,0.002-0.004,0.005-0.007,0.007l-3.666,3.665c-2.825,2.824-6.579,4.379-10.573,4.379c-0.001,0-0.002,0-0.003,0
			c-3.996-0.001-7.75-1.558-10.576-4.384c-2.825-2.825-4.38-6.581-4.379-10.576c0.001-3.995,1.557-7.75,4.383-10.575l21.18-21.172
			c2.825-2.824,6.58-4.38,10.575-4.38c0.001,0,0.001,0,0.001,0c3.997,0.001,7.751,1.558,10.576,4.383v0.001
			c2.825,2.825,4.38,6.58,4.379,10.576c-0.001,3.995-1.558,7.75-4.383,10.575L252.968,483.945z M291.849,487.573
			c-4.619,4.617-11.524,5.562-17.094,2.869l9.851-9.848c3.75-3.749,6.54-8.2,8.254-13.056
			C297.659,473.408,297.322,482.102,291.849,487.573z M397.746,381.712c-2.824,2.823-6.579,4.379-10.574,4.379
			c-0.001,0-0.002,0-0.002,0c-3.996-0.001-7.751-1.558-10.577-4.384l-63.228-63.236c-3.905-3.906-10.235-3.905-14.141-0.001
			c-1.953,1.952-2.929,4.511-2.929,7.07c0,2.559,0.976,5.118,2.929,7.07l63.227,63.235c5.831,5.833,5.829,15.322-0.003,21.152
			c-2.825,2.824-6.58,4.38-10.575,4.38c-0.001,0-0.002,0-0.002,0c-3.996-0.001-7.75-1.558-10.576-4.384l-63.229-63.236
			c-3.905-3.905-10.235-3.904-14.141-0.001c-3.905,3.905-3.906,10.235,0,14.141l63.228,63.235c5.831,5.833,5.83,15.323-0.003,21.153
			c-2.825,2.824-6.579,4.379-10.574,4.379c-0.001,0-0.002,0-0.002,0c-3.996-0.001-7.751-1.558-10.576-4.383l-20.1-20.107
			c-0.477-0.478-0.992-0.895-1.533-1.256c-6.571-6.447-15.242-9.999-24.462-10.001c-0.002,0-0.003,0-0.005,0
			c-0.12,0-0.238,0.007-0.357,0.009c0.091-9.066-3.308-18.161-10.209-25.065v-0.001c-6.601-6.603-15.379-10.24-24.715-10.241
			c-0.002,0-0.004,0-0.006,0c-0.119,0-0.237,0.008-0.356,0.009c0.091-9.066-3.308-18.161-10.209-25.065
			c-6.601-6.603-15.378-10.241-24.715-10.243c-0.003,0-0.004,0-0.007,0c-0.119,0-0.237,0.008-0.356,0.009
			c0.091-9.066-3.308-18.161-10.209-25.065v-0.001c-13.627-13.63-35.803-13.636-49.434-0.008l-21.18,21.172
			c-4.099,4.098-6.956,8.971-8.591,14.15H74.017V248.479c0-5.522-4.477-9.999-9.999-9.999s-9.999,4.478-9.999,9.999v112.096H20.021
			V182.383l187.5,0.014c7.786,0.001,15.107,3.034,20.612,8.539l24.044,24.049l-20.132,20.377
			c-14.022,14.192-13.887,37.151,0.3,51.179c6.966,6.887,16.166,10.46,25.457,10.46c6.384,0,12.812-1.688,18.587-5.146
			l32.939-19.725l88.421,88.429c2.424,2.424,3.905,5.536,4.278,8.894c-0.041,0.368-0.067,0.742-0.067,1.121
			c0,0.507,0.05,1.001,0.123,1.488C401.86,375.709,400.352,379.107,397.746,381.712z M437.985,184.984v175.591h-17.481
			c-1.667-5.283-4.584-10.125-8.612-14.155l-84.875-84.882l12.921-7.737h64.512c5.523,0,9.999-4.478,9.999-9.999
			c0-5.522-4.477-9.999-9.999-9.999h-67.277c-1.81,0-3.585,0.491-5.138,1.421l-65.921,39.476
			c-6.345,3.801-14.451,2.821-19.709-2.379c-6.348-6.276-6.409-16.551-0.134-22.901l49.815-50.421
			c10.432-10.56,24.926-16.615,39.769-16.615c0.004,0,0.011,0,0.015,0l102.462,0.025
			C438.113,183.232,437.985,184.092,437.985,184.984z"/>
	</g>
</g>
<g>
	<g>
		<path d="M509.049,264.407c-1.86-1.86-4.44-2.93-7.069-2.93c-2.63,0-5.21,1.069-7.069,2.93c-1.86,1.86-2.93,4.44-2.93,7.069
			c0,2.64,1.07,5.21,2.93,7.068c1.86,1.87,4.44,2.931,7.069,2.931c2.63,0,5.21-1.061,7.069-2.931c1.86-1.859,2.93-4.43,2.93-7.068
			C511.979,268.847,510.909,266.267,509.049,264.407z"/>
	</g>
</g>
<g>
	<g>
		<path d="M71.087,203.912c-1.86-1.86-4.44-2.93-7.069-2.93c-2.63,0-5.21,1.069-7.069,2.93c-1.86,1.86-2.93,4.44-2.93,7.069
			s1.07,5.21,2.93,7.068c1.86,1.86,4.44,2.931,7.069,2.931c2.63,0,5.21-1.07,7.069-2.931c1.86-1.859,2.93-4.439,2.93-7.068
			S72.947,205.772,71.087,203.912z"/>
	</g>
</g>
<g>
	<g>
		<path d="M327.995,0H184.007c-16.541,0-29.997,13.457-29.997,29.997v73.994c0,16.541,13.457,29.997,29.997,29.997h34.855
			l30.068,30.068c1.953,1.952,4.512,2.929,7.07,2.929s5.119-0.977,7.07-2.929l30.068-30.068h34.855
			c16.541,0,29.997-13.457,29.997-29.997V29.997C357.992,13.457,344.535,0,327.995,0z M337.994,103.991
			c0,5.513-4.486,9.999-9.999,9.999h-38.997c-2.652,0-5.196,1.054-7.07,2.929l-25.927,25.927l-25.927-25.927
			c-1.875-1.875-4.419-2.929-7.07-2.929h-38.997c-5.514,0-9.999-4.486-9.999-9.999V29.997c0-5.514,4.486-9.999,9.999-9.999h143.988
			c5.513,0,9.999,4.486,9.999,9.999V103.991z"/>
	</g>
</g>
<g>
	<g>
		<path d="M216.074,59.845c-1.86-1.87-4.44-2.93-7.069-2.93c-2.64,0-5.21,1.06-7.069,2.93c-1.86,1.86-2.93,4.431-2.93,7.069
			c0,2.63,1.07,5.21,2.93,7.069c1.86,1.86,4.44,2.93,7.069,2.93s5.21-1.07,7.069-2.93c1.86-1.86,2.93-4.44,2.93-7.069
			C219.004,64.274,217.934,61.705,216.074,59.845z"/>
	</g>
</g>
<g>
	<g>
		<path d="M263.07,59.845c-1.86-1.87-4.44-2.93-7.069-2.93s-5.21,1.06-7.069,2.93c-1.86,1.86-2.93,4.431-2.93,7.069
			c0,2.63,1.07,5.21,2.93,7.069c1.86,1.86,4.44,2.93,7.069,2.93s5.21-1.07,7.069-2.93c1.86-1.86,2.93-4.44,2.93-7.069
			C266,64.274,264.93,61.705,263.07,59.845z"/>
	</g>
</g>
<g>
	<g>
		<path d="M310.066,59.845c-1.86-1.87-4.44-2.93-7.069-2.93c-2.63,0-5.21,1.06-7.069,2.93c-1.86,1.86-2.93,4.431-2.93,7.069
			c0,2.63,1.07,5.21,2.93,7.069s4.44,2.93,7.069,2.93c2.63,0,5.21-1.07,7.069-2.93c1.86-1.86,2.93-4.44,2.93-7.069
			C312.996,64.274,311.926,61.705,310.066,59.845z"/>
	</g>
</g>
<g>
</g>
<g>
</g>
<g>
</g>
<g>
</g>
<g>
</g>
<g>
</g>
<g>
</g>
<g>
</g>
<g>
</g>
<g>
</g>
<g>
</g>
<g>
</g>
<g>
</g>
<g>
</g>
<g>
</g>
</svg>
