<?xml version="1.0" encoding="iso-8859-1"?>
<!-- Generator: Adobe Illustrator 19.0.0, SVG Export Plug-In . SVG Version: 6.00 Build 0)  -->
<svg version="1.1" id="Capa_1" xmlns="http://www.w3.org/2000/svg" xmlns:xlink="http://www.w3.org/1999/xlink" x="0px" y="0px"
	 viewBox="0 0 512.001 512.001" style="enable-background:new 0 0 512.001 512.001;" xml:space="preserve">
<g>
	<g>
		<path d="M263.07,356.915c-1.859-1.86-4.439-2.93-7.069-2.93s-5.21,1.07-7.07,2.93c-1.86,1.86-2.93,4.44-2.93,7.07
			s1.069,5.2,2.93,7.07c1.86,1.859,4.44,2.93,7.07,2.93s5.21-1.07,7.069-2.93c1.86-1.86,2.931-4.44,2.931-7.07
			C266.001,361.345,264.931,358.775,263.07,356.915z"/>
	</g>
</g>
<g>
	<g>
		<path d="M457.204,53.998h-59.197V20.001C398.007,8.972,389.034,0,378.006,0h-244.01c-11.028,0-20.001,8.972-20.001,20.001v33.997
			H54.797c-15.332,0-27.806,12.451-27.806,27.755v296.488c0,15.305,12.474,27.755,27.806,27.755h152.181v46.196
			c-25.228,2.555-44.982,23.918-44.982,49.808c0,5.522,4.478,10,10,10h168.007c5.522,0,10-4.478,10-10
			c0-25.889-19.754-47.252-44.981-49.808v-46.196h152.181c15.332,0,27.806-12.451,27.806-27.755V81.753
			C485.01,66.449,472.536,53.998,457.204,53.998z M46.991,81.753c0.001-4.275,3.502-7.754,7.805-7.754h59.197v67.007
			c0,5.523,4.478,10,10,10c5.522,0,10-4.477,10-10V20.001h244.01v301.991h-244.01V213.373c0-5.523-4.478-10-10-10
			c-5.522,0-10,4.477-10,10v108.619H46.991V81.753z M328.293,491.999H183.707c4.13-11.677,15.28-20.064,28.354-20.064h4.918h78.044
			h4.916C313.013,471.936,324.163,480.324,328.293,491.999z M226.979,451.936v-45.94h58.043v45.94H226.979z M465.009,378.241
			c0.001,4.276-3.5,7.754-7.804,7.754H54.797c-4.304,0-7.805-3.479-7.805-7.754v-36.247h77.003h264.011h77.003V378.241z
			 M465.01,321.992h-67.003V73.999h59.197c4.304,0,7.805,3.479,7.805,7.754V321.992z"/>
	</g>
</g>
<g>
	<g>
		<path d="M256.001,40.002c-40.806,0-74.003,33.197-74.003,74.003c0,21.05,8.848,40.061,23.005,53.548
			c0.361,0.401,0.75,0.781,1.178,1.123c13.159,12.002,30.648,19.332,49.82,19.332c19.172,0,36.661-7.33,49.82-19.332
			c0.428-0.342,0.816-0.722,1.178-1.123c14.156-13.488,23.005-32.498,23.005-53.548C330.004,73.199,296.807,40.002,256.001,40.002z
			 M256.001,168.007c-11.536,0-22.231-3.648-31.015-9.835c6.672-10.497,18.204-16.995,31.015-16.995s24.343,6.498,31.015,16.995
			C278.232,164.359,267.537,168.007,256.001,168.007z M245.708,110.883v-5.073c0-5.675,4.617-10.292,10.293-10.292
			c5.676,0,10.293,4.617,10.293,10.292v5.073c0,5.676-4.617,10.293-10.293,10.293C250.325,121.176,245.708,116.559,245.708,110.883z
			 M301.195,143.511c-5.257-6.929-11.992-12.495-19.673-16.338c3.016-4.708,4.773-10.296,4.773-16.291v-5.073
			c0-16.704-13.591-30.293-30.294-30.293s-30.294,13.59-30.294,30.293v5.073c0,5.994,1.757,11.582,4.773,16.291
			c-7.681,3.843-14.417,9.408-19.673,16.338c-5.561-8.488-8.808-18.623-8.808-29.506c0-29.777,24.225-54.002,54.002-54.002
			c29.776,0,54.002,24.225,54.002,54.002C310.003,124.888,306.756,135.023,301.195,143.511z"/>
	</g>
</g>
<g>
	<g>
		<path d="M131.065,167.937c-1.859-1.86-4.439-2.93-7.069-2.93c-2.63,0-5.21,1.07-7.07,2.93c-1.86,1.86-2.93,4.44-2.93,7.07
			c0,2.63,1.069,5.21,2.93,7.07c1.861,1.86,4.44,2.93,7.07,2.93c2.63,0,5.21-1.07,7.069-2.93c1.86-1.86,2.931-4.44,2.931-7.07
			C133.996,172.377,132.926,169.797,131.065,167.937z"/>
	</g>
</g>
<g>
	<g>
		<path d="M318.004,212.009H201.999c-5.522,0-10,4.477-10,10c0,5.523,4.478,10,10,10h116.005c5.522,0,10-4.477,10-10
			C328.004,216.486,323.526,212.009,318.004,212.009z"/>
	</g>
</g>
<g>
	<g>
		<path d="M325.073,258.941c-1.859-1.861-4.439-2.93-7.069-2.93c-2.63,0-5.21,1.069-7.07,2.93s-2.93,4.44-2.93,7.07
			c0,2.63,1.069,5.21,2.93,7.069c1.86,1.86,4.44,2.931,7.07,2.931c2.63,0,5.21-1.07,7.069-2.931c1.86-1.859,2.931-4.439,2.931-7.069
			C328.004,263.381,326.934,260.801,325.073,258.941z"/>
	</g>
</g>
<g>
	<g>
		<path d="M279.673,256.01h-77.674c-5.522,0-10,4.478-10,10s4.478,10,10,10h77.674c5.522,0,10-4.478,10-10
			S285.195,256.01,279.673,256.01z"/>
	</g>
</g>
<g>
</g>
<g>
</g>
<g>
</g>
<g>
</g>
<g>
</g>
<g>
</g>
<g>
</g>
<g>
</g>
<g>
</g>
<g>
</g>
<g>
</g>
<g>
</g>
<g>
</g>
<g>
</g>
<g>
</g>
</svg>
