<?xml version="1.0" encoding="iso-8859-1"?>
<!-- Generator: Adobe Illustrator 19.0.0, SVG Export Plug-In . SVG Version: 6.00 Build 0)  -->
<svg version="1.1" id="Capa_1" xmlns="http://www.w3.org/2000/svg" xmlns:xlink="http://www.w3.org/1999/xlink" x="0px" y="0px"
	 viewBox="0 0 512 512" style="enable-background:new 0 0 512 512;" xml:space="preserve">
<g>
	<g>
		<path d="M256,492h-0.313c-5.522,0-10,4.478-10,10c0,5.522,4.478,10,10,10H256c5.522,0,10-4.478,10-10
			C266,496.478,261.522,492,256,492z"/>
	</g>
</g>
<g>
	<g>
		<path d="M438.557,236.455h52.627C491.716,242.902,492,249.418,492,256c0,5.522,4.478,10,10,10c5.522,0,10-4.478,10-10
			c0-68.38-26.629-132.667-74.98-181.019C388.667,26.629,324.38,0,256,0S123.333,26.629,74.98,74.981C26.629,123.333,0,187.62,0,256
			c0,49.177,14.194,97.134,40.457,138.128c0.183,0.324,0.385,0.635,0.601,0.935c6.036,9.331,12.695,18.3,19.961,26.832
			c38.903,45.681,92.723,76.377,151.543,86.434c0.571,0.097,1.138,0.145,1.697,0.145c4.783-0.001,9.012-3.443,9.846-8.316
			c0.931-5.444-2.729-10.612-8.172-11.543c-28.154-4.813-54.39-14.454-77.934-27.984v-47.012c0-18.958-15.424-34.381-34.382-34.381
			H54.48C32.505,343.218,20,300.941,20,256c0-22.035,3.045-43.371,8.72-63.619h84.487c21.151,0,38.359-17.208,38.359-38.359v-1.164
			c0-10.124,8.236-18.359,18.359-18.359c21.151,0,38.359-17.208,38.359-38.359v-6.204c0-21.151-17.208-38.359-38.359-38.359h-31.749
			C172.871,31.502,213.116,20,256,20c44.56,0,86.273,12.418,121.867,33.969h-51.542c-37.188,0-67.444,30.256-67.444,67.445
			c0,6.251-5.086,11.336-11.337,11.336c-26.329,0-47.749,21.42-47.749,47.749c0,30.854,25.102,55.956,55.956,55.956h34.021
			c-43.891,25.666-73.443,73.299-73.443,127.709c0,29.275,8.554,56.589,23.293,79.576c-2.811-0.068-5.633,1.034-7.666,3.285
			c-6.305,6.976-14.032,4.729-16.25,3.878c-2.219-0.854-9.457-4.371-9.457-13.774v-63.148c0-24.97-20.314-45.283-45.284-45.283
			c-19.848,0-35.994-16.147-35.994-35.995v-16.104c0-22.135,18.009-40.144,40.144-40.144H182c5.522,0,10-4.477,10-10
			c0-5.523-4.478-10-10-10h-16.887c-33.163,0-60.144,26.98-60.144,60.144v16.104c0,30.876,25.119,55.995,55.994,55.995
			c13.941,0,25.284,11.342,25.284,25.283v63.148c0,14.498,8.742,27.231,22.272,32.439c4.123,1.587,8.383,2.357,12.591,2.357
			c9.601-0.001,18.924-4.013,25.682-11.49c1.017-1.125,1.719-2.42,2.134-3.78C276.046,490.376,317.624,512,364.164,512
			c29.817,0,58.313-8.745,82.801-25.353l50.704,24.366c1.381,0.663,2.86,0.986,4.328,0.986c2.525,0,5.017-0.955,6.92-2.778
			c3.01-2.883,3.916-7.33,2.274-11.161l-22.937-53.521C503.809,420.594,512,392.927,512,364.164
			C512,309.754,482.448,262.122,438.557,236.455z M103.618,399.237c7.93,0,14.382,6.451,14.382,14.381v34.116
			c-18.986-13.645-35.772-30.01-49.849-48.497H103.618z M169.926,71.575L169.926,71.575c10.123,0.001,18.359,8.237,18.359,18.36
			v6.204c0,10.124-8.236,18.359-18.359,18.359c-21.151,0-38.359,17.208-38.359,38.359v1.164c0,10.124-8.236,18.359-18.359,18.359
			h-77.89c15.16-39.875,40.826-74.609,73.607-100.805H169.926z M255.75,216.455c-19.826,0-35.956-16.129-35.956-35.956
			c0-15.301,12.448-27.749,27.749-27.749c17.279,0,31.337-14.058,31.337-31.336c0-26.161,21.283-47.445,47.444-47.445h79.72
			c27.719,22.889,50.141,51.974,65.126,85.114h-61.793c-5.522,0-10,4.477-10,10s4.478,10,10,10h69.741
			c4.165,12.048,7.375,24.536,9.55,37.372H255.75z M467.722,447.4l14.589,34.043l-31.987-15.372
			c-3.339-1.604-7.294-1.231-10.273,0.971C417.953,483.37,391.712,492,364.164,492c-70.489,0-127.836-57.347-127.836-127.836
			c0-68.637,54.375-124.804,122.309-127.709h11.054C437.625,239.36,492,295.527,492,364.164c0,26.51-8.044,51.938-23.262,73.537
			C466.739,440.539,466.354,444.21,467.722,447.4z"/>
	</g>
</g>
<g>
	<g>
		<path d="M373.88,162.01c-1.861-1.86-4.44-2.93-7.07-2.93c-2.64,0-5.21,1.07-7.069,2.93c-1.87,1.86-2.931,4.44-2.931,7.07
			c0,2.64,1.061,5.21,2.931,7.07c1.859,1.87,4.43,2.93,7.069,2.93c2.629,0,5.21-1.06,7.07-2.93c1.86-1.86,2.93-4.43,2.93-7.07
			C376.81,166.45,375.741,163.87,373.88,162.01z"/>
	</g>
</g>
<g>
	<g>
		<path d="M317.833,320.164h-32.858c-5.522,0-10,4.478-10,10c0,5.522,4.478,10,10,10h6.43v38.832c0,3.545-2.885,6.43-6.43,6.43
			s-6.43-2.885-6.43-6.43c0-5.522-4.478-10-10-10c-5.522,0-10,4.478-10,10c0,14.573,11.856,26.43,26.43,26.43
			c14.574,0,26.43-11.856,26.43-26.43v-38.832h6.429c5.521,0,9.999-4.477,9.999-10C327.833,324.642,323.355,320.164,317.833,320.164
			z"/>
	</g>
</g>
<g>
	<g>
		<path d="M365.696,320.164c-23.507,0-42.631,19.124-42.631,42.631s19.124,42.631,42.631,42.631s42.631-19.124,42.631-42.631
			S389.203,320.164,365.696,320.164z M365.696,385.426c-12.479,0-22.631-10.152-22.631-22.631s10.152-22.631,22.631-22.631
			s22.631,10.152,22.631,22.631S378.175,385.426,365.696,385.426z"/>
	</g>
</g>
<g>
	<g>
		<path d="M469.783,347.164c0-14.888-12.112-27-27-27h-15.858c-5.522,0-10,4.478-10,10v34v34c0,5.522,4.478,10,10,10h15.858
			c14.888,0,27-12.112,27-27c0-6.438-2.268-12.355-6.044-17C467.514,359.519,469.783,353.602,469.783,347.164z M442.783,388.164
			h-5.858v-14h5.858c3.859,0,7,3.141,7,7S446.643,388.164,442.783,388.164z M442.783,354.164h-5.858v-14h5.858c3.859,0,7,3.141,7,7
			S446.642,354.164,442.783,354.164z"/>
	</g>
</g>
<g>
</g>
<g>
</g>
<g>
</g>
<g>
</g>
<g>
</g>
<g>
</g>
<g>
</g>
<g>
</g>
<g>
</g>
<g>
</g>
<g>
</g>
<g>
</g>
<g>
</g>
<g>
</g>
<g>
</g>
</svg>
