<?xml version="1.0" encoding="iso-8859-1"?>
<!-- Generator: Adobe Illustrator 19.0.0, SVG Export Plug-In . SVG Version: 6.00 Build 0)  -->
<svg version="1.1" id="Capa_1" xmlns="http://www.w3.org/2000/svg" xmlns:xlink="http://www.w3.org/1999/xlink" x="0px" y="0px"
	 viewBox="0 0 512.001 512.001" style="enable-background:new 0 0 512.001 512.001;" xml:space="preserve">
<g>
	<g>
		<path d="M502,438h-16V217.667c0-5.523-4.478-10-10-10c-5.522,0-10,4.477-10,10V438H46V165.938c0-18.748,15.252-34,34-34h162.333
			c5.522,0,10-4.477,10-10s-4.478-10-10-10H80c-29.775,0-54,24.224-54,54V438H10c-5.522,0-10,4.478-10,10v13
			c0,28.121,22.879,51,51,51h410c28.121,0,51-22.879,51-51v-13C512,442.478,507.522,438,502,438z M492,461c0,17.094-13.906,31-31,31
			H51c-17.094,0-31-13.906-31-31v-3h16h440h16V461z"/>
	</g>
</g>
<g>
	<g>
		<path d="M424.685,0h-57.802c-48.146,0-87.314,39.169-87.314,87.315v6.366c0,26.054,10.771,50.732,29.715,68.435V187.5
			c0,3.423,1.75,6.607,4.64,8.442c1.629,1.034,3.491,1.558,5.361,1.558c1.448,0,2.901-0.314,4.253-0.95l26.019-12.23
			c7.732,2.02,15.685,3.042,23.693,3.042h51.436c48.146,0,87.315-39.169,87.315-87.315V87.315C512,39.169,472.83,0,424.685,0z
			 M492,100.047c0,37.118-30.197,67.315-67.315,67.315h-51.436c-7.339,0-14.617-1.091-21.632-3.243
			c-2.375-0.728-4.938-0.547-7.187,0.511l-15.147,7.12v-14.121c0-2.944-1.298-5.739-3.547-7.639
			c-16.63-14.048-26.168-34.572-26.168-56.309v-6.366c0-37.118,30.197-67.315,67.314-67.315h57.802
			C461.803,20,492,50.198,492,87.315V100.047z"/>
	</g>
</g>
<g>
	<g>
		<path d="M395.784,88.75c-5.522,0-10,4.477-10,10v23.188c0,5.523,4.478,10,10,10c5.522,0,10-4.477,10-10V98.75
			C405.784,93.227,401.307,88.75,395.784,88.75z"/>
	</g>
</g>
<g>
	<g>
		<path d="M402.849,53.53c-1.859-1.86-4.43-2.93-7.069-2.93c-2.631,0-5.211,1.07-7.07,2.93c-1.86,1.86-2.93,4.44-2.93,7.07
			c0,2.64,1.069,5.21,2.93,7.08c1.859,1.86,4.439,2.92,7.07,2.92c2.64,0,5.21-1.06,7.069-2.92c1.87-1.87,2.931-4.44,2.931-7.08
			C405.78,57.97,404.719,55.391,402.849,53.53z"/>
	</g>
</g>
<g>
	<g>
		<path d="M137.043,196H98.385c-5.522,0-10,4.477-10,10s4.478,10,10,10h9.329v47.449c0,5.145-4.185,9.329-9.329,9.329
			s-9.328-4.185-9.328-9.329c0-5.522-4.478-10-10-10c-5.522,0-10,4.478-10,10c0,16.172,13.157,29.329,29.329,29.329
			s29.328-13.157,29.328-29.329V216h9.329c5.522,0,10-4.477,10-10S142.565,196,137.043,196z"/>
	</g>
</g>
<g>
	<g>
		<path d="M193.353,196c-26.682,0-48.389,21.708-48.389,48.389c0,26.682,21.707,48.389,48.389,48.389
			c26.683,0,48.39-21.707,48.39-48.389S220.036,196,193.353,196z M193.353,272.779c-15.653,0-28.389-12.735-28.389-28.389
			c0-15.654,12.735-28.389,28.389-28.389s28.39,12.735,28.39,28.389C221.743,260.044,209.008,272.779,193.353,272.779z"/>
	</g>
</g>
<g>
	<g>
		<path d="M314.043,226c0-16.542-13.458-30-30-30h-18.658c-5.522,0-10,4.477-10,10v40v40c0,5.522,4.477,10,10,10h18.658
			c16.542,0,30-13.458,30-30c0-7.678-2.902-14.688-7.664-20C311.14,240.688,314.043,233.678,314.043,226z M284.043,276h-8.658v-20
			h8.658c5.514,0,10,4.486,10,10C294.043,271.514,289.557,276,284.043,276z M284.043,236h-8.658v-20h8.658c5.514,0,10,4.486,10,10
			C294.043,231.514,289.557,236,284.043,236z"/>
	</g>
</g>
<g>
	<g>
		<path d="M304.943,325.918H117.714c-5.522,0-10,4.478-10,10c0,5.522,4.478,10,10,10h187.229c5.522,0,10-4.478,10-10
			C314.943,330.396,310.466,325.918,304.943,325.918z"/>
	</g>
</g>
<g>
	<g>
		<path d="M86.129,328.85c-1.86-1.87-4.44-2.93-7.07-2.93c-2.639,0-5.209,1.059-7.08,2.93c-1.859,1.86-2.92,4.431-2.92,7.07
			c0,2.63,1.061,5.21,2.92,7.07c1.87,1.859,4.44,2.93,7.08,2.93c2.63,0,5.21-1.07,7.07-2.93c1.86-1.87,2.93-4.44,2.93-7.07
			S87.99,330.711,86.129,328.85z"/>
	</g>
</g>
<g>
	<g>
		<path d="M432.944,325.918h-77.055c-5.522,0-10,4.478-10,10c0,5.522,4.477,10,10,10h77.055c5.522,0,10-4.478,10-10
			C442.944,330.396,438.466,325.918,432.944,325.918z"/>
	</g>
</g>
<g>
	<g>
		<path d="M304.944,374H79.057c-5.522,0-10,4.478-10,10c0,5.522,4.477,10,10,10h225.887c5.522,0,10-4.478,10-10
			C314.944,378.478,310.466,374,304.944,374z"/>
	</g>
</g>
<g>
	<g>
		<path d="M432.944,374h-77.055c-5.522,0-10,4.478-10,10c0,5.522,4.477,10,10,10h77.055c5.522,0,10-4.478,10-10
			C442.944,378.478,438.466,374,432.944,374z"/>
	</g>
</g>
<g>
</g>
<g>
</g>
<g>
</g>
<g>
</g>
<g>
</g>
<g>
</g>
<g>
</g>
<g>
</g>
<g>
</g>
<g>
</g>
<g>
</g>
<g>
</g>
<g>
</g>
<g>
</g>
<g>
</g>
</svg>
