<?xml version="1.0" encoding="iso-8859-1"?>
<!-- Generator: Adobe Illustrator 19.0.0, SVG Export Plug-In . SVG Version: 6.00 Build 0)  -->
<svg version="1.1" id="Capa_1" xmlns="http://www.w3.org/2000/svg" xmlns:xlink="http://www.w3.org/1999/xlink" x="0px" y="0px"
	 viewBox="0 0 512 512" style="enable-background:new 0 0 512 512;" xml:space="preserve">
<g>
	<g>
		<path d="M256,0c-62.858,0-113.997,51.139-113.997,113.997v127.997c0,62.858,51.139,113.997,113.997,113.997
			s113.997-51.14,113.997-113.997V113.997C369.997,51.139,318.858,0,256,0z M162.002,148.01h26.332c5.523,0,10-4.477,10-10
			c0-5.523-4.477-10-10-10h-26.332v-14.014c0-2.006,0.071-3.996,0.195-5.972h26.137c5.523,0,10-4.477,10-10s-4.477-10-10-10h-22.681
			C176.951,48.788,213.175,19.999,256,19.999s79.049,28.788,90.346,68.026h-22.681c-5.523,0-10,4.477-10,10s4.477,10,10,10h26.137
			c0.124,1.975,0.195,3.965,0.195,5.972v14.014h-26.332c-5.523,0-10,4.477-10,10c0,5.523,4.477,10,10,10h26.332v19.985H162.002
			V148.01z M349.997,216.008H251.5c-5.523,0-10,4.477-10,10c0,5.523,4.477,10,10,10h98.497v5.986
			c0,51.831-42.167,93.997-93.997,93.997c-51.831,0-93.997-42.168-93.997-93.997v-53.999h187.995V216.008z"/>
	</g>
</g>
<g>
	<g>
		<path d="M219.071,218.938c-1.86-1.86-4.44-2.93-7.07-2.93s-5.21,1.07-7.07,2.93c-1.86,1.86-2.93,4.44-2.93,7.07
			c0,2.63,1.07,5.21,2.93,7.07c1.86,1.86,4.44,2.93,7.07,2.93s5.21-1.07,7.07-2.93c1.86-1.86,2.93-4.44,2.93-7.07
			C222.001,223.378,220.931,220.798,219.071,218.938z"/>
	</g>
</g>
<g>
	<g>
		<path d="M399.996,206.675c-5.523,0-10,4.477-10,10v25.318c0,73.885-60.11,133.996-133.996,133.996s-133.996-60.11-133.996-133.996
			v-63.998c0-5.523-4.477-10-10-10c-5.523,0-10,4.477-10,10v63.998c0,81.553,63.726,148.491,143.996,153.662v56.013h-60.61
			c-16.634,0-30.166,13.532-30.166,30.165V502c0,5.522,4.477,10,10,10h181.553c5.523,0,10-4.478,10-10v-20.166
			c0-16.634-13.533-30.165-30.166-30.165H266v-56.013c80.27-5.171,143.996-72.109,143.996-153.662v-25.318
			C409.996,211.152,405.519,206.675,399.996,206.675z M326.611,471.668c5.605,0,10.166,4.561,10.166,10.166v10.167H175.223v-10.167
			c0-5.605,4.561-10.166,10.167-10.166H326.611z"/>
	</g>
</g>
<g>
	<g>
		<path d="M407.066,170.929c-1.86-1.87-4.44-2.93-7.07-2.93c-2.63,0-5.21,1.06-7.07,2.93c-1.86,1.86-2.93,4.43-2.93,7.07
			c0,2.63,1.07,5.2,2.93,7.07c1.86,1.86,4.44,2.93,7.07,2.93c2.63,0,5.21-1.07,7.07-2.93c1.86-1.86,2.93-4.44,2.93-7.07
			C409.996,175.359,408.926,172.779,407.066,170.929z"/>
	</g>
</g>
<g>
</g>
<g>
</g>
<g>
</g>
<g>
</g>
<g>
</g>
<g>
</g>
<g>
</g>
<g>
</g>
<g>
</g>
<g>
</g>
<g>
</g>
<g>
</g>
<g>
</g>
<g>
</g>
<g>
</g>
</svg>
