<?xml version="1.0" encoding="iso-8859-1"?>
<!-- Generator: Adobe Illustrator 19.0.0, SVG Export Plug-In . SVG Version: 6.00 Build 0)  -->
<svg version="1.1" id="Capa_1" xmlns="http://www.w3.org/2000/svg" xmlns:xlink="http://www.w3.org/1999/xlink" x="0px" y="0px"
	 viewBox="0 0 512 512" style="enable-background:new 0 0 512 512;" xml:space="preserve">
<g>
	<g>
		<path d="M422.877,89.123C378.303,44.548,319.038,20,256,20S133.697,44.548,89.123,89.123C44.548,133.697,20,192.962,20,256
			s24.548,122.303,69.123,166.877C133.697,467.452,192.962,492,256,492s122.303-24.548,166.877-69.123
			C467.452,378.303,492,319.038,492,256S467.452,133.697,422.877,89.123z M256,472c-119.103,0-216-96.897-216-216S136.897,40,256,40
			s216,96.897,216,216S375.103,472,256,472z"/>
	</g>
</g>
<g>
	<g>
		<path d="M448.191,217.365c-12.346-61.741-54.076-114.113-111.628-140.093c-5.035-2.273-10.957-0.034-13.229,5
			c-2.272,5.034-0.034,10.957,5,13.229c51.686,23.332,89.161,70.355,100.246,125.786c0.951,4.754,5.126,8.041,9.795,8.041
			c0.649,0,1.31-0.064,1.971-0.196C445.762,228.049,449.274,222.781,448.191,217.365z"/>
	</g>
</g>
<g>
	<g>
		<path d="M302.395,65.525l-0.359-0.087c-5.371-1.292-10.77,2.016-12.061,7.386c-1.29,5.371,2.016,10.77,7.386,12.061l0.25,0.06
			c0.803,0.198,1.608,0.293,2.4,0.293c4.493,0,8.578-3.051,9.701-7.611C311.034,72.264,307.758,66.846,302.395,65.525z"/>
	</g>
</g>
<g>
	<g>
		<path d="M224.67,72.354c-1.214-5.389-6.57-8.77-11.954-7.556c-35.595,8.025-68.217,25.884-94.339,51.646
			c-26.099,25.74-44.404,58.077-52.937,93.517c-1.293,5.369,2.011,10.77,7.381,12.063c0.786,0.189,1.574,0.28,2.349,0.28
			c4.515,0,8.611-3.079,9.714-7.661c15.547-64.57,67.45-115.729,132.23-130.334C222.502,83.094,225.885,77.741,224.67,72.354z"/>
	</g>
</g>
<g>
	<g>
		<path d="M180.308,414.94c-49.87-23.795-86.09-70.235-96.887-124.227c-1.083-5.415-6.352-8.93-11.767-7.845
			c-5.416,1.083-8.928,6.351-7.845,11.767c12.026,60.138,52.357,111.86,107.886,138.355c1.389,0.664,2.855,0.977,4.299,0.977
			c3.734,0,7.317-2.101,9.033-5.695C187.406,423.287,185.293,417.318,180.308,414.94z"/>
	</g>
</g>
<g>
	<g>
		<path d="M214.588,427.103c-5.364-1.326-10.782,1.952-12.103,7.314c-1.322,5.363,1.953,10.782,7.315,12.104l0.138,0.034
			c0.793,0.192,1.585,0.285,2.365,0.285c4.499,0,8.564-3.074,9.677-7.647C223.285,433.826,219.954,428.408,214.588,427.103z"/>
	</g>
</g>
<g>
	<g>
		<path d="M439.178,289.977c-5.368-1.295-10.77,2.011-12.063,7.381c-15.547,64.569-67.45,115.729-132.23,130.334
			c-5.388,1.215-8.771,6.566-7.556,11.954c1.048,4.648,5.174,7.803,9.746,7.803c0.729,0,1.468-0.08,2.208-0.247
			c35.595-8.025,68.217-25.883,94.339-51.646c26.099-25.739,44.404-58.077,52.937-93.516
			C447.852,296.67,444.548,291.269,439.178,289.977z"/>
	</g>
</g>
<g>
	<g>
		<path d="M256,0c-5.523,0-10,4.477-10,10v75c0,5.523,4.477,10,10,10s10-4.477,10-10V10C266,4.477,261.523,0,256,0z"/>
	</g>
</g>
<g>
	<g>
		<path d="M256,417c-5.523,0-10,4.478-10,10v75c0,5.522,4.477,10,10,10s10-4.478,10-10v-75C266,421.478,261.523,417,256,417z"/>
	</g>
</g>
<g>
	<g>
		<path d="M502,246h-75c-5.523,0-10,4.477-10,10c0,5.522,4.477,10,10,10h75c5.523,0,10-4.478,10-10C512,250.477,507.523,246,502,246
			z"/>
	</g>
</g>
<g>
	<g>
		<path d="M85,246H10c-5.523,0-10,4.477-10,10c0,5.522,4.477,10,10,10h75c5.523,0,10-4.478,10-10C95,250.477,90.523,246,85,246z"/>
	</g>
</g>
<g>
	<g>
		<path d="M300.281,245.583c-0.102-0.029-0.206-0.05-0.309-0.075c9.359-10.451,15.064-24.239,15.064-39.339V124.5
			c0-5.523-4.477-10-10-10h-60.742c-26.099,0-47.332,21.233-47.332,47.332v44.337c0,15.1,5.705,28.888,15.064,39.339
			c-0.103,0.025-0.207,0.047-0.309,0.075c-43.211,3.983-77.166,40.42-77.166,84.653V365.5c0,5.522,4.477,10,10,10h222.896
			c5.523,0,10-4.478,10-10v-35.264C377.448,286.003,343.493,249.567,300.281,245.583z M256.001,245.207
			c-21.525,0-39.037-17.512-39.037-39.037v-13.217h59.764c6.628,0,12.866-1.693,18.31-4.667v17.884
			C295.038,227.695,277.526,245.207,256.001,245.207z M273.432,265.206L256,282.638l-17.432-17.432H273.432z M216.962,161.832h0.001
			c0-15.071,12.261-27.332,27.332-27.332h50.742v20.144c0,10.096-8.214,18.31-18.31,18.31h-59.765V161.832z M357.448,355.5H154.552
			v-25.264c0-32.906,24.573-60.164,56.33-64.431l38.047,38.047c1.953,1.952,4.512,2.929,7.071,2.929s5.119-0.977,7.071-2.929
			l38.047-38.047c31.757,4.267,56.33,31.525,56.33,64.431V355.5z"/>
	</g>
</g>
<g>
</g>
<g>
</g>
<g>
</g>
<g>
</g>
<g>
</g>
<g>
</g>
<g>
</g>
<g>
</g>
<g>
</g>
<g>
</g>
<g>
</g>
<g>
</g>
<g>
</g>
<g>
</g>
<g>
</g>
</svg>
