<?xml version="1.0" encoding="iso-8859-1"?>
<!-- Generator: Adobe Illustrator 19.0.0, SVG Export Plug-In . SVG Version: 6.00 Build 0)  -->
<svg version="1.1" id="Capa_1" xmlns="http://www.w3.org/2000/svg" xmlns:xlink="http://www.w3.org/1999/xlink" x="0px" y="0px"
	 viewBox="0 0 512 512" style="enable-background:new 0 0 512 512;" xml:space="preserve">
<g>
	<g>
		<path d="M306.74,446.93c-1.86-1.86-4.44-2.93-7.07-2.93c-2.63,0-5.21,1.07-7.07,2.93c-1.859,1.86-2.93,4.44-2.93,7.07
			s1.07,5.21,2.93,7.07c1.86,1.86,4.44,2.93,7.07,2.93s5.21-1.07,7.07-2.93c1.859-1.86,2.93-4.44,2.93-7.07
			S308.6,448.79,306.74,446.93z"/>
	</g>
</g>
<g>
	<g>
		<path d="M511.976,186.475c-0.106-2.051-0.832-4.087-2.23-5.8c-0.519-0.635-1.104-1.18-1.731-1.653
			c-0.052-0.041-0.096-0.083-0.153-0.125L458,142.82V30c0-16.542-13.458-30-30-30H84C67.458,0,54,13.458,54,30v112.819
			l-49.862,36.08c-2.701,1.955-4.126,5.008-4.128,8.105C0.006,187.002,0.003,187.001,0,187v275c0,27.57,22.43,50,50,50h412
			c27.57,0,50-22.43,50-50V187.053c0-0.004,0-0.009,0-0.013V187C512,186.805,511.991,186.633,511.976,186.475z M458,167.506
			l27.603,19.973L458,210.015V167.506z M74,30c0-5.514,4.486-10,10-10h344c5.514,0,10,4.486,10,10v196.344l-122.067,99.664
			l-30.622-22.157c-17.532-12.686-41.091-12.685-58.621,0l-30.623,22.158L74,226.345V30z M54,167.506v42.509l-27.603-22.537
			L54,167.506z M20,208.074L179.302,338.14L20,453.407V208.074z M462,492H50c-11.611,0-21.695-6.635-26.68-16.309l215.094-155.637
			c10.518-7.611,24.654-7.611,35.172,0L444.882,444H345c-5.522,0-10,4.477-10,10s4.478,10,10,10h127.522l16.158,11.691
			C483.695,485.365,473.611,492,462,492z M492,453.407L332.698,338.139L492,208.074V453.407z"/>
	</g>
</g>
<g>
	<g>
		<path d="M200.254,54H157.73c-5.522,0-10,4.477-10,10s4.478,10,10,10h11.262v53.195c0,6.21-5.052,11.262-11.262,11.262
			c-6.21,0-11.262-5.052-11.262-11.262c0-5.523-4.478-10-10-10c-5.522,0-10,4.477-10,10c0.001,17.238,14.025,31.262,31.262,31.262
			s31.262-14.024,31.262-31.262V74h11.262c5.522,0,10-4.477,10-10S205.776,54,200.254,54z"/>
	</g>
</g>
<g>
	<g>
		<path d="M258.541,54c-28.799,0-52.229,23.429-52.229,52.228c0,28.799,23.43,52.229,52.229,52.229s52.229-23.43,52.229-52.229
			S287.34,54,258.541,54z M258.541,138.457c-17.771,0-32.229-14.458-32.229-32.229C226.313,88.458,240.771,74,258.541,74
			c17.771,0,32.229,14.458,32.229,32.228C290.77,123.999,276.312,138.457,258.541,138.457z"/>
	</g>
</g>
<g>
	<g>
		<path d="M385.531,86c0-17.645-14.355-32-32-32h-20.523c-5.522,0-10,4.477-10,10v44v44c0,5.523,4.477,10,10,10h20.523
			c17.645,0,32-14.355,32-32c0-8.517-3.351-16.26-8.795-22C382.18,102.26,385.531,94.517,385.531,86z M353.531,142h-10.523v-24
			h10.523c6.617,0,12,5.383,12,12S360.148,142,353.531,142z M353.531,98h-10.523V74h10.523c6.617,0,12,5.383,12,12
			S360.148,98,353.531,98z"/>
	</g>
</g>
<g>
	<g>
		<path d="M348.357,246h-142c-5.522,0-10,4.477-10,10s4.478,10,10,10h142c5.522,0,10-4.477,10-10S353.88,246,348.357,246z"/>
	</g>
</g>
<g>
	<g>
		<path d="M170.71,192.93c-1.86-1.86-4.431-2.93-7.07-2.93c-2.63,0-5.21,1.07-7.07,2.93c-1.859,1.86-2.93,4.44-2.93,7.07
			c0,2.64,1.07,5.21,2.93,7.07s4.44,2.93,7.07,2.93s5.21-1.07,7.07-2.93c1.87-1.86,2.93-4.44,2.93-7.07S172.58,194.79,170.71,192.93
			z"/>
	</g>
</g>
<g>
	<g>
		<path d="M170.71,248.93c-1.86-1.86-4.44-2.93-7.07-2.93s-5.21,1.07-7.07,2.93c-1.859,1.86-2.93,4.44-2.93,7.07
			s1.07,5.21,2.93,7.07c1.86,1.86,4.44,2.93,7.07,2.93s5.21-1.07,7.07-2.93c1.87-1.86,2.93-4.44,2.93-7.07
			S172.58,250.79,170.71,248.93z"/>
	</g>
</g>
<g>
	<g>
		<path d="M348.357,190h-142c-5.522,0-10,4.477-10,10s4.478,10,10,10h142c5.522,0,10-4.477,10-10S353.88,190,348.357,190z"/>
	</g>
</g>
<g>
</g>
<g>
</g>
<g>
</g>
<g>
</g>
<g>
</g>
<g>
</g>
<g>
</g>
<g>
</g>
<g>
</g>
<g>
</g>
<g>
</g>
<g>
</g>
<g>
</g>
<g>
</g>
<g>
</g>
</svg>
