<?xml version="1.0" encoding="iso-8859-1"?>
<!-- Generator: Adobe Illustrator 19.0.0, SVG Export Plug-In . SVG Version: 6.00 Build 0)  -->
<svg version="1.1" id="Capa_1" xmlns="http://www.w3.org/2000/svg" xmlns:xlink="http://www.w3.org/1999/xlink" x="0px" y="0px"
	 viewBox="0 0 512 512" style="enable-background:new 0 0 512 512;" xml:space="preserve">
<g>
	<g>
		<path d="M502,226H314.142l-67.072-67.071c-1.875-1.875-4.418-2.929-7.07-2.929H94c-5.523,0-10,4.477-10,10v294
			c0,17.645-14.355,32-32,32s-32-14.355-32-32V176h29c5.523,0,10-4.477,10-10s-4.477-10-10-10H10c-5.523,0-10,4.477-10,10v294
			c0,28.673,23.327,52,52,52h410c27.57,0,50-22.43,50-50V236C512,230.477,507.523,226,502,226z M492,462c0,16.542-13.458,30-30,30
			H92.961C99.875,483.17,104,472.058,104,460V176h131.857l67.072,67.071c1.875,1.875,4.418,2.929,7.071,2.929h182V462z"/>
	</g>
</g>
<g>
	<g>
		<path d="M486.05,101.603L387.376,2.929C385.501,1.054,382.958,0,380.305,0H146.174C128.433,0,114,14.433,114,32.174V122
			c0,5.523,4.477,10,10,10s10-4.477,10-10V32.174C134,25.461,139.461,20,146.174,20h224.131v66.5
			c0,17.741,14.433,32.174,32.174,32.174h66.5v70.689c0,5.523,4.477,10,10,10s10-4.477,10-10v-80.689
			C488.979,106.022,487.925,103.478,486.05,101.603z M402.479,98.674c-6.713,0-12.174-5.461-12.174-12.174V34.142l64.532,64.532
			H402.479z"/>
	</g>
</g>
<g>
	<g>
		<path d="M330.515,112H188c-5.523,0-10,4.477-10,10s4.477,10,10,10h142.515c5.523,0,10-4.477,10-10S336.038,112,330.515,112z"/>
	</g>
</g>
<g>
	<g>
		<path d="M330.515,64H228c-5.523,0-10,4.477-10,10s4.477,10,10,10h102.515c5.523,0,10-4.477,10-10S336.038,64,330.515,64z"/>
	</g>
</g>
<g>
	<g>
		<path d="M195.07,66.93C193.21,65.07,190.63,64,188,64s-5.21,1.07-7.07,2.93S178,71.37,178,74s1.07,5.21,2.93,7.07
			S185.37,84,188,84s5.21-1.07,7.07-2.93S198,76.63,198,74S196.93,68.79,195.07,66.93z"/>
	</g>
</g>
<g>
	<g>
		<path d="M340.07,433.93c-1.86-1.86-4.44-2.93-7.07-2.93s-5.21,1.07-7.07,2.93c-1.86,1.86-2.93,4.44-2.93,7.07s1.07,5.21,2.93,7.07
			c1.86,1.86,4.44,2.93,7.07,2.93s5.21-1.07,7.07-2.93c1.86-1.86,2.93-4.44,2.93-7.07S341.93,435.79,340.07,433.93z"/>
	</g>
</g>
<g>
	<g>
		<path d="M418,287H178c-16.542,0-30,13.458-30,30v104c0,16.542,13.458,30,30,30h115.5c5.523,0,10-4.477,10-10s-4.477-10-10-10H178
			c-5.514,0-10-4.486-10-10V317c0-5.514,4.486-10,10-10h240c5.514,0,10,4.486,10,10v104c0,5.514-4.486,10-10,10h-44.5
			c-5.523,0-10,4.477-10,10s4.477,10,10,10H418c16.542,0,30-13.458,30-30V317C448,300.458,434.542,287,418,287z"/>
	</g>
</g>
<g>
	<g>
		<path d="M364.776,323.51c-5.239-1.739-10.902,1.095-12.644,6.335l-14.442,43.451l-14.442-43.451
			c-1.743-5.241-7.401-8.079-12.644-6.335c-5.241,1.742-8.077,7.402-6.335,12.644l23.932,72c1.359,4.087,5.182,6.846,9.49,6.846
			s8.131-2.758,9.49-6.846l23.932-72C372.853,330.913,370.017,325.252,364.776,323.51z"/>
	</g>
</g>
<g>
	<g>
		<path d="M279.932,379.189c-5.523,0-10,4.477-10,10c0,3.204-2.606,5.811-5.811,5.811h-16.242c-3.204,0-5.811-2.607-5.811-5.811
			v-39.378c0-3.204,2.607-5.811,5.811-5.811h16.242c3.204,0,5.811,2.607,5.811,5.811c0,5.523,4.477,10,10,10s10-4.477,10-10
			c0-14.232-11.579-25.811-25.811-25.811h-16.242c-14.232,0-25.811,11.579-25.811,25.811v39.378
			c0,14.232,11.579,25.811,25.811,25.811h16.242c14.232,0,25.811-11.579,25.811-25.811
			C289.932,383.666,285.455,379.189,279.932,379.189z"/>
	</g>
</g>
<g>
</g>
<g>
</g>
<g>
</g>
<g>
</g>
<g>
</g>
<g>
</g>
<g>
</g>
<g>
</g>
<g>
</g>
<g>
</g>
<g>
</g>
<g>
</g>
<g>
</g>
<g>
</g>
<g>
</g>
</svg>
