<?xml version="1.0" encoding="iso-8859-1"?>
<!-- Generator: Adobe Illustrator 19.0.0, SVG Export Plug-In . SVG Version: 6.00 Build 0)  -->
<svg version="1.1" id="Capa_1" xmlns="http://www.w3.org/2000/svg" xmlns:xlink="http://www.w3.org/1999/xlink" x="0px" y="0px"
	 viewBox="0 0 512 512" style="enable-background:new 0 0 512 512;" xml:space="preserve">
<g>
	<g>
		<path d="M184.319,2.93C182.46,1.07,179.88,0,177.25,0c-2.641,0-5.21,1.07-7.07,2.93s-2.93,4.44-2.93,7.07
			c0,2.64,1.069,5.21,2.93,7.07c1.861,1.86,4.44,2.93,7.07,2.93s5.21-1.07,7.069-2.93c1.86-1.86,2.931-4.44,2.931-7.07
			S186.18,4.79,184.319,2.93z"/>
	</g>
</g>
<g>
	<g>
		<path d="M511.982,186.504c-0.147-2.923-1.564-5.756-4.12-7.605L458,142.82V30c0-16.542-13.458-30-30-30H216.5
			c-5.522,0-10,4.477-10,10s4.478,10,10,10H428c5.514,0,10,4.486,10,10v196.344l-122.067,99.664l-30.622-22.157
			c-17.532-12.686-41.091-12.686-58.621,0l-30.623,22.158L74,226.345V30c0-5.514,4.486-10,10-10h54.5c5.522,0,10-4.477,10-10
			s-4.478-10-10-10H84C67.458,0,54,13.458,54,30v112.819l-49.862,36.08c0.003,0.002,0.006,0.003,0.01,0.005
			C1.638,180.721,0,183.666,0,187v275c0,27.57,22.43,50,50,50h412c27.57,0,50-22.43,50-50V187
			C512,186.819,511.994,186.655,511.982,186.504z M458,167.506l27.603,19.972L458,210.015V167.506z M54,167.506v42.509
			l-27.603-22.537L54,167.506z M20,208.074L179.302,338.14L20,453.407V208.074z M462,492H50c-11.611,0-21.695-6.635-26.68-16.309
			l215.094-155.637c10.518-7.611,24.654-7.611,35.172,0L444.882,444H345c-5.522,0-10,4.477-10,10s4.478,10,10,10h127.522
			l16.158,11.691C483.695,485.365,473.611,492,462,492z M492,453.407L332.698,338.139L492,208.074V453.407z"/>
	</g>
</g>
<g>
	<g>
		<path d="M305.284,119.338c-3.906-3.905-10.236-3.905-14.143,0l-49.07,49.071l-21.213-21.213c-3.906-3.905-10.236-3.905-14.143,0
			c-3.905,3.905-3.905,10.237,0,14.143L235,189.622c1.876,1.875,4.419,2.929,7.071,2.929c2.652,0,5.195-1.054,7.071-2.929
			l56.142-56.142C309.189,129.575,309.189,123.243,305.284,119.338z"/>
	</g>
</g>
<g>
	<g>
		<path d="M256,54c-55.404,0-100.479,45.075-100.479,100.479S200.596,254.959,256,254.959s100.479-45.075,100.479-100.479
			S311.404,54,256,54z M256,234.959c-44.377,0-80.479-36.103-80.479-80.479C175.521,110.104,211.623,74,256,74
			s80.479,36.103,80.479,80.479C336.479,198.855,300.377,234.959,256,234.959z"/>
	</g>
</g>
<g>
	<g>
		<path d="M306.74,446.93c-1.86-1.86-4.44-2.93-7.07-2.93c-2.64,0-5.21,1.07-7.07,2.93c-1.87,1.86-2.93,4.44-2.93,7.07
			s1.06,5.21,2.93,7.07c1.86,1.86,4.431,2.93,7.07,2.93c2.63,0,5.21-1.07,7.07-2.93c1.859-1.86,2.93-4.44,2.93-7.07
			S308.6,448.79,306.74,446.93z"/>
	</g>
</g>
<g>
</g>
<g>
</g>
<g>
</g>
<g>
</g>
<g>
</g>
<g>
</g>
<g>
</g>
<g>
</g>
<g>
</g>
<g>
</g>
<g>
</g>
<g>
</g>
<g>
</g>
<g>
</g>
<g>
</g>
</svg>
