<?xml version="1.0" encoding="iso-8859-1"?>
<!-- Generator: Adobe Illustrator 19.0.0, SVG Export Plug-In . SVG Version: 6.00 Build 0)  -->
<svg version="1.1" id="Capa_1" xmlns="http://www.w3.org/2000/svg" xmlns:xlink="http://www.w3.org/1999/xlink" x="0px" y="0px"
	 viewBox="0 0 512 512" style="enable-background:new 0 0 512 512;" xml:space="preserve">
<g>
	<g>
		<path d="M375.905,178.005h-11.606c23.92-18.089,39.406-46.77,39.406-79.003C403.705,44.412,359.293,0,304.703,0
			C250.113,0,205.7,44.412,205.7,99.002c0,32.233,15.487,60.914,39.407,79.003H233.5c-15.33,0-27.801,12.471-27.801,27.8v65.408
			c0,6.117,1.99,11.775,5.351,16.371c-3.234,2.093-6.255,4.529-8.975,7.304L189.228,308h-28.663
			c-4.111-11.671-15.241-20.063-28.301-20.063H10c-5.523,0-10,4.477-10,10v168c0,5.523,4.477,10,10,10h122.264
			c15.164,0,27.728-11.311,29.717-25.938h31.242l10.785,10.714c7.286,7.238,16.954,11.224,27.223,11.224h22.258l0.956,17.149
			c0.717,12.85,11.359,22.914,24.227,22.914h52.061c12.868,0,23.51-10.064,24.226-22.913l0.958-17.177
			c16.042-0.572,28.919-13.793,28.919-29.973c0-7.678-2.902-14.688-7.664-20c4.761-5.312,7.664-12.322,7.664-20
			c0-7.678-2.902-14.688-7.664-20c4.761-5.312,7.664-12.322,7.664-20c0-7.678-2.902-14.688-7.664-20
			c4.761-5.312,7.664-12.322,7.664-20c0-9.185-4.154-17.415-10.677-22.923h1.746c15.329,0,27.8-12.471,27.8-27.801v-65.408
			C403.705,190.476,391.234,178.005,375.905,178.005z M142.264,445.938c0,5.514-4.486,10-10,10H20v-148h112.264
			c5.514,0,10,4.486,10,10V445.938z M225.7,99.002C225.7,55.44,261.14,20,304.703,20c43.562,0,79.002,35.44,79.002,79.002
			c0,43.563-35.44,79.003-79.002,79.003C261.14,178.005,225.7,142.565,225.7,99.002z M334.993,487.974
			c-0.129,2.257-1.999,4.026-4.26,4.026h-52.061c-2.261,0-4.131-1.769-4.257-4.026l-6.552-117.518
			c-0.308-5.514-5.023-9.733-10.541-9.428c-5.514,0.307-9.735,5.027-9.428,10.541l4.481,80.369h-21.143
			c-4.952,0-9.614-1.922-13.128-5.413l-13.71-13.62c-1.873-1.861-4.407-2.905-7.047-2.905h-35.082V328h31.166
			c2.688,0,5.262-1.082,7.143-3.001l15.788-16.112c6.148-6.274,14.713-9.873,23.498-9.873h28.477
			c8.272,0,16.017,3.675,21.249,10.082l20.41,24.996c3.189,3.905,2.816,9.677-0.849,13.141c-3.84,3.628-9.767,3.536-13.493-0.208
			l-14.613-14.689c-6.218-6.25-14.841-9.835-23.658-9.835h-12.618c-5.523,0-10,4.477-10,10s4.477,10,10,10h12.618
			c3.533,0,6.987,1.437,9.479,3.941l14.613,14.689c5.834,5.865,13.425,8.81,21.028,8.81c2.416,0,4.831-0.304,7.192-0.9
			c1.187,4.87,3.563,9.279,6.807,12.897c-4.761,5.312-7.664,12.322-7.664,20c0,7.678,2.902,14.688,7.664,20
			c-4.761,5.312-7.664,12.322-7.664,20c0,15.549,11.891,28.37,27.057,29.854L334.993,487.974z M307.171,299.014h12.341
			c-2.482,2.097-4.625,4.583-6.322,7.371L307.171,299.014z M354.836,451.938h-16c-5.514,0-10-4.486-10-10c0-5.514,4.486-10,10-10h16
			c5.514,0,10,4.486,10,10C364.836,447.452,360.35,451.938,354.836,451.938z M354.836,411.938h-16c-5.514,0-10-4.486-10-10
			c0-5.514,4.486-10,10-10h16c5.514,0,10,4.485,10,10C364.836,407.452,360.35,411.938,354.836,411.938z M354.836,371.938h-16
			c-5.514,0-10-4.486-10-10c0-5.514,4.486-10,10-10h16c5.514,0,10,4.485,10,10C364.836,367.452,360.35,371.938,354.836,371.938z
			 M354.836,331.938h-16c-5.514,0-10-4.486-10-10c0-5.514,4.486-10,10-10h16c5.514,0,10,4.486,10,10
			C364.836,327.452,360.35,331.938,354.836,331.938z M383.705,271.213c0,4.301-3.499,7.801-7.8,7.801h-107.57h-28.477H233.5
			c-4.301,0-7.801-3.5-7.801-7.801v-65.408c0-4.301,3.5-7.8,7.801-7.8h142.405c4.301,0,7.8,3.499,7.8,7.8V271.213z"/>
	</g>
</g>
<g>
	<g>
		<path d="M304.831,37.606c-0.014,0-0.114,0-0.128,0c-5.515,0-9.945,4.464-9.957,9.979c-0.012,5.515,4.486,9.998,10,10.021
			c0.014,0,0.115,0,0.129,0c5.515,0,9.945-4.464,9.957-9.979C314.844,42.112,310.345,37.63,304.831,37.606z"/>
	</g>
</g>
<g>
	<g>
		<path d="M344.291,52.072c-4.22-3.563-10.529-3.03-14.092,1.19c-3.563,4.22-3.03,10.529,1.19,14.092
			c9.349,7.893,14.71,19.428,14.71,31.647c0,5.523,4.477,10,10,10s10-4.476,10-9.999C366.099,80.878,358.15,63.773,344.291,52.072z"
			/>
	</g>
</g>
<g>
	<g>
		<path d="M134.083,149.922c-5.523,0-10,4.477-10,10v10.661c0,5.522,4.478,10,10,10c5.523,0,10-4.477,10-10v-10.661
			C144.083,154.399,139.606,149.922,134.083,149.922z"/>
	</g>
</g>
<g>
	<g>
		<path d="M134.083,198.428c-5.523,0-10,4.477-10,10v10.661c0,5.523,4.477,10,10,10s10-4.477,10-10v-10.661
			C144.083,202.905,139.606,198.428,134.083,198.428z"/>
	</g>
</g>
<g>
	<g>
		<path d="M163.667,179.505h-10.661c-5.523,0-10,4.477-10,10s4.477,10,10,10h10.661c5.523,0,10-4.477,10-10
			S169.19,179.505,163.667,179.505z"/>
	</g>
</g>
<g>
	<g>
		<path d="M115.161,179.505H104.5c-5.523,0-10,4.477-10,10s4.477,10,10,10h10.661c5.523,0,10-4.477,10-10
			S120.684,179.505,115.161,179.505z"/>
	</g>
</g>
<g>
	<g>
		<path d="M472.417,0c-5.523,0-10,4.477-10,10v10.661c0,5.523,4.477,10,10,10c5.523,0,10-4.477,10-10V10
			C482.417,4.477,477.94,0,472.417,0z"/>
	</g>
</g>
<g>
	<g>
		<path d="M472.417,48.506c-5.523,0-10,4.477-10,10v10.661c0,5.523,4.477,10,10,10s10-4.477,10-10V58.506
			C482.417,52.983,477.939,48.506,472.417,48.506z"/>
	</g>
</g>
<g>
	<g>
		<path d="M502,29.583h-10.661c-5.523,0-10,4.477-10,10s4.477,10,10,10H502c5.523,0,10-4.477,10-10S507.523,29.583,502,29.583z"/>
	</g>
</g>
<g>
	<g>
		<path d="M453.494,29.583h-10.661c-5.523,0-10,4.477-10,10s4.477,10,10,10h10.661c5.523,0,10-4.477,10-10
			S459.017,29.583,453.494,29.583z"/>
	</g>
</g>
<g>
	<g>
		<path d="M104,336.604c-5.523,0-10,4.477-10,10v44.063c0,5.523,4.477,10,10,10s10-4.477,10-10v-44.063
			C114,341.081,109.523,336.604,104,336.604z"/>
	</g>
</g>
<g>
	<g>
		<path d="M111.07,418.24c-1.86-1.86-4.44-2.93-7.07-2.93s-5.21,1.07-7.07,2.93S94,422.68,94,425.31s1.07,5.21,2.93,7.07
			c1.86,1.86,4.44,2.93,7.07,2.93s5.21-1.07,7.07-2.93s2.93-4.44,2.93-7.07S112.93,420.1,111.07,418.24z"/>
	</g>
</g>
<g>
</g>
<g>
</g>
<g>
</g>
<g>
</g>
<g>
</g>
<g>
</g>
<g>
</g>
<g>
</g>
<g>
</g>
<g>
</g>
<g>
</g>
<g>
</g>
<g>
</g>
<g>
</g>
<g>
</g>
</svg>
