<?xml version="1.0" encoding="iso-8859-1"?>
<!-- Generator: Adobe Illustrator 19.0.0, SVG Export Plug-In . SVG Version: 6.00 Build 0)  -->
<svg version="1.1" id="Capa_1" xmlns="http://www.w3.org/2000/svg" xmlns:xlink="http://www.w3.org/1999/xlink" x="0px" y="0px"
	 viewBox="0 0 512 512" style="enable-background:new 0 0 512 512;" xml:space="preserve">
<g>
	<g>
		<path d="M358.07,279.93c-1.86-1.86-4.44-2.93-7.07-2.93s-5.21,1.07-7.07,2.93c-1.86,1.86-2.93,4.44-2.93,7.07s1.07,5.21,2.93,7.07
			c1.86,1.86,4.44,2.93,7.07,2.93s5.21-1.07,7.07-2.93S361,289.63,361,287S359.93,281.79,358.07,279.93z"/>
	</g>
</g>
<g>
	<g>
		<path d="M300.22,357.458c9.494-10.529,15.285-24.46,15.285-39.72v-61.61c0-5.523-4.477-10-10-10h-61.164
			c-26.242,0-47.592,21.35-47.592,47.591v24.019c0,15.26,5.791,29.191,15.285,39.72c-43.709,3.777-78.13,40.538-78.13,85.209V502
			c0,5.523,4.477,10,10,10H368.35c5.523,0,10-4.477,10-10v-59.333C378.35,397.996,343.929,361.235,300.22,357.458z M216.749,293.718
			c0-15.214,12.377-27.591,27.592-27.591h51.164v51.61c0,21.713-17.665,39.377-39.378,39.377c-21.713,0-39.378-17.665-39.378-39.377
			V293.718z M358.35,492H153.904v-49.333c0-36.146,29.407-65.552,65.552-65.552h73.341c36.146,0,65.552,29.406,65.552,65.552V444
			h-77.682c-5.523,0-10,4.477-10,10s4.477,10,10,10h77.683V492z"/>
	</g>
</g>
<g>
	<g>
		<path d="M512,161.375c0-32.361-23.702-59.28-54.655-64.339c5.488-7.584,8.735-16.891,8.735-26.946V10c0-5.523-4.477-10-10-10
			h-44.692c-20.66,0-37.468,16.808-37.468,37.468V70.09c0,10.056,3.247,19.362,8.735,26.946
			c-18.786,3.07-34.89,14.194-44.655,29.701c-9.765-15.508-25.869-26.631-44.655-29.701c5.488-7.584,8.735-16.891,8.735-26.946V10
			c0-5.523-4.477-10-10-10h-44.692c-20.66,0-37.468,16.808-37.468,37.468V70.09c0,10.056,3.247,19.362,8.735,26.946
			c-18.786,3.07-34.89,14.194-44.655,29.701c-9.765-15.508-25.869-26.631-44.655-29.701c5.488-7.584,8.735-16.891,8.735-26.946V10
			c0-5.523-4.477-10-10-10H83.388C62.728,0,45.92,16.808,45.92,37.468V70.09c0,10.056,3.247,19.362,8.735,26.946
			C23.702,102.095,0,129.014,0,161.375V191c0,2.446,0.881,4.684,2.339,6.422C0.839,200.813,0,204.56,0,208.5v61
			C0,284.664,12.336,297,27.5,297h132.167c5.523,0,10-4.477,10-10s-4.477-10-10-10H27.5c-4.136,0-7.5-3.364-7.5-7.5v-61
			c0-4.136,3.364-7.5,7.5-7.5H174h164h146.5c4.136,0,7.5,3.364,7.5,7.5v61c0,4.136-3.364,7.5-7.5,7.5h-95.089
			c-5.523,0-10,4.477-10,10s4.477,10,10,10H484.5c15.164,0,27.5-12.336,27.5-27.5v-61c0-3.94-0.839-7.687-2.339-11.078
			c1.458-1.738,2.339-3.976,2.339-6.422V161.375z M65.92,37.468C65.92,27.836,73.756,20,83.388,20h34.692v12.179
			c0,5.972-4.858,10.83-10.83,10.83H65.92V37.468z M65.92,63.008h41.331c3.81,0,7.458-0.699,10.83-1.969v9.051h-0.001
			c0,14.38-11.7,26.08-26.08,26.08s-26.08-11.7-26.08-26.08V63.008z M98.447,116.17L92,122.617l-6.447-6.447H98.447z M164,181H27.5
			H20v-19.625c0-22.429,16.422-41.087,37.873-44.601l27.056,27.056c1.875,1.875,4.419,2.929,7.071,2.929s5.196-1.054,7.071-2.929
			l27.057-27.057c21.45,3.515,37.872,22.172,37.872,44.601V181z M229.92,37.468c0-9.632,7.836-17.468,17.468-17.468h34.692v12.179
			c0,5.972-4.858,10.83-10.83,10.83h-41.33V37.468z M229.92,63.008h41.331c3.81,0,7.458-0.699,10.83-1.969v9.051h-0.001
			c0,14.38-11.7,26.08-26.08,26.08s-26.08-11.7-26.08-26.08V63.008z M262.447,116.17L256,122.617l-6.447-6.447H262.447z M328,181
			H184v-19.625c0-22.429,16.422-41.087,37.873-44.601l27.056,27.056c1.875,1.875,4.419,2.929,7.071,2.929s5.196-1.054,7.071-2.929
			l27.057-27.057c21.45,3.515,37.872,22.172,37.872,44.601V181z M393.92,37.468c0-9.632,7.836-17.468,17.468-17.468h34.692v12.179
			c0,5.972-4.858,10.83-10.83,10.83h-41.33V37.468z M393.92,63.008h41.331c3.81,0,7.458-0.699,10.83-1.969v9.051h-0.001
			c0,14.38-11.7,26.08-26.08,26.08c-14.38,0-26.08-11.7-26.08-26.08V63.008z M426.447,116.17L420,122.617l-6.447-6.447H426.447z
			 M492,181h-7.5H348v-19.625c0-22.429,16.422-41.087,37.873-44.601l27.056,27.056c1.875,1.875,4.419,2.929,7.071,2.929
			c2.652,0,5.196-1.054,7.071-2.929l27.057-27.057c21.45,3.515,37.872,22.172,37.872,44.601V181z"/>
	</g>
</g>
<g>
	<g>
		<path d="M250.07,446.93c-1.86-1.86-4.44-2.93-7.07-2.93s-5.21,1.07-7.07,2.93S233,451.37,233,454s1.07,5.21,2.93,7.07
			c1.86,1.86,4.44,2.93,7.07,2.93s5.21-1.07,7.07-2.93S253,456.63,253,454S251.93,448.79,250.07,446.93z"/>
	</g>
</g>
<g>
</g>
<g>
</g>
<g>
</g>
<g>
</g>
<g>
</g>
<g>
</g>
<g>
</g>
<g>
</g>
<g>
</g>
<g>
</g>
<g>
</g>
<g>
</g>
<g>
</g>
<g>
</g>
<g>
</g>
</svg>
