<?xml version="1.0" encoding="iso-8859-1"?>
<!-- Generator: Adobe Illustrator 19.0.0, SVG Export Plug-In . SVG Version: 6.00 Build 0)  -->
<svg version="1.1" id="Capa_1" xmlns="http://www.w3.org/2000/svg" xmlns:xlink="http://www.w3.org/1999/xlink" x="0px" y="0px"
	 viewBox="0 0 480 480" style="enable-background:new 0 0 480 480;" xml:space="preserve">
<g>
	<g>
		<path d="M279.463,462.147c5.425-5.243,8.503-12.455,8.537-20V211.475c39.963-17.397,65.309-57.371,64-100.938
			c0-46.68-34.648-90.871-84.266-107.461c-10.637-3.593-22.32,0.95-27.734,10.785c-5.415-9.835-17.098-14.378-27.734-10.785
			C162.648,19.666,128,63.858,128,110.537c1.363,42.624,25.915,81.094,64,100.281v73.453l-46.844,39.656
			c-10.183,8.874-14.148,22.934-10.102,35.82c4.479,9.55,14.435,15.297,24.945,14.398h72v66.859
			c0.028,7.96,3.25,15.576,8.942,21.141H0v16h480v-16H279.463z M240,36.092c2.695,5.03,7.221,8.831,12.641,10.617
			c26.664,8.637,53.648,33.332,53.648,63.828c-0.701,22.363-13.192,42.683-32.83,53.405c12.153-18.465,7.036-43.286-11.429-55.439
			c-18.465-12.153-43.286-7.036-55.439,11.429c-8.675,13.181-8.796,30.229-0.31,43.532c-20.448-13.912-32.57-33.267-32.57-52.927
			c0-30.496,26.984-55.191,53.641-63.824C232.774,44.927,237.303,41.124,240,36.092z M264,142.143
			c0.002,13.255-10.741,24.002-23.996,24.004c-13.255,0.002-24.002-10.741-24.004-23.996c-0.002-13.255,10.741-24.002,23.996-24.004
			c0.001,0,0.003,0,0.004,0C253.247,118.163,263.982,128.896,264,142.143z M232,326.147h-18.391L232,310.361V326.147z M272,206.147
			v236c-0.001,6.631-5.378,12.005-12.009,12.004c-0.42,0-0.839-0.022-1.257-0.066c-6.369-1.021-10.975-6.633-10.734-13.078V299.331
			c0.001-4.417-3.579-7.999-7.996-8c-0.001,0-0.003,0-0.004,0h-7.43c-1.912,0-3.76,0.684-5.211,1.93l-40.57,34.816
			c-3.352,2.88-3.734,7.932-0.854,11.283c1.519,1.768,3.734,2.785,6.065,2.787h40v16h-72c-3.773,0-8.602-0.793-10.188-4.582
			c-1.326-6.655,1.05-13.508,6.211-17.914l49.141-41.559c1.798-1.52,2.835-3.755,2.836-6.109v-82.066
			c0-3.065-1.75-5.861-4.508-7.199C173.883,184.357,144,151.522,144,110.537c0-39.898,30.156-77.848,73.344-92.289
			c0.753-0.252,1.542-0.381,2.336-0.383c1.322,0,2.618,0.361,3.75,1.043c1.775,1.061,2.986,2.856,3.305,4.898
			c0.64,3.272-1.186,6.526-4.313,7.684c-32.156,10.414-64.711,40.91-64.711,79.047c0,27.219,17.289,53.582,46.25,70.516
			c1.226,0.716,2.619,1.093,4.039,1.094h64c1.308,0.001,2.595-0.32,3.75-0.934c29.578-15.715,46.539-41.473,46.539-70.676
			c0-38.137-32.555-68.633-64.719-79.051c-3.123-1.159-4.946-4.411-4.305-7.68v-0.011c0.322-2.039,1.533-3.829,3.305-4.887
			c1.836-1.096,4.058-1.337,6.086-0.66C305.844,32.69,336,70.639,336,110.537c1.227,38.958-22.45,74.387-58.914,88.156
			C274.02,199.896,272.002,202.853,272,206.147z"/>
	</g>
</g>
<g>
</g>
<g>
</g>
<g>
</g>
<g>
</g>
<g>
</g>
<g>
</g>
<g>
</g>
<g>
</g>
<g>
</g>
<g>
</g>
<g>
</g>
<g>
</g>
<g>
</g>
<g>
</g>
<g>
</g>
</svg>
