<?xml version="1.0" encoding="iso-8859-1"?>
<!-- Generator: Adobe Illustrator 19.0.0, SVG Export Plug-In . SVG Version: 6.00 Build 0)  -->
<svg version="1.1" id="Capa_1" xmlns="http://www.w3.org/2000/svg" xmlns:xlink="http://www.w3.org/1999/xlink" x="0px" y="0px"
	 viewBox="0 0 480 480" style="enable-background:new 0 0 480 480;" xml:space="preserve">
<g>
	<g>
		<path d="M342.25,144V74.129c-0.032-0.265-0.078-0.528-0.137-0.788c0.404-2.331-0.244-4.721-1.769-6.529l-54.516-64
			c-0.675-0.761-1.492-1.383-2.404-1.834c-0.237-0.118-0.479-0.223-0.727-0.316c-0.83-0.341-1.713-0.538-2.609-0.583
			C279.965,0.073,279.858,0,279.734,0H14.25c-4.417-0.001-7.999,3.579-8,7.996c0,0.001,0,0.003,0,0.004v464
			c-0.001,4.417,3.579,7.999,7.996,8c0.001,0,0.003,0,0.004,0h320c4.417,0.001,7.999-3.579,8-7.996c0-0.001,0-0.003,0-0.004v-56h-16
			v48h-304V16h249.294l-1.294,55.816c-0.095,4.423,3.413,8.086,7.836,8.182c0.055,0.001,0.109,0.002,0.164,0.002h48v64H342.25z
			 M286.437,64l0.793-34.331L315.532,64H286.437z"/>
	</g>
</g>
<g>
	<g>
		<rect x="118.25" y="40" width="96" height="16"/>
	</g>
</g>
<g>
	<g>
		<path d="M444.67,12.643c-0.458-0.172-0.918-0.338-1.381-0.495c-23.244-7.792-48.458,4.402-56.781,27.461L278.617,342.75
			c-0.42,1.189-0.557,2.46-0.398,3.711l8.094,62.566c0.365,2.788,2.164,5.181,4.742,6.305c2.577,1.125,5.555,0.814,7.844-0.82l56-40
			c1.291-0.921,2.278-2.206,2.836-3.691L470.851,70.508C479.6,47.299,467.878,21.392,444.67,12.643z M300.469,393.727l-4.712-36.431
			l37.316,13.139L300.469,393.727z M345.519,357.853l-49.135-17.3l97.808-274.805l54.512,18.17L345.519,357.853z M456.209,63.952
			c-0.104,0.305-0.213,0.609-0.326,0.911l-1.533,4.07l-54.79-18.264l2.026-5.693c5.352-14.847,21.584-22.699,36.547-17.679
			C453.246,32.427,461.339,48.838,456.209,63.952z"/>
	</g>
</g>
<g>
	<g>
		<rect x="46.25" y="88" width="80" height="16"/>
	</g>
</g>
<g>
	<g>
		<rect x="150.25" y="88" width="96" height="16"/>
	</g>
</g>
<g>
	<g>
		<rect x="166.25" y="136" width="112" height="16"/>
	</g>
</g>
<g>
	<g>
		<rect x="150.25" y="184" width="143.992" height="16"/>
	</g>
</g>
<g>
	<g>
		<rect x="46.25" y="280" width="96" height="16"/>
	</g>
</g>
<g>
	<g>
		<rect x="166.25" y="280" width="88" height="16"/>
	</g>
</g>
<g>
	<g>
		<rect x="46.25" y="328" width="112" height="16"/>
	</g>
</g>
<g>
	<g>
		<rect x="182.25" y="328" width="80" height="16"/>
	</g>
</g>
<g>
	<g>
		<rect x="46.25" y="376" width="72" height="16"/>
	</g>
</g>
<g>
	<g>
		<rect x="142.25" y="376" width="128" height="16"/>
	</g>
</g>
<g>
	<g>
		<rect x="46.25" y="424" width="168" height="16"/>
	</g>
</g>
<g>
	<g>
		<rect x="238.25" y="424" width="48" height="16"/>
	</g>
</g>
<g>
	<g>
		<rect x="46.25" y="136" width="96" height="16"/>
	</g>
</g>
<g>
	<g>
		<rect x="46.25" y="184" width="80" height="16"/>
	</g>
</g>
<g>
	<g>
		<rect x="46.25" y="232" width="143.992" height="16"/>
	</g>
</g>
<g>
	<g>
		<rect x="214.25" y="232" width="80" height="16"/>
	</g>
</g>
<g>
</g>
<g>
</g>
<g>
</g>
<g>
</g>
<g>
</g>
<g>
</g>
<g>
</g>
<g>
</g>
<g>
</g>
<g>
</g>
<g>
</g>
<g>
</g>
<g>
</g>
<g>
</g>
<g>
</g>
</svg>
