<?xml version="1.0" encoding="iso-8859-1"?>
<!-- Generator: Adobe Illustrator 19.0.0, SVG Export Plug-In . SVG Version: 6.00 Build 0)  -->
<svg version="1.1" id="Capa_1" xmlns="http://www.w3.org/2000/svg" xmlns:xlink="http://www.w3.org/1999/xlink" x="0px" y="0px"
	 viewBox="0 0 480.148 480.148" style="enable-background:new 0 0 480.148 480.148;" xml:space="preserve">
<g>
	<g>
		<path d="M176.074,192.073c-7.219,0-24,3.898-24,40c0,16,0,16-16,16c-26.093,0.98-47.02,21.907-48,48c0,16.148-7.852,24-24,24
			c-12.257-0.998-23.002,8.129-24,20.386c-0.098,1.203-0.098,2.411,0,3.614c0,7.219,3.898,24,40,24c24.688,0,56-22.602,56-48
			c0-15.703,5.531-24,16-24c26.097-0.972,47.028-21.903,48-48v-16C200.074,221.136,200.074,192.073,176.074,192.073z
			 M184.074,248.073c-1.065,17.213-14.787,30.936-32,32c-15.469,0-32,10.508-32,40c0,15.453-23.477,32-40,32
			c-14.352,0-24-3.219-24-8c0-5.828,2.172-8,8-8c25.047,0,40-14.953,40-40c1.07-17.211,14.79-30.93,32-32c24.82,0,32-7.18,32-32
			c0-14.352,3.219-24,8-24c2.188,0,8,0,8,24V248.073z"/>
	</g>
</g>
<g>
	<g>
		<path d="M440.074,320.073h-16c-26.097,0.972-47.028,21.903-48,48c0,10.469-8.297,16-24,16c-25.398,0-48,31.312-48,56
			c0,36.102,16.781,40,24,40c12.257,0.998,23.002-8.129,24-20.386c0.098-1.203,0.098-2.411,0-3.614c0-16.148,7.852-24,24-24
			c26.093-0.98,47.02-21.907,48-48c0-16,0-16,16-16c36.102,0,40-16.781,40-24C480.074,320.073,451.012,320.073,440.074,320.073z
			 M440.074,352.073c-24.82,0-32,7.18-32,32c-1.07,17.21-14.789,30.93-32,32c-25.047,0-40,14.953-40,40c0,5.828-2.172,8-8,8
			c-4.781,0-8-9.648-8-24c0-16.523,16.547-40,32-40c29.492,0,40-16.531,40-32c1.065-17.213,14.787-30.935,32-32h16
			c24,0,24,5.812,24,8C464.074,348.855,454.426,352.073,440.074,352.073z"/>
	</g>
</g>
<g>
	<g>
		<path d="M432.074,72.073c-10.469,0-16-8.297-16-24c0-25.398-31.312-48-56-48c-36.102,0-40,16.781-40,24
			c-0.998,12.257,8.129,23.002,20.386,24c1.203,0.098,2.411,0.098,3.614,0c16.148,0,24,7.852,24,24c0.98,26.093,21.907,47.02,48,48
			c16,0,16,0,16,16c0,36.102,16.781,40,24,40c24,0,24-29.063,24-40v-16C479.102,93.977,458.171,73.045,432.074,72.073z
			 M464.074,136.073c0,24-5.812,24-8,24c-4.781,0-8-9.648-8-24c0-24.82-7.18-32-32-32c-17.21-1.07-30.93-14.79-32-32
			c0-25.047-14.953-40-40-40c-5.828,0-8-2.172-8-8c0-4.781,9.648-8,24-8c16.523,0,40,16.547,40,32c0,29.492,16.531,40,32,40
			c17.213,1.065,30.935,14.787,32,32V136.073z"/>
	</g>
</g>
<g>
	<g>
		<path d="M449.637,205.949c-5.927-5.81-14.732-7.558-22.43-4.453c-8.698,3.468-16.499,8.858-22.82,15.766
			c-11.297,11.305-11.305,11.336-22.633,0c-19.18-17.656-48.695-17.656-67.875,0c-11.406,11.422-22.508,11.438-33.945,0
			c-8.057-9.372-22.186-10.437-31.557-2.38c-0.852,0.732-1.648,1.528-2.38,2.38c-5.806,5.929-7.554,14.732-4.453,22.43
			c3.464,8.7,8.854,16.502,15.766,22.82c11.879,10.724,27.349,16.601,43.352,16.469c11.095,0.522,21.947-3.365,30.188-10.813
			c11.07-11.078,20.867-13.07,28.281-5.656c19.144,17.758,48.739,17.758,67.883,0l11.313-11.312
			C446.058,243.464,466.605,222.917,449.637,205.949z M439.738,222.667c-2.863,6.641-7.218,12.533-12.727,17.219l-11.313,11.313
			c-12.93,11.406-32.328,11.406-45.258,0c-10.945-10.922-30.055-15.188-50.906,5.656c-10.93,10.922-39.234,6.031-50.914-5.656
			c-5.157-4.559-9.224-10.22-11.898-16.563c-1.367-4.109-0.047-5.43,0.586-6.062c1.992-3.124,6.139-4.041,9.263-2.049
			c0.824,0.526,1.524,1.225,2.049,2.049c17.711,17.703,38.859,17.719,56.57,0c12.918-11.43,32.332-11.43,45.25,0
			c17.547,17.555,27.711,17.578,45.258,0c4.563-5.157,10.226-9.223,16.57-11.898c4.094-1.359,5.414-0.055,6.055,0.586
			C439.974,218.529,440.556,220.754,439.738,222.667z"/>
	</g>
</g>
<g>
	<g>
		<path d="M136.074,112.073c-16,0-16,0-16-16c-0.98-26.093-21.907-47.02-48-48c-16.148,0-24-7.852-24-24
			c0.998-12.257-8.129-23.002-20.386-24c-1.203-0.098-2.411-0.098-3.614,0c-7.219,0-24,3.898-24,40c0,24.688,22.602,56,48,56
			c15.703,0,24,5.531,24,16c0.972,26.097,21.903,47.028,48,48h16c10.938,0,40,0,40-24
			C176.074,128.855,172.176,112.073,136.074,112.073z M136.074,144.073h-16c-17.213-1.065-30.935-14.787-32-32
			c0-15.469-10.508-32-40-32c-15.453,0-32-23.477-32-40c0-14.352,3.219-24,8-24c5.828,0,8,2.172,8,8c0,25.047,14.953,40,40,40
			c17.211,1.07,30.93,14.789,32,32c0,24.82,7.18,32,32,32c14.352,0,24,3.219,24,8C160.074,138.261,160.074,144.073,136.074,144.073z
			"/>
	</g>
</g>
<g>
	<g>
		<path d="M202.372,428.355l-11.32-11.516c-19.099-17.968-48.885-17.968-67.984,0c-2.55,2.747-6.104,4.345-9.852,4.43
			c-7.201-0.9-13.776-4.547-18.353-10.18c-8.163-7.55-19.009-11.518-30.117-11.016H64.73c-16.106-0.131-31.661,5.862-43.516,16.766
			c-25.406,25.836-16.375,40.602-11.312,45.75c4.335,4.874,10.488,7.746,17.008,7.938h0.008c6.524-0.193,12.682-3.063,17.023-7.938
			c11.344-11.547,22.516-11.547,33.859,0c9.093,8.83,21.326,13.679,34,13.477h0.016c12.664,0.2,24.887-4.649,33.969-13.477
			c5.672-5.766,9.461-8.695,11.273-8.695s5.602,2.93,11.273,8.695c11.414,11.609,21.882,17.492,31.109,17.492h0.016
			c5.365,0.037,10.511-2.129,14.234-5.992C230.504,456.98,210.067,436.183,202.372,428.355z M202.277,462.878l-0.008,0.008
			c-0.718,0.8-1.754,1.238-2.828,1.195c-1.695,0-8.109-0.922-19.703-12.711c-8.391-8.531-14.789-13.477-22.68-13.477
			c-7.891,0-14.289,4.945-22.68,13.477c-6.074,5.774-14.191,8.901-22.569,8.695H111.8c-8.386,0.21-16.512-2.917-22.594-8.695
			c-13.123-15.65-36.448-17.698-52.097-4.575c-1.656,1.388-3.187,2.919-4.575,4.575c-1.422,1.705-3.421,2.828-5.617,3.156
			c-2.193-0.332-4.188-1.454-5.609-3.156c-3.523-3.586,0.914-12.734,11.313-23.312c8.877-7.788,20.301-12.052,32.109-11.984h0.008
			c6.816-0.461,13.54,1.778,18.719,6.234c7.476,8.821,18.218,14.222,29.758,14.961c8.039-0.073,15.707-3.395,21.258-9.211
			c12.826-11.594,32.346-11.594,45.172,0l11.32,11.516C208.074,456.98,203.863,461.269,202.277,462.878z"/>
	</g>
</g>
<g>
	<g>
		<path d="M64.074,152.073h-8c-4.418,0-8,3.582-8,8v8c0,4.418,3.582,8,8,8h8c4.418,0,8-3.582,8-8v-8
			C72.074,155.655,68.492,152.073,64.074,152.073z"/>
	</g>
</g>
<g>
	<g>
		<path d="M168.074,0.073h-8c-4.418,0-8,3.582-8,8v8c0,4.418,3.582,8,8,8h8c4.418,0,8-3.582,8-8v-8
			C176.074,3.655,172.492,0.073,168.074,0.073z"/>
	</g>
</g>
<g>
	<g>
		<path d="M320.074,72.073h-8c-4.418,0-8,3.582-8,8v8c0,4.418,3.582,8,8,8h8c4.418,0,8-3.582,8-8v-8
			C328.074,75.655,324.492,72.073,320.074,72.073z"/>
	</g>
</g>
<g>
	<g>
		<path d="M232.074,320.073h-8c-4.418,0-8,3.582-8,8v8c0,4.418,3.582,8,8,8h8c4.418,0,8-3.582,8-8v-8
			C240.074,323.655,236.492,320.073,232.074,320.073z"/>
	</g>
</g>
<g>
	<g>
		<path d="M472.074,456.073h-8c-4.418,0-8,3.582-8,8v8c0,4.418,3.582,8,8,8h8c4.418,0,8-3.582,8-8v-8
			C480.074,459.655,476.492,456.073,472.074,456.073z"/>
	</g>
</g>
<g>
	<g>
		<path d="M240.074,152.073h-8c-4.418,0-8,3.582-8,8v8c0,4.418,3.582,8,8,8h8c4.418,0,8-3.582,8-8v-8
			C248.074,155.655,244.492,152.073,240.074,152.073z"/>
	</g>
</g>
<g>
	<g>
		<path d="M16.074,368.073h-8c-4.418,0-8,3.582-8,8v8c0,4.418,3.582,8,8,8h8c4.418,0,8-3.582,8-8v-8
			C24.074,371.655,20.492,368.073,16.074,368.073z"/>
	</g>
</g>
<g>
	<g>
		<path d="M472.074,0.073h-8c-4.418,0-8,3.582-8,8v8c0,4.418,3.582,8,8,8h8c4.418,0,8-3.582,8-8v-8
			C480.074,3.655,476.492,0.073,472.074,0.073z"/>
	</g>
</g>
<g>
</g>
<g>
</g>
<g>
</g>
<g>
</g>
<g>
</g>
<g>
</g>
<g>
</g>
<g>
</g>
<g>
</g>
<g>
</g>
<g>
</g>
<g>
</g>
<g>
</g>
<g>
</g>
<g>
</g>
</svg>
