<?xml version="1.0" encoding="iso-8859-1"?>
<!-- Generator: Adobe Illustrator 19.0.0, SVG Export Plug-In . SVG Version: 6.00 Build 0)  -->
<svg version="1.1" id="Capa_1" xmlns="http://www.w3.org/2000/svg" xmlns:xlink="http://www.w3.org/1999/xlink" x="0px" y="0px"
	 viewBox="0 0 480.053 480.053" style="enable-background:new 0 0 480.053 480.053;" xml:space="preserve">
<g>
	<g>
		<path d="M457.933,329.904c-6.496-6.364-15.242-9.904-24.336-9.852c-9.094-0.053-17.84,3.488-24.336,9.852
			c-7.216,7.781-19.373,8.238-27.154,1.022c-0.353-0.328-0.694-0.669-1.022-1.022c-13.552-13.138-35.089-13.135-48.637,0.008
			c-7.192,7.764-19.317,8.228-27.081,1.036c-0.358-0.332-0.704-0.677-1.036-1.036c-6.483-6.365-15.219-9.909-24.305-9.86v16
			c5.338-0.011,10.436,2.217,14.055,6.141c13.54,13.146,35.077,13.146,48.617,0c7.205-7.77,19.345-8.228,27.115-1.023
			c0.356,0.33,0.7,0.674,1.03,1.031c13.561,13.135,35.099,13.135,48.66,0c7.223-7.784,19.389-8.238,27.173-1.015
			c0.351,0.325,0.689,0.664,1.015,1.015c6.496,6.363,15.242,9.904,24.336,9.851v-16
			C466.675,336.066,461.563,333.835,457.933,329.904z"/>
	</g>
</g>
<g>
	<g>
		<path d="M452.472,0.052H315.581c-14.208-0.896-26.493,9.804-27.555,24h-20.445c-14.208-0.896-26.493,9.804-27.555,24
			c1.062,14.196,13.347,24.896,27.555,24h136.891c14.208,0.896,26.493-9.804,27.555-24h20.445c14.208,0.896,26.493-9.804,27.555-24
			C478.965,9.856,466.68-0.844,452.472,0.052z M452.472,32.052h-31.156c-4.419,0.002-8,3.585-7.998,8.004
			c0.001,1.662,0.519,3.283,1.483,4.637c0.75,0.964,1.179,2.139,1.227,3.359c0,4.336-5.293,8-11.555,8H267.581
			c-6.262,0-11.555-3.664-11.555-8s5.293-8,11.555-8h31.156c4.419-0.002,8-3.585,7.998-8.004c-0.001-1.662-0.519-3.283-1.483-4.637
			c-0.75-0.964-1.179-2.139-1.227-3.359c0-4.336,5.293-8,11.555-8h136.891c6.262,0,11.555,3.664,11.555,8
			S458.734,32.052,452.472,32.052z"/>
	</g>
</g>
<g>
	<g>
		<path d="M177.933,305.904c-6.496-6.364-15.242-9.904-24.336-9.852c-9.094-0.053-17.84,3.488-24.336,9.852
			c-7.216,7.781-19.373,8.238-27.154,1.022c-0.353-0.328-0.694-0.669-1.022-1.022c-13.552-13.138-35.089-13.135-48.637,0.008
			c-7.192,7.764-19.317,8.228-27.081,1.036c-0.358-0.332-0.704-0.677-1.036-1.036c-6.483-6.365-15.219-9.909-24.305-9.86v16
			c5.338-0.011,10.436,2.217,14.055,6.141c13.54,13.146,35.077,13.146,48.617,0c7.205-7.77,19.345-8.228,27.115-1.023
			c0.356,0.33,0.7,0.674,1.03,1.031c13.561,13.135,35.099,13.135,48.66,0c7.223-7.784,19.389-8.238,27.173-1.015
			c0.351,0.325,0.689,0.664,1.015,1.015c6.496,6.363,15.242,9.904,24.336,9.851v-16
			C186.675,312.066,181.563,309.835,177.933,305.904z"/>
	</g>
</g>
<g>
	<g>
		<path d="M417.933,433.904c-6.496-6.364-15.242-9.904-24.336-9.852c-9.094-0.053-17.84,3.488-24.336,9.852
			c-7.216,7.781-19.373,8.238-27.154,1.022c-0.353-0.328-0.694-0.669-1.022-1.022c-13.552-13.138-35.089-13.135-48.637,0.008
			c-7.192,7.764-19.317,8.228-27.081,1.036c-0.358-0.332-0.704-0.677-1.036-1.036c-6.483-6.365-15.219-9.909-24.305-9.86v16
			c5.338-0.011,10.436,2.217,14.055,6.141c13.54,13.146,35.077,13.146,48.617,0c7.205-7.77,19.345-8.228,27.115-1.023
			c0.356,0.33,0.7,0.674,1.03,1.031c13.561,13.135,35.099,13.135,48.66,0c7.223-7.784,19.389-8.238,27.173-1.015
			c0.351,0.325,0.689,0.664,1.015,1.015c6.496,6.363,15.242,9.904,24.336,9.851v-16
			C426.675,440.066,421.563,437.835,417.933,433.904z"/>
	</g>
</g>
<g>
	<g>
		<path d="M177.933,457.904c-6.496-6.364-15.242-9.904-24.336-9.852c-9.094-0.053-17.84,3.488-24.336,9.852
			c-7.216,7.781-19.373,8.238-27.154,1.022c-0.353-0.328-0.694-0.669-1.022-1.022c-13.552-13.138-35.089-13.135-48.637,0.008
			c-7.192,7.764-19.317,8.228-27.081,1.036c-0.358-0.332-0.704-0.677-1.036-1.036c-6.483-6.365-15.219-9.909-24.305-9.86v16
			c5.338-0.011,10.436,2.217,14.055,6.141c13.54,13.146,35.077,13.146,48.617,0c7.205-7.77,19.345-8.228,27.115-1.023
			c0.356,0.33,0.7,0.674,1.03,1.031c13.561,13.135,35.099,13.135,48.66,0c7.223-7.784,19.389-8.238,27.173-1.015
			c0.351,0.325,0.689,0.664,1.015,1.015c6.496,6.363,15.242,9.904,24.336,9.851v-16
			C186.675,464.066,181.563,461.835,177.933,457.904z"/>
	</g>
</g>
<g>
	<g>
		<path d="M374.014,264.052l-27.456-93.359c-7.273-24.595-33.077-38.666-57.691-31.461l-88.974,26.171
			c-1.404-30.956-27.636-54.912-58.592-53.508s-54.912,27.636-53.508,58.592c1.404,30.956,27.636,54.912,58.592,53.508
			c7.701-0.349,15.246-2.281,22.167-5.676l-5.255,14.819L30.374,245.982c-10.345,0.785-19.055,8.039-21.701,18.07H0.027v16h480v-16
			H374.014z M144.027,208.052c-22.17,0.079-40.206-17.83-40.285-40s17.83-40.206,40-40.285s40.206,17.83,40.285,40
			c0.019,5.28-1.004,10.511-3.01,15.395l-0.194,0.546C174.534,198.456,160.058,208.033,144.027,208.052z M26.636,264.052
			c1.515-1.21,3.348-1.956,5.277-2.148l138.008-13.336c3.093-0.296,5.734-2.359,6.77-5.289l19.361-54.633
			c0.581-1.463,1.125-2.945,1.583-4.465l0.571-1.61l95.177-27.995c16.139-4.717,33.053,4.51,37.824,20.633l26.128,88.844H26.636z"/>
	</g>
</g>
<g>
	<g>
		<path d="M327.788,238.115l-16-64c-1.063-4.282-5.396-6.891-9.678-5.827c-0.207,0.052-0.412,0.111-0.615,0.179l-48,16
			c-4.19,1.394-6.456,5.921-5.061,10.111c0.514,1.545,1.488,2.896,2.792,3.873l64,48c3.534,2.652,8.548,1.937,11.2-1.597
			C327.871,242.928,328.372,240.452,327.788,238.115z M273.043,194.81l25.32-8.438l8.438,33.758L273.043,194.81z"/>
	</g>
</g>
<g>
</g>
<g>
</g>
<g>
</g>
<g>
</g>
<g>
</g>
<g>
</g>
<g>
</g>
<g>
</g>
<g>
</g>
<g>
</g>
<g>
</g>
<g>
</g>
<g>
</g>
<g>
</g>
<g>
</g>
</svg>
