<?xml version="1.0" encoding="iso-8859-1"?>
<!-- Generator: Adobe Illustrator 19.0.0, SVG Export Plug-In . SVG Version: 6.00 Build 0)  -->
<svg version="1.1" id="Capa_1" xmlns="http://www.w3.org/2000/svg" xmlns:xlink="http://www.w3.org/1999/xlink" x="0px" y="0px"
	 viewBox="0 0 480.039 480.039" style="enable-background:new 0 0 480.039 480.039;" xml:space="preserve">
<g>
	<g>
		<path d="M479.438,464.02c-82.902-0.008-150.789-99.988-151.43-223.242c-1.319-56.621,14.589-112.307,45.617-159.688
			c28.926-41.762,66.719-64.871,106.414-65.07l-0.078-16c-45.07,0.227-87.504,25.785-119.488,71.961
			c-16.669,24.533-29.116,51.681-36.825,80.321c-35.568,2.847-59.899,38.26-59.647,88.089c-0.499,21.422,5.143,42.54,16.258,60.859
			c9.469,15.284,25.658,25.137,43.584,26.526c24.658,89.085,85.204,152.25,155.603,152.244h0.594l-0.078-16H479.438z
			 M293.586,292.395c-9.386-15.717-14.099-33.783-13.586-52.082c-0.16-31.553,12.251-65.263,39.505-71.261
			c-5.121,23.59-7.636,47.672-7.497,71.812c0.092,23.621,2.665,47.166,7.676,70.25C308.85,308.574,299.465,301.842,293.586,292.395z
			"/>
	</g>
</g>
<g>
	<g>
		<path d="M464,140.02c0,6.523-15.582,16-40,16c-24.418,0-40-9.477-40-16h-16c0,18.242,24.074,32,56,32c31.926,0,56-13.758,56-32
			H464z"/>
	</g>
</g>
<g>
	<g>
		<path d="M410.184,360.02c-9.793,0-18.184-13.195-18.184-24h-16c0,18.883,14.617,40,34.184,40H480v-16H410.184z"/>
	</g>
</g>
<g>
	<g>
		<path d="M120.003,120.02c-1.817,0-3.58,0.618-4.999,1.754L37.195,184.02H8c-4.418,0-8,3.582-8,8v96c0,4.418,3.582,8,8,8h29.195
			l77.809,62.246c3.449,2.76,8.482,2.202,11.242-1.247c1.135-1.419,1.754-3.182,1.754-4.999v-224
			C128.001,123.602,124.42,120.021,120.003,120.02z M32,280.02H16v-80h16V280.02z M112,335.375l-64-51.199v-88.313l64-51.199
			V335.375z"/>
	</g>
</g>
<g>
	<g>
		<path d="M144,200.02v16c13.255,0,24,10.745,24,24s-10.745,24-24,24v16c22.091,0,40-17.909,40-40S166.091,200.02,144,200.02z"/>
	</g>
</g>
<g>
	<g>
		<path d="M144,168.02v16c30.928,0,56,25.072,56,56c0,30.928-25.072,56-56,56v16c39.765,0,72-32.236,72-72
			C216,200.255,183.765,168.02,144,168.02z"/>
	</g>
</g>
<g>
	<g>
		<path d="M144,136.02v16c48.601,0,88,39.399,88,88c0,48.601-39.399,88-88,88v16c57.438,0,104-46.562,104-104
			S201.438,136.02,144,136.02z"/>
	</g>
</g>
<g>
</g>
<g>
</g>
<g>
</g>
<g>
</g>
<g>
</g>
<g>
</g>
<g>
</g>
<g>
</g>
<g>
</g>
<g>
</g>
<g>
</g>
<g>
</g>
<g>
</g>
<g>
</g>
<g>
</g>
</svg>
