<?xml version="1.0" encoding="iso-8859-1"?>
<!-- Generator: Adobe Illustrator 19.0.0, SVG Export Plug-In . SVG Version: 6.00 Build 0)  -->
<svg version="1.1" id="Capa_1" xmlns="http://www.w3.org/2000/svg" xmlns:xlink="http://www.w3.org/1999/xlink" x="0px" y="0px"
	 viewBox="0 0 480.027 480.027" style="enable-background:new 0 0 480.027 480.027;" xml:space="preserve">
<g>
	<g>
		<path d="M472.014,112.063c-97.135,0-199.867,22.344-214.232,63.965h-35.548c-15.613-40.848-132.368-65.202-214.325-63.965
			c-4.377,0.058-7.894,3.623-7.895,8v285.922c-0.001,2.14,0.856,4.191,2.379,5.695c1.502,1.537,3.579,2.373,5.727,2.305
			c111.996-1.645,199.492,30.063,199.895,58.156c0.062,4.374,3.625,7.887,8,7.887h48c4.418,0,8-3.582,8-8
			c0-27.453,82.137-58.043,200-58.043c4.418,0,8-3.582,8-8V120.063C480.014,115.644,476.432,112.063,472.014,112.063z M208.014,443
			c-33.484-28.555-114.273-44.934-192-45.059V128.035c91.031,0.535,191.613,30.023,192,57.012V443z M256.014,464.027h-32v-272h32
			V464.027z M464.014,398.035c-78.332,0.984-158.66,16.367-192,44.559V186.102c0-26.828,78.434-56.648,192-57.992V398.035z"/>
	</g>
</g>
<g>
	<g>
		<path d="M212.225,2.896C158.276,14.154,116.45,56.85,106.307,111.02l15.73,2.922c12.215-65.156,74.937-108.074,140.094-95.859
			c47.781,8.958,85.44,45.851,95.379,93.437l15.664-3.25C357.827,34.727,285.768-12.451,212.225,2.896z"/>
	</g>
</g>
<g>
	<g>
		<path d="M288.014,72.027c-22.805,0-40,10.316-40,24h16c0-1.992,8.512-8,24-8c15.488,0,24,6.008,24,8h16
			C328.014,82.344,310.818,72.027,288.014,72.027z"/>
	</g>
</g>
<g>
	<g>
		<path d="M192.014,72.027c-22.805,0-40,10.316-40,24h16c0-1.992,8.512-8,24-8c15.488,0,24,6.008,24,8h16
			C232.014,82.344,214.818,72.027,192.014,72.027z"/>
	</g>
</g>
<g>
</g>
<g>
</g>
<g>
</g>
<g>
</g>
<g>
</g>
<g>
</g>
<g>
</g>
<g>
</g>
<g>
</g>
<g>
</g>
<g>
</g>
<g>
</g>
<g>
</g>
<g>
</g>
<g>
</g>
</svg>
