<?xml version="1.0" encoding="iso-8859-1"?>
<!-- Generator: Adobe Illustrator 19.0.0, SVG Export Plug-In . SVG Version: 6.00 Build 0)  -->
<svg version="1.1" id="Capa_1" xmlns="http://www.w3.org/2000/svg" xmlns:xlink="http://www.w3.org/1999/xlink" x="0px" y="0px"
	 viewBox="0 0 471.93 471.93" style="enable-background:new 0 0 471.93 471.93;" xml:space="preserve">
<g>
	<g>
		<path d="M235.526,135.587c-30.861,0.256-55.672,25.481-55.416,56.342c0.256,30.861,25.481,55.671,56.342,55.416
			c30.682-0.254,55.42-25.2,55.418-55.883C291.703,160.489,266.499,135.494,235.526,135.587z M235.526,231.345L235.526,231.345
			c-22.025-0.256-39.672-18.317-39.417-40.342s18.317-39.672,40.341-39.417c21.843,0.253,39.417,18.031,39.419,39.875
			C275.715,213.604,257.669,231.444,235.526,231.345z"/>
	</g>
</g>
<g>
	<g>
		<path d="M208.925,259.014c-0.742-0.791-1.638-1.423-2.633-1.857c-26.223-11.335-43.24-37.128-43.344-65.695
			c0.025-3.821,0.362-7.633,1.008-11.398c0.719-4.357-2.231-8.472-6.588-9.191c-1.311-0.216-2.656-0.102-3.912,0.332L41.354,209.923
			c-3.609,1.245-5.834,4.867-5.312,8.649c7.17,52.557,35.157,100.03,77.672,131.75c3.109,2.342,7.454,2.105,10.289-0.563
			l84.562-79.445C211.785,267.292,211.946,262.233,208.925,259.014z M118.049,333.399c-34.442-27.691-57.607-66.988-65.156-110.531
			l94.063-32.492c-0.008,0.367-0.008,0.727-0.008,1.086c0.067,30.676,16.161,59.086,42.437,74.914L118.049,333.399z"/>
	</g>
</g>
<g>
	<g>
		<path d="M430.214,202.72l-113.203-33.133c-4.244-1.24-8.69,1.195-9.93,5.44c-0.347,1.189-0.414,2.443-0.195,3.662
			c0.787,4.213,1.193,8.488,1.211,12.773c-0.158,28.018-16.555,53.4-42.031,65.063c-4.014,1.848-5.77,6.6-3.921,10.614
			c0.482,1.048,1.186,1.979,2.062,2.73l88.617,75.852c2.934,2.512,7.244,2.567,10.242,0.133
			c41.403-33.267,67.665-81.806,72.859-134.664C436.303,207.36,433.905,203.804,430.214,202.72z M358.073,329.149l-74.672-63.906
			c25.234-16.069,40.566-43.866,40.695-73.781c0-1.047-0.023-2.094-0.063-3.148l95.195,27.867
			C413.304,260.035,391.554,300.212,358.073,329.149z"/>
	</g>
</g>
<g>
	<g>
		<path d="M315.003,14.938c-51.115-19.918-107.846-19.918-158.961,0c-3.694,1.451-5.763,5.393-4.859,9.258l25.086,107.687
			c0.998,4.303,5.296,6.982,9.599,5.984c1.202-0.279,2.323-0.832,3.276-1.616c26.971-22.115,65.803-22.115,92.773,0
			c1.433,1.178,3.231,1.821,5.086,1.82c0.874-0.002,1.742-0.144,2.57-0.422c2.619-0.891,4.593-3.071,5.219-5.766l25.07-107.687
			C320.762,20.332,318.694,16.392,315.003,14.938z M281.909,116.665c-28.611-16.9-64.15-16.897-92.758,0.008l-20.797-89.258
			c43.48-15.25,90.856-15.25,134.336,0L281.909,116.665z"/>
	</g>
</g>
<g>
	<g>
		<path d="M126.308,434.275l-10.344,10.344v-60.688h-16v60.688L89.62,434.274l-11.312,11.313l24,24
			c3.122,3.124,8.186,3.125,11.31,0.003c0.001-0.001,0.002-0.002,0.003-0.003l24-24L126.308,434.275z"/>
	</g>
</g>
<g>
	<g>
		<path d="M254.308,434.275l-10.344,10.344v-60.688h-16v60.688l-10.344-10.344l-11.312,11.313l24,24
			c3.122,3.124,8.186,3.125,11.31,0.003c0.001-0.001,0.002-0.002,0.003-0.003l24-24L254.308,434.275z"/>
	</g>
</g>
<g>
	<g>
		<path d="M382.308,434.275l-10.344,10.344v-60.688h-16v60.688l-10.344-10.344l-11.312,11.313l24,24
			c3.122,3.124,8.186,3.125,11.31,0.003c0.001-0.001,0.002-0.002,0.003-0.003l24-24L382.308,434.275z"/>
	</g>
</g>
<g>
</g>
<g>
</g>
<g>
</g>
<g>
</g>
<g>
</g>
<g>
</g>
<g>
</g>
<g>
</g>
<g>
</g>
<g>
</g>
<g>
</g>
<g>
</g>
<g>
</g>
<g>
</g>
<g>
</g>
</svg>
