<?xml version="1.0" encoding="iso-8859-1"?>
<!-- Generator: Adobe Illustrator 19.0.0, SVG Export Plug-In . SVG Version: 6.00 Build 0)  -->
<svg version="1.1" id="Capa_1" xmlns="http://www.w3.org/2000/svg" xmlns:xlink="http://www.w3.org/1999/xlink" x="0px" y="0px"
	 viewBox="0 0 480 480" style="enable-background:new 0 0 480 480;" xml:space="preserve">
<g>
	<g>
		<path d="M472.004,0c-0.001,0-0.003,0-0.004,0H8C3.583-0.001,0.001,3.579,0,7.996C0,7.997,0,7.999,0,8v464
			c-0.001,4.417,3.579,7.999,7.996,8c0.001,0,0.003,0,0.004,0h464c4.417,0.001,7.999-3.579,8-7.996c0-0.001,0-0.003,0-0.004V8
			C480.001,3.583,476.421,0.001,472.004,0z M16,16h216.007L232,72.57c-30.614,4.425-51.844,32.829-47.419,63.443
			c3.552,24.571,22.855,43.872,47.427,47.42l-0.003,48.57L175.43,232c-4.42-30.613-32.82-51.846-63.433-47.425
			c-24.576,3.549-43.881,22.857-47.426,47.433H16V16z M232.008,464H16V248.007L72.008,248c4.417,0.001,7.999-3.579,8-7.996
			c0-0.001,0-0.003,0-0.004c-0.042-22.089,17.831-40.03,39.92-40.072c22.089-0.042,40.03,17.831,40.072,39.92
			c0,0.053,0,0.107,0,0.16c0.001,4.418,3.582,7.999,8,8l64.003-0.003L232,296.57c-30.613,4.421-51.845,32.821-47.424,63.434
			c3.549,24.576,22.856,43.88,47.432,47.426V464z M464,464H248.007L248,400c-0.002-4.418-3.582-7.998-8-8
			c-22.091-0.002-39.998-17.913-39.996-40.004c0.002-22.091,17.913-39.998,40.004-39.996c4.418-0.001,7.999-3.582,8-8l-0.003-55.997
			L312,248c4.417,0.001,7.999-3.579,8-7.996c0-0.001,0-0.003,0-0.004c0.002-22.091,17.913-39.998,40.004-39.996
			c22.091,0.002,39.998,17.913,39.996,40.004c-0.001,4.417,3.579,7.999,7.996,8c0.001,0,0.003,0,0.004,0h56V464z M464,232.007
			L415.43,232c-4.42-30.613-32.82-51.846-63.433-47.425c-24.576,3.549-43.881,22.857-47.426,47.433l-56.567-0.003L248,176
			c0.001-4.417-3.579-7.999-7.996-8c-0.001,0-0.003,0-0.004,0c-22.091-0.002-39.998-17.913-39.996-40.004
			c0.002-22.091,17.913-39.998,40.004-39.996c4.417,0.001,7.999-3.579,8-7.996c0-0.001,0-0.003,0-0.004V16H464V232.007z"/>
	</g>
</g>
<g>
</g>
<g>
</g>
<g>
</g>
<g>
</g>
<g>
</g>
<g>
</g>
<g>
</g>
<g>
</g>
<g>
</g>
<g>
</g>
<g>
</g>
<g>
</g>
<g>
</g>
<g>
</g>
<g>
</g>
</svg>
