<?xml version="1.0" encoding="iso-8859-1"?>
<!-- Generator: Adobe Illustrator 19.0.0, SVG Export Plug-In . SVG Version: 6.00 Build 0)  -->
<svg version="1.1" id="Capa_1" xmlns="http://www.w3.org/2000/svg" xmlns:xlink="http://www.w3.org/1999/xlink" x="0px" y="0px"
	 viewBox="0 0 480.091 480.091" style="enable-background:new 0 0 480.091 480.091;" xml:space="preserve">
<g>
	<g>
		<path d="M472.05,368.091c-0.001,0-0.003,0-0.004,0h-29.523c22.104-14.613,28.176-44.378,13.563-66.481
			c-14.613-22.104-44.378-28.176-66.481-13.563c-3.993,2.64-7.569,5.863-10.608,9.561c-10.416-16.463-28.776-26.174-48.247-25.517
			H224.046v-120c0.051-17.622-14.193-31.949-31.815-32c-10.211-0.03-19.819,4.83-25.847,13.072l-52.385-36.669
			c-7.966-5.573-16.779-9.825-26.098-12.595c19.827-17.595,21.638-47.931,4.043-67.759C74.35-3.687,44.013-5.497,24.186,12.097
			C4.358,29.692,2.548,60.029,20.142,79.856c1.316,1.483,2.722,2.883,4.211,4.192C14.342,89.462,8.087,99.912,8.046,111.294v208.797
			c-4.417-0.001-7.999,3.579-8,7.996c0,0.001,0,0.003,0,0.004v152h16v-96h448v96h16v-104
			C480.047,371.674,476.467,368.092,472.05,368.091z M24.046,48.091c0-17.673,14.327-32,32-32s32,14.327,32,32s-14.327,32-32,32
			C38.38,80.072,24.064,65.756,24.046,48.091z M24.046,111.294c0.01-8.392,6.811-15.193,15.203-15.203H61.96
			c15.341-0.024,30.313,4.695,42.867,13.512l55.581,38.907c-0.189,1.186-0.31,2.382-0.362,3.581v18.215l-44.031-25.161
			c-3.836-2.192-8.723-0.859-10.915,2.977c-0.69,1.208-1.054,2.576-1.054,3.968v168h-32v-88h-16v88h-32V111.294z M160.046,188.733
			v131.358h-40V165.876L160.046,188.733z M368.046,339.931c0,15.527-16.734,28.16-37.297,28.16H16.046v-32h152
			c4.417,0.001,7.999-3.579,8-7.996c0-0.001,0-0.003,0-0.004v-176c0-8.837,7.163-16,16-16s16,7.163,16,16v128
			c-0.001,4.417,3.579,7.999,7.996,8c0.001,0,0.003,0,0.004,0h114.703c20.563,0,37.297,12.633,37.297,28.16V339.931z
			 M371.767,368.091c2.831-2.829,5.263-6.031,7.229-9.517c3.036,3.676,6.599,6.883,10.574,9.517H371.767z M416.046,360.091
			c-17.673,0-32-14.327-32-32c0-17.673,14.327-32,32-32c17.673,0,32,14.327,32,32C448.027,345.756,433.711,360.072,416.046,360.091z
			"/>
	</g>
</g>
<g>
</g>
<g>
</g>
<g>
</g>
<g>
</g>
<g>
</g>
<g>
</g>
<g>
</g>
<g>
</g>
<g>
</g>
<g>
</g>
<g>
</g>
<g>
</g>
<g>
</g>
<g>
</g>
<g>
</g>
</svg>
