<?xml version="1.0" encoding="iso-8859-1"?>
<!-- Generator: Adobe Illustrator 19.0.0, SVG Export Plug-In . SVG Version: 6.00 Build 0)  -->
<svg version="1.1" id="Capa_1" xmlns="http://www.w3.org/2000/svg" xmlns:xlink="http://www.w3.org/1999/xlink" x="0px" y="0px"
	 viewBox="0 0 480.853 480.853" style="enable-background:new 0 0 480.853 480.853;" xml:space="preserve">
<g>
	<g>
		<path d="M470.997,56.853c-0.001,0-0.003,0-0.004,0h-32c-4.417-0.001-7.999,3.579-8,7.996c0,0.001,0,0.003,0,0.004v16h-24v-40
			c0.001-4.417-3.579-7.999-7.996-8c-0.001,0-0.003,0-0.004,0h-48c-4.417-0.001-7.999,3.579-8,7.996c0,0.001,0,0.003,0,0.004v40
			h-20.451c2.882-4.842,4.419-10.365,4.451-16c0-17.673-14.327-32-32-32c-17.673,0-32,14.327-32,32
			c0.032,5.635,1.568,11.158,4.451,16h-52.989c4.883-39.466-23.152-75.417-62.617-80.3c-39.466-4.883-75.417,23.152-80.3,62.617
			c-3.517,28.422,10.145,56.227,34.793,70.81c-28.21,8.051-55.949,25.093-66.559,47.373c-0.23,0.48-0.411,0.983-0.539,1.5
			L2.625,329.329c-3.409,13.644,4.889,27.468,18.533,30.877s27.468-4.889,30.877-18.533l18.957-75.829v175.008
			c-0.001,4.417,3.579,7.999,7.996,8c0.001,0,0.003,0,0.004,0h120c4.417,0.001,7.999-3.579,8-7.996c0-0.001,0-0.003,0-0.004V265.845
			l18.957,75.836c1.859,7.497,7.037,13.736,14.063,16.945c13.037,5.876,28.369,0.07,34.245-12.967
			c2.207-4.896,2.836-10.357,1.802-15.627l-29.238-139.461c-0.075-0.372-0.179-0.737-0.309-1.094
			c-9.137-25.126-38.325-44.849-68.72-54.37c15.185-8.386,26.834-21.97,32.807-38.255h132.393v43.274
			c-23.666,17.524-40,53.723-40,95.562v237.164c-0.001,4.417,3.579,7.999,7.996,8c0.001,0,0.003,0,0.004,0h128
			c4.417,0.001,7.999-3.579,8-7.996c0-0.001,0-0.003,0-0.004V235.689c0-41.838-16.333-78.038-40-95.562V96.853h24v16
			c-0.001,4.417,3.579,7.999,7.996,8c0.001,0,0.003,0,0.004,0h32c4.417,0.001,7.999-3.579,8-7.996c0-0.001,0-0.003,0-0.004v-48
			C478.994,60.436,475.414,56.854,470.997,56.853z M231.286,194.439l29.113,138.875c0.858,4.397-1.423,8.807-5.508,10.648
			c-4.677,2.338-10.365,0.442-12.703-4.235c-0.307-0.615-0.547-1.262-0.714-1.929l-34.719-138.882
			c-1.07-4.287-5.413-6.894-9.7-5.824c-3.562,0.89-6.062,4.09-6.062,7.761v232h-104v-232c0-4.418-3.582-8-8.001-7.999
			c-3.672,0-6.872,2.5-7.761,6.062L36.512,337.79c-1.314,5.059-6.48,8.095-11.539,6.781c-4.992-1.297-8.026-6.351-6.824-11.366
			l36.402-145.664c12.605-25.196,54.969-42.688,85.539-42.688C173.723,144.853,220.649,166.47,231.286,194.439z M198.285,80.853
			h-24.767c-3.368-9.561-12.389-15.969-22.526-16h-16c-13.255,0-24,10.745-24,24s10.745,24,24,24h16
			c10.137-0.031,19.158-6.439,22.526-16h19.723c-9.446,19.118-28.924,31.22-50.249,31.219c-30.712-0.215-55.435-25.286-55.22-55.999
			c0.215-30.712,25.286-55.435,55.999-55.22c30.56,0.214,55.221,25.048,55.221,55.609C198.971,75.273,198.734,78.078,198.285,80.853
			z M158.993,88.853c-0.004,4.416-3.584,7.996-8,8h-16c-4.418,0-8-3.582-8-8s3.582-8,8-8h16
			C155.409,80.857,158.988,84.436,158.993,88.853z M294.993,80.853c-8.832-0.01-15.99-7.168-16-16c0-8.837,7.163-16,16-16
			s16,7.163,16,16S303.829,80.853,294.993,80.853z M358.993,48.853h32v82.751c-5.147-1.788-10.552-2.717-16-2.751
			c-5.448,0.034-10.853,0.964-16,2.751V48.853z M430.993,235.689v229.164h-112V235.689c0-50.086,25.121-90.836,56-90.836
			C405.872,144.853,430.993,185.603,430.993,235.689z M462.993,104.853h-16v-32h16V104.853z"/>
	</g>
</g>
<g>
</g>
<g>
</g>
<g>
</g>
<g>
</g>
<g>
</g>
<g>
</g>
<g>
</g>
<g>
</g>
<g>
</g>
<g>
</g>
<g>
</g>
<g>
</g>
<g>
</g>
<g>
</g>
<g>
</g>
</svg>
