<?xml version="1.0" encoding="iso-8859-1"?>
<!-- Generator: Adobe Illustrator 19.0.0, SVG Export Plug-In . SVG Version: 6.00 Build 0)  -->
<svg version="1.1" id="Capa_1" xmlns="http://www.w3.org/2000/svg" xmlns:xlink="http://www.w3.org/1999/xlink" x="0px" y="0px"
	 viewBox="0 0 480 480" style="enable-background:new 0 0 480 480;" xml:space="preserve">
<g>
	<g>
		<path d="M160.324,152.268C135.747,63.214,74.965,0,4,0v16c83.813,0,152,100.484,152,224S87.813,464,4,464v16
			c70.965,0,131.747-63.214,156.324-152.268C198.007,324.976,228,286.739,228,240C228,193.261,198.007,155.024,160.324,152.268z
			 M164.475,311.085c5.037-23.359,7.56-47.189,7.525-71.085c0.035-23.896-2.488-47.726-7.525-71.085
			C191.336,174.194,212,204.014,212,240S191.336,305.806,164.475,311.085z"/>
	</g>
</g>
<g>
	<g>
		<path d="M100,132c0,6.523-15.582,16-40,16c-24.418,0-40-9.477-40-16H4c0,18.242,24.074,32,56,32s56-13.758,56-32H100z"/>
	</g>
</g>
<g>
	<g>
		<path d="M92,336c0,7.152-1.531,23.707-15.625,23.996L4,360v16l71.75-0.004c0.09,0.004,0.223-0.008,0.266,0.004h0.117l1.731-0.004
			c0.553-0.001,1.104-0.059,1.645-0.172C96.938,374.035,108,358.805,108,336H92z"/>
	</g>
</g>
<g>
	<g>
		<path d="M468,0H356c-4.418,0-8,3.582-8,8v99.236c-5.059-2.151-10.503-3.252-16-3.236c-17.945,0-32,10.543-32,24s14.055,24,32,24
			c17.945,0,32-10.543,32-24V48h104c4.418,0,8-3.582,8-8V8C476,3.582,472.418,0,468,0z M332,136c-9.766,0-16-4.738-16-8
			s6.234-8,16-8c9.766,0,16,4.738,16,8S341.766,136,332,136z M460,32h-96V16h96V32z"/>
	</g>
</g>
<g>
	<g>
		<path d="M412,240H300c-4.418,0-8,3.582-8,8v99.236c-5.059-2.151-10.503-3.252-16-3.236c-17.945,0-32,10.543-32,24s14.055,24,32,24
			c17.945,0,32-10.543,32-24v-80h96v59.236c-5.059-2.151-10.503-3.252-16-3.236c-17.945,0-32,10.543-32,24s14.055,24,32,24
			c17.945,0,32-10.543,32-24V248C420,243.582,416.418,240,412,240z M276,376c-9.766,0-16-4.738-16-8c0-3.262,6.234-8,16-8
			c9.766,0,16,4.738,16,8C292,371.262,285.766,376,276,376z M388,376c-9.766,0-16-4.738-16-8c0-3.262,6.234-8,16-8
			c9.766,0,16,4.738,16,8C404,371.262,397.766,376,388,376z M404,272h-96v-16h96V272z"/>
	</g>
</g>
<g>
</g>
<g>
</g>
<g>
</g>
<g>
</g>
<g>
</g>
<g>
</g>
<g>
</g>
<g>
</g>
<g>
</g>
<g>
</g>
<g>
</g>
<g>
</g>
<g>
</g>
<g>
</g>
<g>
</g>
</svg>
