<?xml version="1.0" encoding="iso-8859-1"?>
<!-- Generator: Adobe Illustrator 19.0.0, SVG Export Plug-In . SVG Version: 6.00 Build 0)  -->
<svg version="1.1" id="Capa_1" xmlns="http://www.w3.org/2000/svg" xmlns:xlink="http://www.w3.org/1999/xlink" x="0px" y="0px"
	 viewBox="0 0 482 482" style="enable-background:new 0 0 482 482;" xml:space="preserve">
<g>
	<g>
		<path d="M243.094,0C109.602,0,1,104.949,1,233.949V298c-0.001,4.417,3.579,7.999,7.996,8c0.001,0,0.003,0,0.004,0h88v96
			c0,8,6.734,8,14.531,8h137.477v64c-0.001,4.417,3.579,7.999,7.996,8c0.001,0,0.003,0,0.004,0H473c4.417,0.001,7.999-3.579,8-7.996
			c0-0.001,0-0.003,0-0.004V233.949C481,104.949,374.273,0,243.094,0z M465,466H265.008v-64c-0.001-4.418-3.582-7.999-8-8H113v-96
			c0.001-4.417-3.579-7.999-7.996-8c-0.001,0-0.003,0-0.004,0H17v-56.051C17,113.773,118.422,16,243.094,16
			C365.453,16,465,113.773,465,233.949V466z"/>
	</g>
</g>
<g>
	<g>
		<path d="M113,202c0,13.255-10.745,24-24,24s-24-10.745-24-24H49c0,22.091,17.909,40,40,40s40-17.909,40-40H113z"/>
	</g>
</g>
<g>
	<g>
		<path d="M385,90c-24.19-0.58-47.951,6.456-67.925,20.113c-11.435-23.363-27.203-44.341-46.466-61.82
			c-3.087-3.033-8.027-3.061-11.148-0.063c-17.72,16.01-32.593,34.912-43.987,55.9C196.325,94.429,171.788,90,137,90
			c-4.417-0.001-7.999,3.579-8,7.996c0,0.001,0,0.003,0,0.004c0,107.834,37.182,150.691,132,151.886V250
			c0.666,0,1.264-0.055,1.925-0.06c0.712,0.004,1.357,0.06,2.075,0.06v-0.124C355.762,248.583,393,204.359,393,98
			C392.999,93.582,389.418,90.001,385,90z M145.07,106.09c22.14-0.642,44.136,3.771,64.315,12.902l0,0
			c-2.81,8.456-4.29,17.297-4.386,26.207c-0.156,28.145,13.706,55.79,44.507,88.401C174.949,229.565,146.652,194.452,145.07,106.09z
			 M221,145.289c0.141-24.539,14.141-50.098,43.938-80.02h0c30.156,30.91,44.195,56.922,44.062,81.445
			c-0.141,24.535-14.141,50.094-43.938,80.016C234.906,195.82,220.867,169.813,221,145.289z M281.158,233.092
			c29.654-31.085,43.688-58.761,43.842-86.287c0.02-7.143-0.859-14.261-2.616-21.185c15.98-11.491,34.891-18.216,54.538-19.393
			C375.338,191.109,348.378,227.403,281.158,233.092z"/>
	</g>
</g>
<g>
</g>
<g>
</g>
<g>
</g>
<g>
</g>
<g>
</g>
<g>
</g>
<g>
</g>
<g>
</g>
<g>
</g>
<g>
</g>
<g>
</g>
<g>
</g>
<g>
</g>
<g>
</g>
<g>
</g>
</svg>
