<?xml version="1.0" encoding="iso-8859-1"?>
<!-- Generator: Adobe Illustrator 19.0.0, SVG Export Plug-In . SVG Version: 6.00 Build 0)  -->
<svg version="1.1" id="Capa_1" xmlns="http://www.w3.org/2000/svg" xmlns:xlink="http://www.w3.org/1999/xlink" x="0px" y="0px"
	 viewBox="0 0 480 480" style="enable-background:new 0 0 480 480;" xml:space="preserve">
<g>
	<g>
		<path d="M472.009,0c-0.003,0-0.006,0-0.009,0H368c-4.416-0.003-7.997,3.575-8,7.991c0,0.003,0,0.006,0,0.009v220.203
			c0,74.883-43.742,117.828-120,117.828s-120-42.945-120-117.828V8c0.003-4.416-3.575-7.997-7.991-8c-0.003,0-0.006,0-0.009,0H8
			C3.584-0.003,0.003,3.575,0,7.991C0,7.994,0,7.997,0,8v264c0,122.469,98.695,208,240,208s240-85.531,240-208V8
			C480.003,3.584,476.425,0.003,472.009,0z M16,16h88v56H16V16z M464,272c0,113.047-92.109,192-224,192S16,385.047,16,272V88h88
			v140.203c0,83.797,50.844,133.828,136,133.828S376,312,376,228.203V88h88V272z M464,72h-88V16h88V72z"/>
	</g>
</g>
<g>
	<g>
		<path d="M308.439,161.344C307.125,160.468,305.58,160,304,160H190.945l55.711-83.563l-13.312-8.875l-64,96
			c-2.451,3.676-1.458,8.642,2.217,11.093C172.876,175.532,174.42,176,176,176h113.055l-55.711,83.562l13.312,8.875l64-96
			C313.107,168.762,312.115,163.795,308.439,161.344z"/>
	</g>
</g>
<g>
</g>
<g>
</g>
<g>
</g>
<g>
</g>
<g>
</g>
<g>
</g>
<g>
</g>
<g>
</g>
<g>
</g>
<g>
</g>
<g>
</g>
<g>
</g>
<g>
</g>
<g>
</g>
<g>
</g>
</svg>
