<?xml version="1.0" encoding="iso-8859-1"?>
<!-- Generator: Adobe Illustrator 19.0.0, SVG Export Plug-In . SVG Version: 6.00 Build 0)  -->
<svg version="1.1" id="Capa_1" xmlns="http://www.w3.org/2000/svg" xmlns:xlink="http://www.w3.org/1999/xlink" x="0px" y="0px"
	 viewBox="0 0 480 480" style="enable-background:new 0 0 480 480;" xml:space="preserve">
<g>
	<g>
		<path d="M436.523,320.03c-11.189,6.13-23.809,9.172-36.562,8.813c-12.751,0.359-25.368-2.683-36.555-8.813
			c-13.339-7.128-28.286-10.705-43.406-10.388v-97.87l131.047-78.625c15.889-9.538,21.038-30.151,11.5-46.04
			c-9.43-15.71-29.719-20.95-45.578-11.772l-131.117,75.906h-0.687c30.979-24.939,35.875-70.269,10.936-101.248
			c-24.939-30.979-70.269-35.875-101.248-10.936s-35.875,70.269-10.936,101.248c3.242,4.027,6.909,7.694,10.936,10.936h-0.635
			L55.289,67.881c-15.907-9.541-36.537-4.38-46.077,11.528c-9.446,15.749-4.491,36.165,11.124,45.832L160,211.67v97.971
			l-0.063-0.002c-15.136-0.325-30.101,3.253-43.453,10.391c-11.176,6.129-23.782,9.171-36.523,8.813
			c-12.741,0.358-25.348-2.683-36.523-8.813C30.091,312.893,15.131,309.315,0,309.639v16c12.738-0.357,25.342,2.684,36.516,8.813
			c13.349,7.136,28.312,10.715,43.445,10.391c15.134,0.328,30.097-3.251,43.445-10.391c11.179-6.129,23.788-9.171,36.531-8.813
			c12.749-0.36,25.363,2.682,36.547,8.813c13.353,7.141,28.322,10.719,43.461,10.391c15.136,0.325,30.101-3.253,43.453-10.391
			c11.179-6.129,23.788-9.171,36.531-8.813c12.751-0.359,25.368,2.683,36.555,8.813c27.332,13.854,59.629,13.854,86.961,0
			c11.187-6.13,23.804-9.171,36.555-8.813v-16C464.856,309.311,449.883,312.889,436.523,320.03z M184,95.241
			c0-30.928,25.072-56,56-56c30.928,0,56,25.072,56,56c0,30.919-25.058,55.987-55.977,56C209.104,151.211,184.043,126.16,184,95.241
			z M307.883,200.381c-2.409,1.446-3.883,4.05-3.883,6.859v103.575c-9.609,1.576-18.902,4.687-27.523,9.214
			c-11.179,6.129-23.788,9.171-36.531,8.813c-12.746,0.359-25.358-2.683-36.539-8.813c-8.587-4.505-17.839-7.608-27.406-9.192
			V207.209c-0.002-2.771-1.435-5.344-3.789-6.805L28.758,111.631c-8.256-5.113-10.805-15.951-5.692-24.207
			c0.37-0.598,0.776-1.173,1.215-1.722c5.503-6.86,15.223-8.611,22.773-4.102l140.828,84.5c1.243,0.748,2.666,1.143,4.117,1.141h96
			c1.407-0.002,2.79-0.374,4.008-1.078l132.977-76.984c8.394-4.854,19.134-1.983,23.987,6.411
			c4.797,8.296,2.055,18.905-6.159,23.839L307.883,200.381z"/>
	</g>
</g>
<g>
	<g>
		<path d="M436.523,376.03c-11.189,6.13-23.809,9.172-36.562,8.813c-12.751,0.359-25.368-2.683-36.555-8.813
			c-13.359-7.14-28.332-10.719-43.477-10.391c-15.136-0.325-30.101,3.253-43.453,10.391c-11.179,6.129-23.788,9.171-36.531,8.813
			c-12.746,0.359-25.358-2.683-36.539-8.813c-13.357-7.138-28.327-10.716-43.469-10.391c-15.136-0.325-30.101,3.253-43.453,10.391
			c-11.176,6.129-23.782,9.171-36.523,8.813c-12.741,0.358-25.348-2.683-36.523-8.813C30.091,368.893,15.131,365.315,0,365.639v16
			c12.738-0.357,25.342,2.684,36.516,8.813c13.349,7.136,28.312,10.715,43.445,10.391c15.134,0.328,30.097-3.251,43.445-10.391
			c11.179-6.129,23.788-9.171,36.531-8.813c12.749-0.36,25.363,2.682,36.547,8.813c13.353,7.141,28.322,10.719,43.461,10.391
			c15.136,0.325,30.101-3.253,43.453-10.391c11.179-6.129,23.788-9.171,36.531-8.813c12.751-0.359,25.368,2.683,36.555,8.813
			c27.332,13.854,59.629,13.854,86.961,0c11.187-6.13,23.804-9.171,36.555-8.813v-16
			C464.856,365.311,449.883,368.889,436.523,376.03z"/>
	</g>
</g>
<g>
	<g>
		<path d="M436.523,432.03c-11.189,6.13-23.809,9.172-36.562,8.813c-12.751,0.359-25.368-2.683-36.555-8.813
			c-13.359-7.14-28.332-10.719-43.477-10.391c-15.136-0.325-30.101,3.253-43.453,10.391c-11.179,6.129-23.788,9.171-36.531,8.813
			c-12.746,0.359-25.358-2.683-36.539-8.813c-13.357-7.138-28.327-10.716-43.469-10.391c-15.136-0.325-30.101,3.253-43.453,10.391
			c-11.176,6.129-23.782,9.171-36.523,8.813c-12.741,0.358-25.348-2.683-36.523-8.813C30.091,424.893,15.131,421.315,0,421.639v16
			c12.738-0.357,25.342,2.684,36.516,8.813c13.349,7.136,28.312,10.715,43.445,10.391c15.134,0.328,30.097-3.251,43.445-10.391
			c11.179-6.129,23.788-9.171,36.531-8.813c12.749-0.36,25.363,2.682,36.547,8.813c13.353,7.141,28.322,10.719,43.461,10.391
			c15.136,0.325,30.101-3.253,43.453-10.391c11.179-6.129,23.788-9.171,36.531-8.813c12.751-0.359,25.368,2.683,36.555,8.813
			c27.332,13.854,59.629,13.854,86.961,0c11.187-6.13,23.804-9.171,36.555-8.813v-16
			C464.856,421.311,449.883,424.889,436.523,432.03z"/>
	</g>
</g>
<g>
</g>
<g>
</g>
<g>
</g>
<g>
</g>
<g>
</g>
<g>
</g>
<g>
</g>
<g>
</g>
<g>
</g>
<g>
</g>
<g>
</g>
<g>
</g>
<g>
</g>
<g>
</g>
<g>
</g>
</svg>
