<?xml version="1.0" encoding="iso-8859-1"?>
<!-- Generator: Adobe Illustrator 19.0.0, SVG Export Plug-In . SVG Version: 6.00 Build 0)  -->
<svg version="1.1" id="Capa_1" xmlns="http://www.w3.org/2000/svg" xmlns:xlink="http://www.w3.org/1999/xlink" x="0px" y="0px"
	 viewBox="0 0 480 480" style="enable-background:new 0 0 480 480;" xml:space="preserve">
<g>
	<g>
		<path d="M434.945,157.236c11.767-6.016,16.429-20.432,10.413-32.199s-20.432-16.429-32.199-10.413
			c-5.467,2.795-9.65,7.584-11.684,13.377H262.526c-4.339-12.441-17.942-19.008-30.382-14.669
			c-6.871,2.396-12.273,7.798-14.669,14.669H78.526c-4.388-12.473-18.057-19.027-30.53-14.639
			c-12.473,4.388-19.027,18.057-14.639,30.53c2.122,6.031,6.568,10.963,12.347,13.697L16.41,245.469l15.18,5.063L56,177.297
			l24.41,73.234l15.18-5.063l-29.293-87.881c5.71-2.738,10.106-7.622,12.229-13.588h138.949c2.416,6.777,7.749,12.109,14.525,14.525
			V400h-16c-8.832,0.01-15.99,7.168-16,16v16h-24c-4.417-0.001-7.999,3.579-8,7.996c0,0.001,0,0.003,0,0.004v32
			c-0.001,4.417,3.579,7.999,7.996,8c0.001,0,0.003,0,0.004,0h128c4.417,0.001,7.999-3.579,8-7.996c0-0.001,0-0.003,0-0.004v-32
			c0.001-4.417-3.579-7.999-7.996-8c-0.001,0-0.003,0-0.004,0h-24v-16c-0.01-8.832-7.168-15.99-16-16h-16V158.526
			c6.777-2.416,12.11-7.749,14.526-14.526h138.949c2.044,5.719,6.183,10.45,11.581,13.235l-20.407,47.616l14.703,6.297L424,172.313
			l16.648,38.836l14.703-6.297L434.945,157.236z M56,144c-4.418,0-8-3.582-8-8c0.004-4.416,3.584-7.996,8-8c4.418,0,8,3.582,8,8
			S60.418,144,56,144z M296,448v16H184v-16H296z M264,416v16h-48v-16H264z M240,144c-4.418,0-8-3.582-8-8
			c0.004-4.416,3.584-7.996,8-8c4.418,0,8,3.582,8,8S244.418,144,240,144z M424,144c-4.418,0-8-3.582-8-8
			c0.004-4.416,3.584-7.996,8-8c4.418,0,8,3.582,8,8S428.418,144,424,144z"/>
	</g>
</g>
<g>
	<g>
		<path d="M293.659,50.347c-0.001-0.001-0.002-0.002-0.003-0.003l-48-48c-3.122-3.124-8.186-3.125-11.309-0.003
			c-0.001,0.001-0.002,0.002-0.003,0.003l-48,48c-3.124,3.122-3.125,8.186-0.003,11.309c0.001,0.001,0.002,0.002,0.003,0.003l48,48
			c3.122,3.124,8.186,3.125,11.31,0.003c0.001-0.001,0.002-0.002,0.003-0.003l48-48C296.78,58.534,296.781,53.471,293.659,50.347z
			 M240,92.688L203.313,56L240,19.313L276.688,56L240,92.688z"/>
	</g>
</g>
<g>
	<g>
		<path d="M152.004,216c-0.001,0-0.003,0-0.004,0h-48v16h28.687l-44.497,44.497c-19.563-17.823-49.87-16.414-67.694,3.149
			C3.901,297.862,3.826,325.696,20.324,344H8c-4.417-0.001-7.999,3.579-8,7.996c0,0.001,0,0.003,0,0.004c0,22.43,24.598,40,56,40
			s56-17.57,56-40c0.001-4.417-3.579-7.999-7.996-8c-0.001,0-0.003,0-0.004,0H91.676c13.597-15.056,16.208-37.056,6.513-54.876
			L144,243.313V272h16v-48C160.001,219.583,156.421,216.001,152.004,216z M56,280c17.673,0,32,14.327,32,32
			c0,17.673-14.327,32-32,32c-17.665-0.019-31.981-14.335-32-32C24,294.327,38.327,280,56,280z M93.621,360
			c-5.629,9.219-20.586,16-37.621,16s-31.992-6.781-37.621-16H93.621z"/>
	</g>
</g>
<g>
	<g>
		<path d="M472.004,344c-0.001,0-0.003,0-0.004,0h-40v-16h16v-16h-16v-16.809c21.645-4.418,35.61-25.547,31.192-47.192
			c-4.418-21.645-25.547-35.61-47.192-31.192c-21.645,4.418-35.61,25.547-31.192,47.192c3.207,15.709,15.483,27.985,31.192,31.192
			V312h-16v16h16v16h-40c-4.417-0.001-7.999,3.579-8,7.996c0,0.001,0,0.003,0,0.004c0,22.43,24.598,40,56,40
			c31.402,0,56-17.57,56-40C480.001,347.583,476.421,344.001,472.004,344z M400,256c0-13.255,10.745-24,24-24s24,10.745,24,24
			s-10.745,24-24,24C410.751,279.986,400.015,269.249,400,256z M424,376c-17.035,0-31.992-6.781-37.621-16h75.242
			C455.992,369.219,441.035,376,424,376z"/>
	</g>
</g>
<g>
</g>
<g>
</g>
<g>
</g>
<g>
</g>
<g>
</g>
<g>
</g>
<g>
</g>
<g>
</g>
<g>
</g>
<g>
</g>
<g>
</g>
<g>
</g>
<g>
</g>
<g>
</g>
<g>
</g>
</svg>
