<?xml version="1.0" encoding="iso-8859-1"?>
<!-- Generator: Adobe Illustrator 19.0.0, SVG Export Plug-In . SVG Version: 6.00 Build 0)  -->
<svg version="1.1" id="Capa_1" xmlns="http://www.w3.org/2000/svg" xmlns:xlink="http://www.w3.org/1999/xlink" x="0px" y="0px"
	 viewBox="0 0 480 480" style="enable-background:new 0 0 480 480;" xml:space="preserve">
<g>
	<g>
		<path d="M467.274,288.786c-1.737-1.086-3.592-1.969-5.529-2.634c-10.878-3.525-22.802,0.025-29.98,8.926l-20.223,24.266
			c-3.844,5.54-9.69,9.371-16.305,10.684l-56.535,9.426l18.606-7.266c10.34-2.579,16.632-13.052,14.053-23.392
			c-2.522-10.112-12.617-16.394-22.803-14.19l-110.43,22.383c-12.432,2.49-22.728,11.161-27.297,22.988l-50.215,129.125
			c-1.599,4.12,0.445,8.757,4.565,10.356c0.922,0.358,1.903,0.542,2.892,0.542h88c3.906,0,7.242-2.82,7.891-6.672l5.652-33.617
			c0.932-5.626,4.938-10.254,10.371-11.984l152.047-48.75c8.568-2.748,15.885-8.442,20.656-16.07l23.144-37.031
			C483.712,313.27,479.879,296.664,467.274,288.786z M463.356,315.088c-0.272,0.81-0.639,1.586-1.092,2.311l0,0l-23.145,37.027
			c-2.765,4.421-7.005,7.721-11.969,9.316l-152.047,48.75c-11.139,3.545-19.354,13.031-21.27,24.563L249.306,464h-69.539
			l45.977-118.227c2.605-6.742,8.475-11.685,15.562-13.105L351.81,310.27c1.818-0.399,3.622,0.73,4.059,2.539
			c0.183,0.833,0.022,1.705-0.445,2.418c-0.492,0.762-1.271,1.295-2.16,1.477c-0.425,0.09-0.841,0.214-1.246,0.371l-63.023,24.609
			c-5.713,2.23-8.536,8.668-6.307,14.381c1.91,4.894,6.988,7.779,12.17,6.916l103.012-17.172
			c10.385-1.954,19.653-7.745,25.961-16.223l20.227-24.27c2.917-3.776,7.847-5.384,12.43-4.055
			C462.201,303.183,465.277,309.373,463.356,315.088z"/>
	</g>
</g>
<g>
	<g>
		<path d="M467.529,110.953c-0.618-0.297-1.272-0.513-1.945-0.641c-16.471-4.248-33.419-6.368-50.43-6.309
			c-6.899,0.03-13.788,0.524-20.621,1.477c-28.61,2.883-54.543,18.091-71.027,41.652c-3.417,5.228-6.303,10.784-8.617,16.586
			c-2.382-6.097-5.395-11.928-8.989-17.399c-15.751-22.652-40.538-37.376-67.965-40.371c-6.613-0.953-13.284-1.446-19.965-1.477
			c-16.39,0.053-32.71,2.149-48.582,6.239c-3.823,0.676-6.609,3.997-6.609,7.879c-0.001,0.261,0.012,0.522,0.039,0.781
			c6.43,84.937,33.039,142.301,73.016,157.391c6.517,2.472,13.428,3.74,20.398,3.742c16.013,0,35.997-6.686,58.468-28.427
			c23.363,22.098,44.103,28.899,60.766,28.899c7.504-0.002,14.943-1.391,21.941-4.098c40.852-15.715,68.055-73.336,74.664-158.699
			v-0.023C472.067,115.082,470.301,112.282,467.529,110.953z M241.482,261.789c-29.9-11.282-52.454-57.74-60.646-122.796
			l115.375,108.22C281.402,259.456,261.746,269.457,241.482,261.789z M306.766,206.162c-0.033,8.932-0.887,17.843-2.553,26.619
			L187.429,123.239c10.037-1.864,20.227-2.79,30.436-2.766c5.94,0.024,11.871,0.46,17.75,1.305
			c22.94,2.398,43.723,14.596,57.001,33.457c9.438,14.74,14.367,31.914,14.183,49.416
			C306.791,205.155,306.768,205.654,306.766,206.162z M322.773,206.005c-0.002-0.446,0.03-0.909,0.023-1.353
			c-0.14-17.223,4.727-34.116,14.01-48.625c13.998-19.735,35.891-32.403,59.977-34.703c6.121-0.856,12.292-1.297,18.473-1.32
			c9.247-0.025,18.481,0.69,27.614,2.14l-117.492,110.58C323.667,223.92,322.795,214.974,322.773,206.005z M391.662,261.945
			c-21.646,8.315-42.609-2.084-58.298-14.765l121.188-114.06C446.683,201.938,423.642,249.641,391.662,261.945z"/>
	</g>
</g>
<g>
	<g>
		<path d="M192.857,0H0.072v16h192.785c13.03,0.235,23.414,10.969,23.215,24c0.199,13.031-10.185,23.765-23.215,24H0.072v16h96
			v88.719c-0.001,1.38,0.356,2.736,1.035,3.938L162.357,288h-50.285c-4.418,0-8,3.582-8,8v32h-56v16h56v56h-88c-4.418,0-8,3.582-8,8
			v72h16v-64h88c4.418,0,8-3.582,8-8V304h56c4.419,0,8.001-3.582,8-8.001c0-1.379-0.357-2.735-1.036-3.936l-70.965-125.449V80
			h80.785c21.863-0.243,39.405-18.136,39.215-40C232.262,18.136,214.72,0.243,192.857,0z"/>
	</g>
</g>
<g>
	<g>
		<path d="M72.264,134.258C69.245,145.081,59.195,152.419,47.967,152c-10.963,0.341-20.822-6.634-24.148-17.086l-15.492,4.008
			c5.055,17.584,21.347,29.535,39.637,29.078c18.713,0.391,35.238-12.136,39.918-30.258L72.264,134.258z"/>
	</g>
</g>
<g>
</g>
<g>
</g>
<g>
</g>
<g>
</g>
<g>
</g>
<g>
</g>
<g>
</g>
<g>
</g>
<g>
</g>
<g>
</g>
<g>
</g>
<g>
</g>
<g>
</g>
<g>
</g>
<g>
</g>
</svg>
