<?xml version="1.0" encoding="iso-8859-1"?>
<!-- Generator: Adobe Illustrator 19.0.0, SVG Export Plug-In . SVG Version: 6.00 Build 0)  -->
<svg version="1.1" id="Capa_1" xmlns="http://www.w3.org/2000/svg" xmlns:xlink="http://www.w3.org/1999/xlink" x="0px" y="0px"
	 viewBox="0 0 480.11 480.11" style="enable-background:new 0 0 480.11 480.11;" xml:space="preserve">
<g>
	<g>
		<path d="M184.059,256.11c-0.001,0-0.003,0-0.004,0h-11.804c-4.219-21.617-25.163-35.722-46.78-31.503
			c-12.463,2.432-23.023,10.654-28.436,22.14c-9.39-19.923-33.153-28.462-53.076-19.072c-11.486,5.413-19.707,15.973-22.139,28.435
			H8.055c-4.417-0.001-7.999,3.579-8,7.996c0,0.001,0,0.003,0,0.004v208c-0.001,4.417,3.579,7.999,7.996,8c0.001,0,0.003,0,0.004,0
			h176c4.417,0.001,7.999-3.579,8-7.996c0-0.001,0-0.003,0-0.004v-208C192.056,259.693,188.476,256.111,184.059,256.11z
			 M133.035,239.867c10.229,0.033,19.308,6.558,22.602,16.242h-45.203C113.727,246.425,122.806,239.901,133.035,239.867z
			 M61.035,239.867c10.229,0.033,19.308,6.558,22.602,16.242H38.434C41.727,246.425,50.806,239.901,61.035,239.867z M56.055,464.11
			h-40v-192h40V464.11z M120.055,464.11h-48v-192h48V464.11z M176.055,464.11h-40v-192h40V464.11z"/>
	</g>
</g>
<g>
	<g>
		<path d="M46.129,138.891c-7.432-6.556-8.143-17.895-1.587-25.327c0.495-0.562,1.026-1.092,1.587-1.587
			c6.385-6.296,9.964-14.9,9.926-23.867h-16c-0.016,5.143-2.226,10.034-6.074,13.445c-13.184,13.112-13.242,34.429-0.129,47.613
			c0.043,0.043,0.086,0.086,0.129,0.129c7.439,6.57,8.143,17.926,1.573,25.364c-0.491,0.556-1.017,1.082-1.573,1.573
			c-6.387,6.298-9.965,14.905-9.926,23.875h16c0.019-5.149,2.228-10.046,6.074-13.469c13.186-13.117,13.241-34.44,0.124-47.626
			C46.212,138.973,46.17,138.932,46.129,138.891z"/>
	</g>
</g>
<g>
	<g>
		<path d="M102.129,138.891c-7.432-6.556-8.143-17.895-1.587-25.327c0.495-0.562,1.026-1.092,1.587-1.587
			c6.385-6.296,9.964-14.9,9.926-23.867h-16c-0.016,5.143-2.226,10.034-6.074,13.445c-13.184,13.112-13.242,34.429-0.129,47.613
			c0.043,0.043,0.086,0.086,0.129,0.129c7.439,6.57,8.143,17.926,1.573,25.364c-0.491,0.556-1.017,1.082-1.573,1.573
			c-6.387,6.298-9.965,14.905-9.926,23.875h16c0.019-5.149,2.228-10.046,6.074-13.469c13.186-13.117,13.241-34.44,0.124-47.626
			C102.212,138.973,102.17,138.932,102.129,138.891z"/>
	</g>
</g>
<g>
	<g>
		<path d="M158.129,138.891c-7.432-6.556-8.143-17.895-1.587-25.327c0.495-0.562,1.026-1.092,1.587-1.587
			c6.385-6.296,9.964-14.9,9.926-23.867h-16c-0.016,5.143-2.226,10.034-6.074,13.445c-13.184,13.112-13.242,34.429-0.129,47.613
			c0.043,0.043,0.086,0.086,0.129,0.129c7.439,6.57,8.143,17.926,1.573,25.364c-0.491,0.556-1.017,1.082-1.573,1.573
			c-6.387,6.298-9.965,14.905-9.926,23.875h16c0.019-5.149,2.228-10.046,6.074-13.469c13.186-13.117,13.241-34.44,0.124-47.626
			C158.212,138.973,158.17,138.932,158.129,138.891z"/>
	</g>
</g>
<g>
	<g>
		<path d="M400.055,224.11v-72l39.203,29.398c9.796,7.354,23.699,5.374,31.053-4.422c3.926-5.23,5.344-11.927,3.875-18.299
			c-1.319-5.573-4.704-10.439-9.472-13.612l-88.117-61.88c19.491-17.97,20.724-48.339,2.754-67.83
			c-17.97-19.491-48.339-20.724-67.83-2.754c-19.491,17.97-20.724,48.339-2.754,67.83c0.079,0.086,0.159,0.172,0.239,0.257
			c-0.484,0.174-0.949,0.393-1.391,0.656l-92.565,61.766c-3.4,2.14-6.185,5.128-8.081,8.67c-4.203,8.009-3.478,17.713,1.868,25.009
			c7.419,10.159,21.534,12.652,31.984,5.648l47.235-31.492v73.055h-64v16h64v88.281c0.113,17.631,14.498,31.831,32.128,31.718
			c9.161-0.059,17.856-4.051,23.872-10.96c11.577,13.297,31.742,14.691,45.04,3.114c6.91-6.016,10.902-14.71,10.96-23.872V240.11h80
			v-16H400.055z M313.203,39.431c2.934-10.79,11.358-19.222,22.145-22.166c17.084-4.76,34.792,5.231,39.551,22.315
			c1.568,5.629,1.571,11.578,0.008,17.208c-2.934,10.79-11.358,19.222-22.145,22.166c-17.084,4.76-34.792-5.231-39.551-22.315
			C311.642,51.011,311.639,45.061,313.203,39.431z M336.055,328.391c-0.089,8.754-7.246,15.785-16,15.719
			c-8.754,0.067-15.911-6.965-16-15.719v-96.57c0.161-8.837,7.454-15.87,16.291-15.709c8.61,0.156,15.553,7.099,15.709,15.709
			V328.391z M384.055,328.391c-0.156,8.837-7.445,15.874-16.282,15.718c-8.617-0.152-15.567-7.101-15.718-15.718v-96.57
			c0.161-8.837,7.454-15.87,16.291-15.709c8.61,0.156,15.553,7.099,15.709,15.709V328.391z M396.856,129.711
			c-3.533-2.652-8.546-1.939-11.199,1.594c-1.04,1.386-1.603,3.072-1.602,4.804v68.412c-13.158-7.801-30.016-5.041-40,6.548
			c-9.984-11.589-26.842-14.349-40-6.548V136.11c0-4.418-3.581-8-7.999-8c-1.58,0-3.124,0.468-4.439,1.344l-59.672,39.781
			c-3.449,2.299-8.11,1.367-10.409-2.083c-1.072-1.609-1.483-3.569-1.145-5.472c0.348-2.02,1.516-3.807,3.227-4.938l90.863-60.633
			h52.523l89.117,62.586c2.733,1.942,3.439,5.698,1.598,8.5c-1.898,2.843-5.741,3.609-8.584,1.71
			c-0.093-0.062-0.185-0.127-0.275-0.195L396.856,129.711z"/>
	</g>
</g>
<g>
</g>
<g>
</g>
<g>
</g>
<g>
</g>
<g>
</g>
<g>
</g>
<g>
</g>
<g>
</g>
<g>
</g>
<g>
</g>
<g>
</g>
<g>
</g>
<g>
</g>
<g>
</g>
<g>
</g>
</svg>
