<?xml version="1.0" encoding="iso-8859-1"?>
<!-- Generator: Adobe Illustrator 19.0.0, SVG Export Plug-In . SVG Version: 6.00 Build 0)  -->
<svg version="1.1" id="Capa_1" xmlns="http://www.w3.org/2000/svg" xmlns:xlink="http://www.w3.org/1999/xlink" x="0px" y="0px"
	 viewBox="0 0 483.555 483.555" style="enable-background:new 0 0 483.555 483.555;" xml:space="preserve">
<g>
	<g>
		<path d="M117.777,93.781c0-26.742,14.039-52.094,45.531-82.219L152.246,0c-21.664,20.727-50.469,53-50.469,93.781
			c0,58.688,35.789,106.75,100.781,135.32l6.437-14.641C150.176,188.594,117.777,145.734,117.777,93.781z"/>
	</g>
</g>
<g>
	<g>
		<path d="M339.332,0.023l-11.109,11.516c26.32,25.406,37.555,50,37.555,82.242c0,57.016-46.93,107.75-122.445,132.383
			c-37.883,12.164-104.578,41.82-125.711,103.82c-4.813,13.739-7.459,28.143-7.844,42.695c0,35.258,20.289,78.219,50.492,106.898
			l11.016-11.594c-27.219-25.859-45.508-64.156-45.508-95.305c0.363-12.8,2.719-25.465,6.984-37.539
			c18.875-55.367,80.445-82.5,115.5-93.75c82.352-26.867,133.516-83.43,133.516-147.609
			C381.777,56.773,369.082,28.734,339.332,0.023z"/>
	</g>
</g>
<g>
	<g>
		<path d="M272.996,238.461l-6.437,14.64c62.125,27.336,99.219,73.641,99.219,123.867c0,30.234-18.727,69.313-45.539,95.039
			l11.078,11.547c29.711-28.508,50.461-72.336,50.461-106.586C381.777,320.211,341.113,268.43,272.996,238.461z"/>
	</g>
</g>
<g>
	<g>
		<rect x="165.777" y="21.781" width="160" height="16"/>
	</g>
</g>
<g>
	<g>
		<rect x="149.777" y="53.781" width="192" height="16"/>
	</g>
</g>
<g>
	<g>
		<rect x="133.777" y="85.781" width="216" height="16"/>
	</g>
</g>
<g>
	<g>
		<rect x="141.777" y="117.781" width="200" height="16"/>
	</g>
</g>
<g>
	<g>
		<rect x="157.777" y="149.781" width="168" height="16"/>
	</g>
</g>
<g>
	<g>
		<rect x="197.777" y="181.781" width="88" height="16"/>
	</g>
</g>
<g>
	<g>
		<rect x="173.777" y="437.781" width="144" height="16"/>
	</g>
</g>
<g>
	<g>
		<rect x="157.777" y="405.781" width="176" height="16"/>
	</g>
</g>
<g>
	<g>
		<rect x="141.777" y="373.781" width="208" height="16"/>
	</g>
</g>
<g>
	<g>
		<rect x="141.777" y="341.781" width="208" height="16"/>
	</g>
</g>
<g>
	<g>
		<rect x="157.777" y="309.781" width="176" height="16"/>
	</g>
</g>
<g>
	<g>
		<rect x="189.777" y="277.781" width="112" height="16"/>
	</g>
</g>
<g>
</g>
<g>
</g>
<g>
</g>
<g>
</g>
<g>
</g>
<g>
</g>
<g>
</g>
<g>
</g>
<g>
</g>
<g>
</g>
<g>
</g>
<g>
</g>
<g>
</g>
<g>
</g>
<g>
</g>
</svg>
