<?xml version="1.0" encoding="iso-8859-1"?>
<!-- Generator: Adobe Illustrator 19.0.0, SVG Export Plug-In . SVG Version: 6.00 Build 0)  -->
<svg version="1.1" id="Capa_1" xmlns="http://www.w3.org/2000/svg" xmlns:xlink="http://www.w3.org/1999/xlink" x="0px" y="0px"
	 viewBox="0 0 480 480" style="enable-background:new 0 0 480 480;" xml:space="preserve">
<g>
	<g>
		<path d="M72.18,230.204c-3.168,5.005-5.767,10.348-7.75,15.93l15.047,5.445c1.582-4.472,3.657-8.754,6.187-12.766L72.18,230.204z"
			/>
	</g>
</g>
<g>
	<g>
		<path d="M59.891,262.704c-1.016,5.078-1.836,10.645-2.445,16.555l15.922,1.641c0.555-5.414,1.297-10.484,2.211-15.07
			L59.891,262.704z"/>
	</g>
</g>
<g>
	<g>
		<path d="M98.055,206.024c-5.126,2.935-9.917,6.419-14.289,10.391l10.813,11.797c3.527-3.195,7.391-5.998,11.523-8.359
			L98.055,206.024z"/>
	</g>
</g>
<g>
	<g>
		<path d="M56.313,295.708c-0.211,5.136-0.315,10.574-0.313,16.312h16c0-5.516,0.099-10.737,0.297-15.664L56.313,295.708z"/>
	</g>
</g>
<g>
	<g>
		<path d="M54.781,197.485c-4.202,3.877-8.121,8.05-11.727,12.488l12.422,10.086c3.119-3.842,6.511-7.454,10.148-10.808
			L54.781,197.485z"/>
	</g>
</g>
<g>
	<g>
		<path d="M33.219,223.919c-2.932,4.837-5.567,9.847-7.891,15.004l14.578,6.594c2.057-4.563,4.389-8.997,6.985-13.277
			L33.219,223.919z"/>
	</g>
</g>
<g>
	<g>
		<path d="M19.219,254.614c-1.695,5.168-3.219,10.57-4.508,16.063l15.578,3.664c1.188-5.043,2.57-9.996,4.133-14.719L19.219,254.614
			z"/>
	</g>
</g>
<g>
	<g>
		<path d="M11.539,286.946c-0.844,5.269-1.531,10.724-2.063,16.363l15.922,1.523c0.508-5.297,1.154-10.423,1.938-15.379
			L11.539,286.946z"/>
	</g>
</g>
<g>
	<g>
		<path d="M8.344,319.676C8.109,324.977,7.995,330.425,8,336.02h16c0-5.359,0.109-10.575,0.328-15.648L8.344,319.676z"/>
	</g>
</g>
<g>
	<g>
		<path d="M82.688,178.055c-5.04,2.604-9.909,5.527-14.578,8.75l9.109,13.156c4.108-2.836,8.393-5.406,12.828-7.695L82.688,178.055z
			"/>
	</g>
</g>
<g>
	<g>
		<path d="M461.375,104.906c22.617-21.077,23.865-56.498,2.788-79.115c-21.077-22.617-56.498-23.865-79.115-2.788
			c-22.617,21.077-23.865,56.498-2.788,79.115c0.604,0.648,1.224,1.282,1.858,1.901H280.844c-6.793-0.065-13.351,2.479-18.323,7.107
			c-6.156-5.522-14.513-7.899-22.653-6.443c-6.717,0.99-13.139,3.424-18.824,7.135c-8.415-5.627-19.546-4.968-27.239,1.611
			l-26.547,22.285c-9.798,8.375-11.233,22.993-3.25,33.113l16.023,20.113l-43.124-9.583c0.841-6.672-1.31-13.374-5.875-18.311
			c-3.579-3.66-8.635-5.483-13.727-4.949c-11.793,2.304-20.513,12.326-21.164,24.324c-0.911,6.757,1.243,13.567,5.875,18.57
			c3.165,3.23,7.501,5.044,12.023,5.031c0.563,0,1.133-0.027,1.711-0.082c6.217-0.874,11.781-4.316,15.34-9.488l64.805,14.401
			l8.3,10.419c3.866,4.898,9.557,8.014,15.766,8.633c0.781,0.078,1.555,0.117,2.32,0.117c5.399-0.003,10.623-1.92,14.742-5.41
			v-0.004l26.547-22.285c9.798-8.375,11.233-22.993,3.25-33.113l-9.938-12.475c2.642-2.6,4.997-5.475,7.025-8.577
			c4.808,3.835,10.787,5.904,16.937,5.86H360v292c0,15.464,12.536,28,28,28c15.464,0,28-12.536,28-28v-148h8v148
			c0,15.464,12.536,28,28,28c15.464,0,28-12.536,28-28V127.665C479.746,116.705,472.068,107.323,461.375,104.906z M120.984,178.055
			c-0.108,4.356-2.749,8.248-6.758,9.957c-0.334,0.076-0.681-0.049-0.891-0.32c-1.19-1.65-1.651-3.716-1.273-5.715
			c0.103-4.356,2.746-8.248,6.758-9.949l0.188-0.012c0.272,0,0.53,0.122,0.703,0.332C120.9,173.996,121.361,176.059,120.984,178.055
			z M241.984,120.544c3.707-0.89,7.613,0.154,10.383,2.773c3.43,4.18,0.594,11.133-3.898,16.824l-14.492-17.242
			C236.521,121.74,239.217,120.947,241.984,120.544z M253.273,188.075l-26.531,22.285c-1.43,1.236-3.308,1.825-5.187,1.625
			c-1.912-0.2-3.661-1.168-4.844-2.684l-40.188-50.438c-2.641-3.32-2.186-8.133,1.031-10.898l26.531-22.281
			c1.256-1.07,2.85-1.659,4.5-1.664c0.23,0,0.459,0.012,0.688,0.035c1.912,0.2,3.661,1.168,4.844,2.684l40.188,50.437
			C256.946,180.496,256.49,185.31,253.273,188.075z M383.234,64.02c0-22.091,17.909-40,40-40c22.091,0,40,17.909,40,40
			s-17.909,40-40,40C401.154,103.994,383.26,86.101,383.234,64.02z M464,444.02c0,6.627-5.373,12-12,12c-6.627,0-12-5.373-12-12
			v-156c0.001-4.417-3.579-7.999-7.996-8c-0.001,0-0.003,0-0.004,0h-24c-4.417-0.001-7.999,3.579-8,7.996c0,0.001,0,0.003,0,0.004
			v156c0,6.627-5.373,12-12,12c-6.627,0-12-5.373-12-12v-300c0.001-4.417-3.579-7.999-7.996-8c-0.001,0-0.003,0-0.004,0h-87.156
			c-5.062,0-8.844-2.902-8.844-5.5v-5c0-2.598,3.781-5.5,8.844-5.5h174.109c4.597-0.349,8.624,3.054,9.047,7.645V444.02z"/>
	</g>
</g>
<g>
	<g>
		<path d="M342.266,389.809c3.495-4.98,5.386-10.908,5.422-16.992c0-16.262-13.93-30.227-33.242-34.238
			c-6.952-17.034-24.006-27.725-42.367-26.559c-16.404-0.713-31.881,7.612-40.328,21.691c-16.653,1.027-30.449,13.296-33.414,29.715
			c-12.979,4.076-21.946,15.933-22.336,29.531c0.085,10.11,5.166,19.524,13.57,25.144c-0.07,0.984-0.102,1.961-0.102,2.926
			c-0.962,21.432,15.552,39.624,36.977,40.734c5.789-0.013,11.48-1.496,16.539-4.309c12.747,16.426,36.395,19.409,52.821,6.662
			c4.561-3.539,8.247-8.08,10.773-13.271c2.042,0.315,4.105,0.473,6.172,0.473c21.066,0.554,38.614-16.03,39.25-37.094
			C351.952,405.148,348.475,396.427,342.266,389.809z M312.75,435.317c-2.853-0.006-5.685-0.495-8.375-1.445
			c-4.165-1.46-8.726,0.733-10.186,4.898c-0.048,0.138-0.093,0.278-0.134,0.419c-2.564,9.782-11.326,16.662-21.438,16.832
			c-8.774-0.108-16.662-5.37-20.133-13.43c-1.841-4.013-6.586-5.773-10.598-3.932c-0.818,0.375-1.566,0.886-2.214,1.51
			c-3.51,3.519-8.257,5.527-13.227,5.594c-12.573-1.133-21.912-12.144-20.977-24.734c0.009-1.895,0.2-3.786,0.57-5.645
			c0.708-3.615-1.143-7.246-4.484-8.797c-5.583-2.275-9.32-7.605-9.555-13.629c0.616-8.177,7.12-14.673,15.297-15.281
			c4.313-0.581,7.373-4.499,6.891-8.824c-0.063-0.543-0.094-1.09-0.094-1.637c1.341-10.9,11.104-18.76,22.039-17.742
			c0.062,0.004,0.797,0.043,0.859,0.043c3.662,0.245,6.975-2.166,7.867-5.727c2.703-9.137,14.149-15.77,27.219-15.77
			c14.555,0,26.734,8.078,27.727,18.395c0.366,3.813,3.383,6.831,7.195,7.199c13.844,1.332,24.688,9.766,24.688,19.203
			c-0.227,4.603-2.424,8.886-6.031,11.754c-3.321,2.906-3.657,7.955-0.75,11.276c0.463,0.529,0.994,0.995,1.578,1.385
			c5.847,3.685,9.429,10.081,9.516,16.992C335.363,426.449,324.98,435.87,312.75,435.317z"/>
	</g>
</g>
<g>
	<g>
		<path d="M166.266,389.809c3.495-4.98,5.386-10.908,5.422-16.992c0-16.262-13.93-30.227-33.242-34.238
			c-6.952-17.034-24.006-27.725-42.367-26.559c-16.404-0.713-31.881,7.612-40.328,21.691c-16.653,1.027-30.45,13.296-33.414,29.715
			C9.357,367.503,0.39,379.359,0,392.958c0.085,10.11,5.166,19.524,13.57,25.144c-0.07,0.984-0.102,1.961-0.102,2.926
			c-0.962,21.432,15.551,39.624,36.977,40.734c5.789-0.013,11.479-1.496,16.539-4.309c12.747,16.426,36.395,19.409,52.821,6.662
			c4.561-3.539,8.247-8.08,10.773-13.271c2.042,0.315,4.106,0.473,6.172,0.473c21.066,0.554,38.614-16.03,39.25-37.094
			C175.952,405.148,172.475,396.427,166.266,389.809z M136.75,435.317c-2.853-0.006-5.685-0.495-8.375-1.445
			c-4.165-1.46-8.726,0.733-10.186,4.898c-0.049,0.138-0.093,0.278-0.134,0.419c-2.564,9.782-11.326,16.662-21.438,16.832
			c-8.774-0.108-16.662-5.37-20.133-13.43c-1.841-4.012-6.586-5.773-10.599-3.932c-0.818,0.375-1.566,0.886-2.214,1.51
			c-3.51,3.519-8.257,5.527-13.227,5.594c-12.574-1.133-21.912-12.144-20.977-24.734c0.009-1.895,0.2-3.786,0.57-5.645
			c0.708-3.615-1.143-7.246-4.484-8.797c-5.583-2.275-9.32-7.605-9.555-13.629c0.616-8.177,7.12-14.673,15.297-15.281
			c4.313-0.581,7.373-4.499,6.891-8.824c-0.063-0.543-0.094-1.09-0.094-1.637c1.341-10.9,11.104-18.76,22.039-17.742
			c0.062,0.004,0.797,0.043,0.859,0.043c3.66,0.236,6.967-2.172,7.867-5.727c2.703-9.137,14.149-15.77,27.219-15.77
			c14.555,0,26.734,8.078,27.727,18.395c0.366,3.813,3.383,6.831,7.195,7.199c13.844,1.332,24.688,9.766,24.688,19.203
			c-0.227,4.603-2.424,8.886-6.031,11.754c-3.321,2.906-3.657,7.955-0.75,11.276c0.463,0.529,0.994,0.995,1.578,1.385
			c5.847,3.685,9.429,10.081,9.516,16.992C159.363,426.449,148.98,435.87,136.75,435.317z"/>
	</g>
</g>
<g>
</g>
<g>
</g>
<g>
</g>
<g>
</g>
<g>
</g>
<g>
</g>
<g>
</g>
<g>
</g>
<g>
</g>
<g>
</g>
<g>
</g>
<g>
</g>
<g>
</g>
<g>
</g>
<g>
</g>
</svg>
