<?xml version="1.0" encoding="iso-8859-1"?>
<!-- Generator: Adobe Illustrator 19.0.0, SVG Export Plug-In . SVG Version: 6.00 Build 0)  -->
<svg version="1.1" id="Capa_1" xmlns="http://www.w3.org/2000/svg" xmlns:xlink="http://www.w3.org/1999/xlink" x="0px" y="0px"
	 viewBox="0 0 480.008 480.008" style="enable-background:new 0 0 480.008 480.008;" xml:space="preserve">
<g>
	<g>
		<path d="M472.008,120.004c-0.032-0.84-0.2-1.67-0.496-2.457c11.966-12.913,11.199-33.081-1.714-45.048
			c-5.926-5.491-13.715-8.528-21.794-8.496c-17.666,0.023-31.98,14.342-31.996,32.008c0.032,5.632,1.568,11.153,4.448,15.992
			h-47.829l-7.045-57.984c-0.179-1.476-0.768-2.872-1.699-4.031L326.25,3.004l-12.484,10l36.207,45.211l6.536,53.789h-36.5
			c-4.417-0.001-7.999,3.579-8,7.996c0,0.001,0,0.003,0,0.004c0,101.179,31.034,181.739,72,191.079v49.445
			c-24.878,2.976-44,19.519-44,39.476c-0.001,4.417,3.579,7.999,7.996,8c0.001,0,0.003,0,0.004,0h88
			c4.417,0.001,7.999-3.579,8-7.996c0-0.001,0-0.003,0-0.004c0-19.957-19.122-36.5-44-39.476v-49.447
			C440.975,301.726,472.008,221.172,472.008,120.004z M448,80.004c8.837-0.004,16.004,7.155,16.008,15.992
			c0.004,8.837-7.155,16.004-15.992,16.008c-0.004,0-0.008,0-0.012,0c-8.828-0.013-15.981-7.164-15.996-15.992
			C432.004,87.175,439.163,80.008,448,80.004z M425.867,392.004h-67.719c7.791-10.793,20.574-16.834,33.859-16
			C405.293,375.17,418.076,381.211,425.867,392.004z M392,296.004c-29.48,0-62.246-68.586-63.926-168h30.378l3.888,32h-26.332v16
			h28.276l11.782,96.969l15.883-1.937l-11.546-95.031h67.605v-16h-69.549l-3.888-32h81.37
			C454.262,227.418,421.488,296.004,392,296.004z"/>
	</g>
</g>
<g>
	<g>
		<path d="M320.008,420.135V342.41c-0.237-21.412-17.76-38.591-39.172-38.406h-5.279c2.882-4.842,4.419-10.365,4.451-16
			c-0.045-14.423-9.747-27.028-23.679-30.764c2.397-27.691,19.262-49.236,39.679-49.236v-16c-29.055,0-52.997,28.599-55.726,65.051
			c-14.229,3.532-24.234,16.288-24.274,30.949c0.032,5.635,1.568,11.158,4.451,16h-5.279c-21.412-0.185-38.934,16.995-39.172,38.406
			v77.731c-63.802,7.934-64,22.317-64,27.862c0,30.461,113.289,32,136,32c22.711,0,136-1.539,136-32
			C384.008,442.459,383.811,428.07,320.008,420.135z M248.008,272.004c8.837,0,16,7.163,16,16s-7.163,16-16,16
			c-8.832-0.01-15.99-7.168-16-16C232.008,279.167,239.171,272.004,248.008,272.004z M192.008,342.41
			c0.23-12.578,10.593-22.599,23.172-22.406h65.656c12.579-0.193,22.942,9.828,23.172,22.406v89.594h-112V342.41z M248.008,464.004
			c-69.59,0-109.66-9.82-118.719-15.961c4.379-2.886,17.442-7.997,46.719-11.803v3.764c-0.001,4.417,3.579,7.999,7.996,8
			c0.001,0,0.003,0,0.004,0h128c4.417,0.001,7.999-3.579,8-7.996c0-0.001,0-0.003,0-0.004v-3.771
			c29.278,3.807,42.34,8.924,46.723,11.81C357.672,454.184,317.602,464.004,248.008,464.004z"/>
	</g>
</g>
<g>
	<g>
		<path d="M182.586,291.449l-70.578-101.945v-85.5c0-30.156-48.473-104-112-104v16c40.562,0,73.373,36.504,87.89,64h-9.713
			c-9.419-23.837-55.38-56-78.177-56v16c15.692,0,49.139,24.784,60.259,40H45.422c-8.257-14.591-34.573-32-45.414-32L0,64.004
			c9.49,3.354,18.092,8.826,25.152,16H0.008v16h94.58c0.819,2.594,1.297,5.283,1.42,8v88c0,1.627,0.496,3.216,1.422,4.555
			l63.309,91.445h-48.73c-4.417-0.001-7.999,3.579-8,7.996c0,0.001,0,0.003,0,0.004v40h-40c-8.832-0.01-15.99-7.168-16-16h-16
			c0.019,17.665,14.335,31.981,32,32h40v48h-88c-4.417-0.001-7.999,3.579-8,7.996c0,0.001,0,0.003,0,0.004v72h16v-64h88
			c4.417,0.001,7.999-3.579,8-7.996c0-0.001,0-0.003,0-0.004v-104h56c4.419-0.001,8.001-3.585,8-8.005
			C184.007,294.374,183.511,292.786,182.586,291.449z"/>
	</g>
</g>
<g>
	<g>
		<path d="M64.008,160.004c0,13.255-10.745,24-24,24s-24-10.745-24-24h-16c0.026,22.081,17.919,39.974,40,40
			c22.081-0.026,39.974-17.919,40-40H64.008z"/>
	</g>
</g>
<g>
</g>
<g>
</g>
<g>
</g>
<g>
</g>
<g>
</g>
<g>
</g>
<g>
</g>
<g>
</g>
<g>
</g>
<g>
</g>
<g>
</g>
<g>
</g>
<g>
</g>
<g>
</g>
<g>
</g>
</svg>
