<?xml version="1.0" encoding="iso-8859-1"?>
<!-- Generator: Adobe Illustrator 19.0.0, SVG Export Plug-In . SVG Version: 6.00 Build 0)  -->
<svg version="1.1" id="Capa_1" xmlns="http://www.w3.org/2000/svg" xmlns:xlink="http://www.w3.org/1999/xlink" x="0px" y="0px"
	 viewBox="0 0 480 480" style="enable-background:new 0 0 480 480;" xml:space="preserve">
<g>
	<g>
		<path d="M480,343.976l-0.551-161.723c-0.068-32.307-16.312-59.489-38.282-67.67c19.139-18.307,19.813-48.662,1.506-67.801
			C433.622,37.32,421.095,31.971,408,31.976h-0.102c-26.51,0.056-47.955,21.592-47.899,48.102
			c0.027,12.732,5.111,24.931,14.133,33.914c1.144,1.138,2.333,2.211,3.569,3.217c-3.329,1.651-6.426,3.735-9.21,6.197
			l-94.02,74.125c-12.195,9.601-14.299,27.27-4.698,39.465c4.463,5.669,10.935,9.404,18.076,10.433
			c-1.255,33.488-10.816,56.403-19.318,62.737c2.248-4.394,3.436-9.254,3.467-14.189c0-17.673-14.327-32-32-32
			c-17.673,0-32,14.327-32,32c0.032,4.936,1.219,9.795,3.467,14.189c-8.443-6.29-17.94-28.92-19.3-62.031
			c15.405,1.91,29.441-9.03,31.351-24.434c1.261-10.17-3.114-20.221-11.416-26.229l-98.32-71.25
			c-5.001-4.779-10.92-8.493-17.399-10.917c19.521-17.905,20.831-48.245,2.926-67.766c-17.905-19.521-48.245-20.831-67.766-2.926
			c-19.521,17.905-20.831,48.245-2.926,67.766c1.481,1.615,3.072,3.127,4.76,4.524C13.689,127.531,0,154.539,0,187.07v276.934
			c0.001,4.418,3.582,7.999,8,8h0.004l96-0.027c4.417-0.002,7.996-3.583,7.996-8V192.105l64.015,48.648
			c0.139,36.232,10.386,74.092,29.446,84.423c-3.726,7.311-5.601,15.424-5.461,23.628v115.199c0,4.418,3.582,8,8,8h64
			c4.418,0,8-3.582,8-8V348.804c0.14-8.204-1.735-16.317-5.461-23.628c18.314-9.927,28.468-45.26,29.359-80.159
			c1.812-0.848,3.528-1.886,5.122-3.095l43.758-33.613L352,343.957c-0.025,4.419,3.538,8.022,7.958,8.047c0.014,0,0.028,0,0.042,0
			v96c0,13.255,10.745,24,24,24s24-10.745,24-24v-96h16v96c0,13.255,10.745,24,24,24s24-10.745,24-24v-96
			c4.416,0.003,7.998-3.575,8-7.991C480,344,480,343.988,480,343.976z M32,79.976c0-17.673,14.327-32,32-32s32,14.327,32,32
			s-14.327,32-32,32C46.335,111.956,32.02,97.641,32,79.976z M108.84,169.609c-3.515-2.675-8.532-1.993-11.207,1.521
			c-1.06,1.393-1.634,3.095-1.633,4.846V455.98l-32,0.008V296.004H48v159.988L16,456V187.07c0-32.016,16.523-59.066,36.078-59.066
			h26.246c9.241-0.023,18.119,3.598,24.707,10.078c0.281,0.277,0.582,0.532,0.902,0.762l98.777,71.582
			c5.439,3.945,6.651,11.553,2.706,16.992c-3.825,5.274-11.127,6.599-16.561,3.004L108.84,169.609z M240,279.976
			c8.837,0,16,7.163,16,16s-7.163,16-16,16s-16-7.163-16-16C224.009,287.143,231.167,279.985,240,279.976z M264,456.003h-16v-64h-16
			v64h-16V348.804c0-13.512,5.68-20.801,8-20.801h32c2.32,0,8,7.289,8,20.801V456.003z M376,80.046
			c-0.02-17.665,14.264-32.013,31.93-32.07H408c17.673-0.021,32.017,14.29,32.037,31.963c0.02,17.673-14.29,32.017-31.963,32.037
			h-0.07C390.357,111.978,376.04,97.693,376,80.046z M392,448.003c0,4.418-3.582,8-8,8s-8-3.582-8-8v-96h16V448.003z M456,448.003
			c0,4.418-3.582,8-8,8s-8-3.582-8-8v-96h16V448.003z M368.047,336.003l0.824-143.953c0.025-4.419-3.537-8.021-7.956-8.046
			c-1.778-0.01-3.509,0.573-4.919,1.656l-56.723,43.574c-5.312,4.079-12.925,3.078-17.004-2.234
			c-4.041-5.263-3.101-12.797,2.109-16.907l94.461-74.496c5.315-4.86,12.255-7.556,19.457-7.559l29.063-0.035h0.051
			c19.477,0,35.977,24.844,36.039,54.293l0.523,153.707L368.047,336.003z"/>
	</g>
</g>
<g>
	<g>
		<path d="M287.141,17.367c-0.113-0.114-0.226-0.228-0.34-0.34c-12.27-12.042-31.923-12.04-44.191,0.004L240,19.609l-2.613-2.582
			c-12.269-12.039-31.918-12.039-44.188,0c-12.134,11.95-12.284,31.474-0.334,43.608c0.11,0.112,0.222,0.223,0.334,0.334
			l41.176,40.699c3.118,3.078,8.132,3.078,11.25,0l41.172-40.699C298.932,49.023,299.086,29.502,287.141,17.367z M275.551,49.586
			L240,84.726l-35.555-35.141c-5.847-5.734-5.938-15.121-0.204-20.968c0.069-0.07,0.138-0.139,0.208-0.208
			c6.022-5.91,15.667-5.912,21.691-0.004l8.234,8.141c3.115,3.086,8.135,3.086,11.25,0l8.23-8.137c6.024-5.91,15.671-5.91,21.695,0
			c2.85,2.786,4.455,6.605,4.449,10.59C280.004,42.984,278.4,46.8,275.551,49.586z"/>
	</g>
</g>
<g>
</g>
<g>
</g>
<g>
</g>
<g>
</g>
<g>
</g>
<g>
</g>
<g>
</g>
<g>
</g>
<g>
</g>
<g>
</g>
<g>
</g>
<g>
</g>
<g>
</g>
<g>
</g>
<g>
</g>
</svg>
