<?xml version="1.0" encoding="iso-8859-1"?>
<!-- Generator: Adobe Illustrator 19.0.0, SVG Export Plug-In . SVG Version: 6.00 Build 0)  -->
<svg version="1.1" id="Capa_1" xmlns="http://www.w3.org/2000/svg" xmlns:xlink="http://www.w3.org/1999/xlink" x="0px" y="0px"
	 viewBox="0 0 479.977 479.977" style="enable-background:new 0 0 479.977 479.977;" xml:space="preserve">
<g>
	<g>
		<path d="M258.59,118.484c4.92-5.748,6.786-13.506,5.02-20.863c-1.671-7.252-6.765-13.237-13.657-16.047
			c-8.683-3.352-18.534-0.995-24.758,5.926l-51.803,55.701c8.426-25.13-5.115-52.333-30.245-60.759
			c-25.13-8.426-52.333,5.115-60.759,30.245c-6.763,20.171,0.56,42.388,17.993,54.582h-1.299
			c-11.024-0.737-21.78,3.61-29.195,11.801c-0.336,0.354-0.64,0.739-0.906,1.148L4.593,278.895
			c-4.124,6.352-5.377,14.148-3.453,21.473c1.834,7.115,6.58,13.129,13.074,16.566c11.78,6.192,26.347,2.033,33.082-9.446
			l32.648-53.57v57.277L51.687,450.152c-1.601,7.076,0.063,14.496,4.531,20.211c4.007,5.055,10.101,8.004,16.551,8.012
			c13.4-0.234,24.807-9.818,27.348-22.977L121.683,344h26.316l24.477,116.238c1.361,6.694,5.402,12.539,11.184,16.176
			c3.722,2.332,8.026,3.566,12.418,3.562c2.168-0.005,4.326-0.289,6.422-0.844c12.832-3.517,20.633-16.499,17.715-29.48
			l-28.375-138.465V195.832L258.59,118.484z M95.898,128.004c0.018-17.666,14.334-31.983,32-32.004c17.673,0,32,14.327,32,32
			s-14.327,32-32,32C110.226,160,95.9,145.675,95.898,128.004z M176.003,313.605l28.551,139.316
			c1.087,4.756-1.762,9.526-6.465,10.824c-2.039,0.537-4.21,0.202-5.992-0.926c-2.072-1.315-3.505-3.432-3.957-5.844l-25.82-122.624
			c-0.779-3.702-4.045-6.353-7.828-6.352h-39.406c-3.832,0.001-7.126,2.718-7.856,6.48l-22.828,117.91
			c-1.308,5.427-5.906,9.432-11.461,9.984c-1.653,0.028-3.224-0.721-4.242-2.023c-1.453-2.007-1.945-4.553-1.344-6.957
			l28.43-139.801c0.106-0.525,0.16-1.058,0.16-1.593v-86.582c0.001-4.418-3.58-8.001-7.998-8.002
			c-2.792-0.001-5.382,1.454-6.834,3.838l-47.48,77.906c-2.403,4.212-7.692,5.793-12.012,3.59c-2.51-1.331-4.33-3.673-5-6.434
			c-0.785-2.957-0.287-6.109,1.371-8.68l63.965-98.031c4.379-4.711,10.734-7.063,17.125-6.336h55.41
			c2.222-0.001,4.344-0.925,5.859-2.551l76.559-82.32c1.674-2.041,4.427-2.849,6.938-2.035c2.128,0.866,3.696,2.719,4.199,4.961
			c0.58,2.358-0.002,4.851-1.566,6.707l-68.695,79.598c-1.254,1.453-1.945,3.307-1.945,5.227V312
			C175.839,312.539,175.894,313.077,176.003,313.605z"/>
	</g>
</g>
<g>
	<g>
		<path d="M474.226,118.484c4.92-5.748,6.786-13.506,5.02-20.863c-1.671-7.252-6.765-13.237-13.656-16.047
			c-8.683-3.336-18.523-0.98-24.754,5.926l-51.811,55.708c8.43-25.129-5.107-52.333-30.236-60.763
			c-25.129-8.43-52.333,5.107-60.763,30.236c-6.767,20.172,0.556,42.392,17.991,54.588h-1.299
			c-11.023-0.737-21.777,3.611-29.192,11.801c-0.336,0.354-0.64,0.739-0.906,1.148l-64.387,98.676
			c-4.122,6.351-5.377,14.145-3.457,21.469c1.832,7.118,6.578,13.135,13.074,16.574c11.782,6.186,26.345,2.026,33.082-9.45
			l32.649-53.57v49.32l-28.254,146.91c-1.604,7.076,0.058,14.499,4.527,20.215c4.006,5.055,10.101,8.005,16.551,8.012
			c13.398-0.239,24.802-9.82,27.348-22.977L337.324,344h26.316l24.473,116.238c1.362,6.692,5.403,12.536,11.184,16.172
			c3.721,2.334,8.025,3.57,12.418,3.566c2.168-0.005,4.326-0.289,6.422-0.844c12.806-3.501,20.61-16.437,17.734-29.398
			L407.48,303.23V195.832L474.226,118.484z M311.535,128.004c0.018-17.666,14.334-31.983,32-32.004c17.673,0,32,14.327,32,32
			s-14.327,32-32,32C325.863,160,311.537,145.675,311.535,128.004z M391.624,305.523l28.566,147.398
			c1.087,4.755-1.76,9.524-6.461,10.824c-2.04,0.538-4.213,0.203-5.996-0.926c-2.072-1.315-3.505-3.432-3.957-5.844L377.96,334.352
			c-0.779-3.702-4.045-6.353-7.828-6.352h-39.406c-3.832,0.001-7.126,2.718-7.855,6.48l-22.832,117.91
			c-1.287,5.44-5.896,9.455-11.461,9.984c-1.653,0.028-3.224-0.721-4.242-2.023c-1.462-2.035-1.947-4.612-1.324-7.039l28.426-147.8
			c0.097-0.498,0.145-1.005,0.145-1.512v-78.582c0.001-4.418-3.58-8.001-7.998-8.002c-2.792-0.001-5.382,1.454-6.834,3.838
			l-47.48,77.906c-2.408,4.205-7.69,5.785-12.012,3.594c-2.509-1.334-4.328-3.677-5-6.438c-0.784-2.958-0.284-6.109,1.375-8.68
			l63.965-98.031c4.377-4.711,10.732-7.063,17.121-6.336h55.414c2.222-0.001,4.344-0.925,5.859-2.551l76.562-82.32
			c1.672-2.039,4.421-2.846,6.93-2.035c2.128,0.866,3.696,2.719,4.199,4.961c0.58,2.358-0.002,4.85-1.566,6.707l-68.691,79.598
			c-1.254,1.453-1.945,3.307-1.945,5.227V304C391.481,304.511,391.53,305.021,391.624,305.523z"/>
	</g>
</g>
<g>
	<g>
		<path d="M120.078,0h-64c-4.418,0-8,3.582-8,8l-0.004,59.235c-5.058-2.15-10.5-3.25-15.996-3.235c-17.945,0-32,10.543-32,24
			s14.055,24,32,24c17.945,0,32-10.543,32-24l-0.004-0.03V48h56.004c4.418,0,8-3.582,8-8V8C128.078,3.582,124.496,0,120.078,0z
			 M32.078,96c-9.766,0-16-4.738-16-8s6.234-8,16-8c9.749,0,15.975,4.721,15.996,7.982V88h0.004C48.078,91.262,41.843,96,32.078,96z
			 M112.078,32h-48V16h48V32z"/>
	</g>
</g>
<g>
</g>
<g>
</g>
<g>
</g>
<g>
</g>
<g>
</g>
<g>
</g>
<g>
</g>
<g>
</g>
<g>
</g>
<g>
</g>
<g>
</g>
<g>
</g>
<g>
</g>
<g>
</g>
<g>
</g>
</svg>
