<?xml version="1.0" encoding="iso-8859-1"?>
<!-- Generator: Adobe Illustrator 19.0.0, SVG Export Plug-In . SVG Version: 6.00 Build 0)  -->
<svg version="1.1" id="Capa_1" xmlns="http://www.w3.org/2000/svg" xmlns:xlink="http://www.w3.org/1999/xlink" x="0px" y="0px"
	 viewBox="0 0 480 480" style="enable-background:new 0 0 480 480;" xml:space="preserve">
<g>
	<g>
		<path d="M418.289,228h-75.173c10.797-10.508,16.886-24.934,16.884-40V60c-0.036-30.913-25.087-55.964-56-56H176
			c-30.913,0.036-55.964,25.087-56,56v128c-0.002,15.066,6.088,29.492,16.884,40H69.711C31.229,228.044,0.044,259.229,0,297.711
			v120.578C0.037,450.146,25.853,475.963,57.711,476h132.578c21.07-0.018,40.459-11.51,50.589-29.985
			c11.126,18.577,31.179,29.959,52.833,29.985h124.578c34.067-0.037,61.674-27.644,61.711-61.711V289.711
			C479.963,255.644,452.356,228.037,418.289,228z M136,60c0.026-22.081,17.919-39.974,40-40h128c15.884,0.027,30.25,9.444,36.609,24
			H336c-13.249,0.014-23.986,10.751-24,24v44c0,6.627-5.373,12-12,12c-6.627,0-12-5.373-12-12V68c0-13.255-10.745-24-24-24
			s-24,10.745-24,24v28c0,6.627-5.373,12-12,12c-6.627,0-12-5.373-12-12V68c-0.014-13.249-10.751-23.986-24-24h-8
			c-13.249,0.014-23.986,10.751-24,24c-0.004,4.416-3.584,7.996-8,8h-16V60z M136,188V92h16c13.249-0.014,23.986-10.751,24-24
			c0.004-4.416,3.584-7.996,8-8h8c4.416,0.004,7.996,3.584,8,8v28c0,15.464,12.536,28,28,28s28-12.536,28-28V68c0-4.418,3.582-8,8-8
			s8,3.582,8,8v44c0,15.464,12.536,28,28,28c15.464,0,28-12.536,28-28V68c0.004-4.416,3.584-7.996,8-8h8v128
			c-0.026,22.081-17.919,39.974-40,40H176C153.919,227.974,136.026,210.081,136,188z M232,418.289
			c-0.026,23.026-18.685,41.685-41.711,41.711H57.711C34.685,459.974,16.026,441.315,16,418.289V300h12c2.208,0.003,3.997,1.792,4,4
			v36c0,13.255,10.745,24,24,24s24-10.745,24-24v-52c0-6.627,5.373-12,12-12s12,5.373,12,12v84c0,17.673,14.327,32,32,32
			s32-14.327,32-32v-68c0.003-2.208,1.792-3.997,4-4h16c2.208,0.003,3.997,1.792,4,4c0.012,11.041,8.959,19.988,20,20h20V418.289z
			 M232,308h-20c-2.208-0.003-3.997-1.792-4-4c-0.012-11.041-8.959-19.988-20-20h-16c-11.041,0.012-19.988,8.959-20,20v68
			c0,8.837-7.163,16-16,16s-16-7.163-16-16v-84c0-15.464-12.536-28-28-28s-28,12.536-28,28v52c0,4.418-3.582,8-8,8s-8-3.582-8-8v-36
			c-0.012-11.041-8.959-19.988-20-20H17.841c6.232-23.544,27.515-39.957,51.87-40h120.578c23.026,0.026,41.685,18.685,41.711,41.711
			V308z M230.062,244h22.337c-4.504,4.073-8.386,8.785-11.521,13.985C238.008,252.798,234.361,248.082,230.062,244z M464,414.289
			c-0.029,25.234-20.477,45.682-45.711,45.711H293.711c-25.234-0.029-45.682-20.477-45.711-45.711V289.711
			c0.014-1.972,0.156-3.94,0.424-5.894l35.595,0.136c2.2,0.014,3.977,1.8,3.98,4V304c0,15.464,12.536,28,28,28
			c15.464,0,28-12.536,28-28v-16c0.003-2.208,1.792-3.997,4-4h8c2.208,0.003,3.997,1.792,4,4v52c0,13.255,10.745,24,24,24
			s24-10.745,24-24v-52c0.003-2.208,1.792-3.997,4-4h8c2.208,0.003,3.997,1.792,4,4c0.012,11.041,8.959,19.989,20,20h20V414.289z
			 M464,292h-20c-2.208-0.003-3.997-1.792-4-4c-0.012-11.041-8.959-19.988-20-20h-8c-11.041,0.012-19.988,8.959-20,20v52
			c0,4.418-3.582,8-8,8s-8-3.582-8-8v-52c-0.012-11.041-8.959-19.988-20-20h-8c-11.041,0.012-19.988,8.959-20,20v16
			c0,6.627-5.373,12-12,12c-6.627,0-12-5.373-12-12v-16.047c-0.017-11.008-8.914-19.94-19.922-20l-30.49-0.116
			c8.01-14.683,23.396-23.824,40.123-23.837h124.578c25.234,0.029,45.682,20.477,45.711,45.711V292z"/>
	</g>
</g>
<g>
</g>
<g>
</g>
<g>
</g>
<g>
</g>
<g>
</g>
<g>
</g>
<g>
</g>
<g>
</g>
<g>
</g>
<g>
</g>
<g>
</g>
<g>
</g>
<g>
</g>
<g>
</g>
<g>
</g>
</svg>
