<?xml version="1.0" encoding="iso-8859-1"?>
<!-- Generator: Adobe Illustrator 19.0.0, SVG Export Plug-In . SVG Version: 6.00 Build 0)  -->
<svg version="1.1" id="Capa_1" xmlns="http://www.w3.org/2000/svg" xmlns:xlink="http://www.w3.org/1999/xlink" x="0px" y="0px"
	 viewBox="0 0 480 480" style="enable-background:new 0 0 480 480;" xml:space="preserve">
<g>
	<g>
		<path d="M439.235,468.586L304.001,182.203V48h2.359c7.777,0,13.641-7.539,13.641-17.539V17.539c0-10-5.863-17.539-13.641-17.539
			H173.646c-7.777,0-13.645,7.539-13.645,17.539v12.922c0,10,5.867,17.539,13.645,17.539h2.355v134.203L40.767,468.586
			c-1.886,3.996-0.175,8.763,3.821,10.649c1.068,0.504,2.233,0.765,3.414,0.765h384c4.418,0,8-3.582,8-8.001
			C440,470.819,439.739,469.653,439.235,468.586z M176.001,17.539c-0.003-0.517,0.047-1.032,0.148-1.539h127.703
			c0.102,0.507,0.151,1.022,0.148,1.539v12.922c0.003,0.517-0.047,1.032-0.148,1.539H176.149c-0.102-0.507-0.151-1.022-0.148-1.539
			V17.539z M191.235,187.414c0.505-1.067,0.766-2.233,0.766-3.414V48h96v136c0,1.181,0.261,2.347,0.766,3.414L313.599,240H166.403
			L191.235,187.414z M60.626,464l98.222-208h162.307l98.222,208H60.626z"/>
	</g>
</g>
<g>
	<g>
		<path d="M240.001,356c-13.255,0-24,10.745-24,24s10.745,24,24,24s24-10.745,24-24C263.986,366.751,253.25,356.014,240.001,356z
			 M240.001,388c-4.418,0-8-3.582-8-8s3.582-8,8-8s8,3.582,8,8C247.997,384.416,244.417,387.996,240.001,388z"/>
	</g>
</g>
<g>
	<g>
		<path d="M211.001,268c-13.255,0-24,10.745-24,24s10.745,24,24,24c13.249-0.014,23.986-10.751,24-24
			C235.001,278.745,224.256,268,211.001,268z M211.001,300c-4.418,0-8-3.582-8-8s3.582-8,8-8s8,3.582,8,8
			C218.997,296.416,215.417,299.996,211.001,300z"/>
	</g>
</g>
<g>
	<g>
		<path d="M355.001,378c-13.255,0-24,10.745-24,24c0.014,13.249,10.751,23.986,24,24c13.255,0,24-10.745,24-24
			S368.256,378,355.001,378z M355.001,410c-4.418,0-8-3.582-8-8c0.004-4.416,3.584-7.996,8-8c4.418,0,8,3.582,8,8
			S359.419,410,355.001,410z"/>
	</g>
</g>
<g>
	<g>
		<path d="M123.001,388c-13.255,0-24,10.745-24,24s10.745,24,24,24s24-10.745,24-24C146.986,398.751,136.25,388.014,123.001,388z
			 M123.001,420c-4.418,0-8-3.582-8-8s3.582-8,8-8s8,3.582,8,8C130.997,416.416,127.417,419.996,123.001,420z"/>
	</g>
</g>
<g>
</g>
<g>
</g>
<g>
</g>
<g>
</g>
<g>
</g>
<g>
</g>
<g>
</g>
<g>
</g>
<g>
</g>
<g>
</g>
<g>
</g>
<g>
</g>
<g>
</g>
<g>
</g>
<g>
</g>
</svg>
