<?xml version="1.0" encoding="iso-8859-1"?>
<!-- Generator: Adobe Illustrator 19.0.0, SVG Export Plug-In . SVG Version: 6.00 Build 0)  -->
<svg version="1.1" id="Capa_1" xmlns="http://www.w3.org/2000/svg" xmlns:xlink="http://www.w3.org/1999/xlink" x="0px" y="0px"
	 viewBox="0 0 480.142 480.142" style="enable-background:new 0 0 480.142 480.142;" xml:space="preserve">
<g>
	<g>
		<path d="M300.998,288.008c-13.249,0.014-23.986,10.751-24,24c0,13.255,10.745,24,24,24s24-10.745,24-24
			S314.253,288.008,300.998,288.008z M300.998,320.008c-4.418,0-8-3.582-8-8s3.582-8,8-8c4.416,0.004,7.996,3.584,8,8
			C308.998,316.426,305.416,320.008,300.998,320.008z"/>
	</g>
</g>
<g>
	<g>
		<path d="M203.732,273.301c-26.51,0-48,21.49-48,48c0,26.51,21.49,48,48,48c26.51,0,48-21.49,48-48
			C251.703,294.803,230.23,273.33,203.732,273.301z M203.732,353.301c-17.673,0-32-14.327-32-32c0-17.673,14.327-32,32-32
			c17.673,0,32,14.327,32,32C235.714,338.966,221.398,353.282,203.732,353.301z"/>
	</g>
</g>
<g>
	<g>
		<path d="M140.998,368.008c-13.255,0-24,10.745-24,24s10.745,24,24,24s24-10.745,24-24
			C164.984,378.759,154.247,368.022,140.998,368.008z M140.998,400.008c-4.418,0-8-3.582-8-8s3.582-8,8-8s8,3.582,8,8
			C148.994,396.424,145.414,400.003,140.998,400.008z"/>
	</g>
</g>
<g>
	<g>
		<path d="M212.998,400.008c-13.255,0-24,10.745-24,24s10.745,24,24,24s24-10.745,24-24
			C236.984,410.759,226.247,400.022,212.998,400.008z M212.998,432.008c-4.418,0-8-3.582-8-8s3.582-8,8-8s8,3.582,8,8
			C220.994,428.424,217.414,432.003,212.998,432.008z"/>
	</g>
</g>
<g>
	<g>
		<path d="M284.998,368.008c-13.255,0-24,10.745-24,24s10.745,24,24,24s24-10.745,24-24
			C308.983,378.759,298.247,368.022,284.998,368.008z M284.998,400.008c-4.418,0-8-3.582-8-8s3.582-8,8-8s8,3.582,8,8
			C292.994,396.424,289.414,400.003,284.998,400.008z"/>
	</g>
</g>
<g>
	<g>
		<path d="M268.998,224.008c-13.255,0-24,10.745-24,24s10.745,24,24,24c13.249-0.014,23.986-10.751,24-24
			C292.998,234.753,282.253,224.008,268.998,224.008z M268.998,256.008c-4.416-0.004-7.996-3.584-8-8c0-4.418,3.582-8,8-8
			s8,3.582,8,8S273.416,256.008,268.998,256.008z"/>
	</g>
</g>
<g>
	<g>
		<path d="M356.998,279.709V40.008c0.001-4.417-3.579-7.999-7.996-8c-0.001,0-0.003,0-0.004,0H220.189
			c-4.418-21.645-25.546-35.61-47.191-31.192c-15.709,3.206-27.985,15.483-31.192,31.192H12.998c-4.417-0.001-7.999,3.579-8,7.996
			c0,0.001,0,0.003,0,0.004v368c-0.001,4.417,3.579,7.999,7.996,8c0.001,0,0.003,0,0.004,0h76.295
			c48.419,68.436,143.148,84.663,211.583,36.244C355.682,413.477,378.506,343.306,356.998,279.709z M180.998,16.008
			c10.137,0.031,19.158,6.439,22.526,16h-45.052C161.84,22.446,170.861,16.039,180.998,16.008z M20.998,400.008v-352h320v198.354
			c-36.484-57.464-106.79-83.572-171.937-63.851c-4.233,1.282-6.625,5.753-5.343,9.985c0.093,0.308,0.205,0.61,0.335,0.905
			c4.057,9.133,6.149,19.018,6.141,29.012c0.09,39.674-31.999,71.91-71.673,72c-8.078,0.018-16.102-1.326-23.734-3.977
			c-4.182-1.439-8.739,0.785-10.177,4.968c-0.105,0.306-0.192,0.618-0.259,0.935c-2.217,10.411-3.34,21.024-3.352,31.668
			c-0.025,25.139,6.225,49.887,18.183,72H20.998z M244.02,460.424c-10.169,2.382-20.578,3.584-31.022,3.584
			c-75.053,0.057-135.943-60.739-136-135.792c-0.005-6.722,0.488-13.435,1.477-20.083c6.464,1.511,13.08,2.277,19.719,2.281
			c48.578-0.055,87.945-39.422,88-88c0.011-9.101-1.407-18.148-4.203-26.809C255.118,178.476,328.285,223.872,345.414,297
			S317.148,443.295,244.02,460.424z"/>
	</g>
</g>
<g>
	<g>
		<path d="M468.732,373.582l-7.734-15.465V8.008c0.001-4.417-3.579-7.999-7.996-8c-0.001,0-0.003,0-0.004,0h-32
			c-4.417-0.001-7.999,3.579-8,7.996c0,0.001,0,0.003,0,0.004v350.109l-7.734,15.465c-10.789,21.583-7.781,47.505,7.664,66.043
			l17.922,21.504c2.831,3.396,7.879,3.853,11.274,1.022c0.371-0.309,0.713-0.651,1.022-1.022l17.922-21.504
			C476.513,421.087,479.522,395.165,468.732,373.582z M428.998,16.008h16v296.004h-16V16.008z M428.998,328.012h16v23.996h-16
			V328.012z M448.771,429.383l-11.773,14.129l-11.773-14.129c-11.38-13.653-13.597-32.748-5.648-48.645l6.367-12.731h22.109
			l6.367,12.73C462.368,396.635,460.151,415.73,448.771,429.383z"/>
	</g>
</g>
<g>
	<g>
		<path d="M256.881,81.148l-112.594,67.555l-20.133-40.273c-1.979-3.954-6.788-5.554-10.742-3.575
			c-0.469,0.235-0.914,0.515-1.328,0.837l-72,56l9.828,12.633l64.297-50.012l19.633,39.273c1.98,3.953,6.79,5.553,10.743,3.572
			c0.18-0.09,0.357-0.187,0.53-0.291l120-72L256.881,81.148z"/>
	</g>
</g>
<g>
</g>
<g>
</g>
<g>
</g>
<g>
</g>
<g>
</g>
<g>
</g>
<g>
</g>
<g>
</g>
<g>
</g>
<g>
</g>
<g>
</g>
<g>
</g>
<g>
</g>
<g>
</g>
<g>
</g>
</svg>
