<?xml version="1.0" encoding="iso-8859-1"?>
<!-- Generator: Adobe Illustrator 19.0.0, SVG Export Plug-In . SVG Version: 6.00 Build 0)  -->
<svg version="1.1" id="Capa_1" xmlns="http://www.w3.org/2000/svg" xmlns:xlink="http://www.w3.org/1999/xlink" x="0px" y="0px"
	 viewBox="0 0 476.054 476.054" style="enable-background:new 0 0 476.054 476.054;" xml:space="preserve">
<g>
	<g>
		<path d="M340.026,100.133V23.317c6.248-2.209,9.523-9.065,7.314-15.314c-2.209-6.248-9.065-9.523-15.314-7.314
			c-6.248,2.209-9.523,9.065-7.314,15.314c1.208,3.417,3.896,6.106,7.314,7.314V97.88c-13.089-3.33-26.501-5.228-40-5.664v-68.9
			c6.248-2.209,9.523-9.065,7.314-15.314c-2.209-6.248-9.065-9.523-15.314-7.314c-6.248,2.209-9.523,9.065-7.314,15.314
			c1.208,3.417,3.896,6.106,7.314,7.314v68.737h-40V23.317c6.248-2.209,9.523-9.065,7.314-15.314
			c-2.209-6.248-9.065-9.523-15.314-7.314c-6.248,2.209-9.523,9.065-7.314,15.314c1.208,3.417,3.896,6.106,7.314,7.314v68.737h-40
			V23.317c6.248-2.209,9.523-9.065,7.314-15.314c-2.209-6.248-9.065-9.523-15.314-7.314c-6.248,2.209-9.523,9.065-7.314,15.314
			c1.208,3.417,3.896,6.106,7.314,7.314v68.737h-4c-4.416-0.003-7.997,3.575-8,7.991c0,0.003,0,0.006,0,0.009v72h-112
			c-4.416-0.003-7.997,3.575-8,7.991c0,0.003,0,0.006,0,0.009v112h-48c-4.416-0.003-7.997,3.575-8,7.991c0,0.003,0,0.006,0,0.009
			v168c-0.003,4.416,3.575,7.997,7.991,8c0.003,0,0.006,0,0.009,0h277.688c105.066-0.129,190.201-85.278,190.312-190.344
			C476.367,200.696,421.195,125.412,340.026,100.133z M336.026,8.054c2.209,0,4,1.791,4,4s-1.791,4-4,4c-2.209,0-4-1.791-4-4
			C332.03,9.846,333.819,8.058,336.026,8.054z M288.026,8.054c2.209,0,4,1.791,4,4s-1.791,4-4,4c-2.209,0-4-1.791-4-4
			C284.03,9.846,285.819,8.058,288.026,8.054z M240.026,8.054c2.209,0,4,1.791,4,4s-1.791,4-4,4c-2.209,0-4-1.791-4-4
			C236.031,9.846,237.819,8.058,240.026,8.054z M192.026,8.054c2.209,0,4,1.791,4,4s-1.791,4-4,4c-2.209,0-4-1.791-4-4
			C188.031,9.846,189.819,8.058,192.026,8.054z M285.714,460.054H16.026v-152h48c4.416,0.003,7.997-3.575,8-7.991
			c0-0.003,0-0.006,0-0.009v-112h112c4.416,0.003,7.997-3.575,8-7.991c0-0.003,0-0.006,0-0.009v-72h93.688
			c97.202,0.927,175.249,80.476,174.322,177.678C459.122,381.626,381.608,459.14,285.714,460.054z"/>
	</g>
</g>
<g>
	<g>
		<path d="M310.599,146.124c0.301-0.008,0.603-0.008,0.904,0v-16c-18.551-0.106-33.688,14.824-33.836,33.375
			c0.148,18.552,15.283,33.485,33.836,33.383v-16c-9.598,0.25-17.581-7.329-17.831-16.927
			C293.422,154.357,301,146.374,310.599,146.124z"/>
	</g>
</g>
<g>
</g>
<g>
</g>
<g>
</g>
<g>
</g>
<g>
</g>
<g>
</g>
<g>
</g>
<g>
</g>
<g>
</g>
<g>
</g>
<g>
</g>
<g>
</g>
<g>
</g>
<g>
</g>
<g>
</g>
</svg>
